<svg xmlns="http://www.w3.org/2000/svg" viewBox="0 0 395.946 409.6">
  <defs>
    <style>
      .cls-1 {
        fill: #ffe600;
      }

      .cls-2 {
        fill: #ea3457;
      }

      .cls-3 {
        fill: #602f75;
      }

      .cls-4 {
        fill: #fff;
      }

      .cls-5 {
        fill: #00e7ff;
      }
    </style>
  </defs>
  <g id="tic-tac-toe" transform="translate(-6.827)">
    <g id="Group_22" data-name="Group 22">
      <path id="Path_82" data-name="Path 82" class="cls-1" d="M94.4,61.44l31.307-31.307A13.651,13.651,0,0,0,106.4,10.827L75.093,42.134,43.786,10.827A13.651,13.651,0,0,0,24.48,30.133L55.788,61.44,24.48,92.747a13.651,13.651,0,1,0,19.306,19.306L75.093,80.746,106.4,112.053a13.651,13.651,0,0,0,19.306-19.306Z"/>
      <path id="Path_83" data-name="Path 83" class="cls-1" d="M116.053,122.88a20.344,20.344,0,0,1-14.483-6L75.093,90.4,48.612,116.879c-7.726,7.733-21.229,7.733-28.964,0a20.5,20.5,0,0,1,0-28.96L46.133,61.44,19.654,34.959a20.5,20.5,0,0,1,0-28.96C27.38-1.734,40.883-1.734,48.618,6L75.093,32.48,101.574,6C109.3-1.734,122.8-1.734,130.538,6a20.5,20.5,0,0,1,0,28.96L104.054,61.44l26.481,26.481a20.479,20.479,0,0,1-14.482,34.959ZM75.093,73.919a6.8,6.8,0,0,1,4.826,2l31.307,31.307a6.968,6.968,0,0,0,9.649,0,6.831,6.831,0,0,0,0-9.653L89.573,66.266a6.825,6.825,0,0,1,0-9.653L120.88,25.306a6.834,6.834,0,0,0,0-9.653,6.968,6.968,0,0,0-9.649,0L79.92,46.961a6.825,6.825,0,0,1-9.653,0L38.96,15.654a6.968,6.968,0,0,0-9.649,0,6.831,6.831,0,0,0,0,9.653L60.615,56.614a6.825,6.825,0,0,1,0,9.653L29.307,97.574a6.834,6.834,0,0,0,0,9.653,6.968,6.968,0,0,0,9.649,0L70.267,75.92A6.8,6.8,0,0,1,75.093,73.919Z"/>
      <path id="Path_84" data-name="Path 84" class="cls-1" d="M353.812,61.44l31.307-31.307a13.651,13.651,0,0,0-19.306-19.306L334.506,42.134,303.2,10.827a13.651,13.651,0,1,0-19.306,19.306L315.2,61.44,283.894,92.747A13.651,13.651,0,1,0,303.2,112.053l31.307-31.307,31.307,31.307A13.651,13.651,0,1,0,385.12,92.747Z"/>
      <path id="Path_85" data-name="Path 85" class="cls-1" d="M375.467,122.88a20.344,20.344,0,0,1-14.483-6L334.507,90.4l-26.481,26.481c-7.726,7.733-21.229,7.733-28.964,0a20.5,20.5,0,0,1,0-28.96L305.546,61.44,279.065,34.959a20.5,20.5,0,0,1,0-28.96c7.726-7.733,21.229-7.733,28.964,0L334.506,32.48,360.987,6c7.726-7.733,21.229-7.733,28.964,0a20.5,20.5,0,0,1,0,28.96L363.467,61.44l26.481,26.481a20.479,20.479,0,0,1-14.481,34.959Zm-40.96-48.961a6.8,6.8,0,0,1,4.826,2l31.307,31.307a6.97,6.97,0,0,0,9.65,0,6.831,6.831,0,0,0,0-9.653L348.986,66.266a6.825,6.825,0,0,1,0-9.653l31.307-31.307a6.834,6.834,0,0,0,0-9.653,6.97,6.97,0,0,0-9.65,0L339.333,46.96a6.825,6.825,0,0,1-9.653,0L298.373,15.653a6.97,6.97,0,0,0-9.65,0,6.831,6.831,0,0,0,0,9.653l31.307,31.307a6.825,6.825,0,0,1,0,9.653L288.72,97.574a6.834,6.834,0,0,0,0,9.653,6.97,6.97,0,0,0,9.65,0L329.68,75.92A6.8,6.8,0,0,1,334.507,73.919Z"/>
    </g>
    <path id="Path_86" data-name="Path 86" class="cls-2" d="M224.106,348.16l31.307-31.307a13.651,13.651,0,0,0-19.306-19.306L204.8,328.854l-31.307-31.307a13.651,13.651,0,1,0-19.306,19.306l31.307,31.307-31.307,31.307a13.651,13.651,0,1,0,19.306,19.306L204.8,367.466l31.307,31.307a13.651,13.651,0,0,0,19.306-19.306Z"/>
    <path id="Path_87" data-name="Path 87" class="cls-3" d="M245.76,409.6a20.344,20.344,0,0,1-14.483-6L204.8,377.12,178.319,403.6c-7.726,7.733-21.229,7.733-28.964,0a20.5,20.5,0,0,1,0-28.96l26.481-26.481-26.481-26.481a20.5,20.5,0,0,1,0-28.96c7.726-7.733,21.229-7.733,28.964,0L204.8,319.2l26.481-26.481c7.726-7.733,21.229-7.733,28.964,0a20.5,20.5,0,0,1,0,28.96L233.76,348.16l26.481,26.481A20.479,20.479,0,0,1,245.76,409.6ZM204.8,360.639a6.8,6.8,0,0,1,4.826,2l31.307,31.307a6.969,6.969,0,0,0,9.65,0,6.831,6.831,0,0,0,0-9.653l-31.307-31.307a6.825,6.825,0,0,1,0-9.653l31.307-31.307a6.834,6.834,0,0,0,0-9.653,6.969,6.969,0,0,0-9.65,0L209.625,333.68a6.825,6.825,0,0,1-9.653,0l-31.307-31.307a6.968,6.968,0,0,0-9.649,0,6.831,6.831,0,0,0,0,9.653l31.307,31.307a6.825,6.825,0,0,1,0,9.653l-31.307,31.307a6.834,6.834,0,0,0,0,9.653,6.968,6.968,0,0,0,9.649,0l31.31-31.307A6.811,6.811,0,0,1,204.8,360.639Z"/>
    <path id="Path_88" data-name="Path 88" class="cls-2" d="M94.4,204.8l31.307-31.307A13.651,13.651,0,1,0,106.4,154.187L75.093,185.494,43.786,154.187A13.651,13.651,0,1,0,24.48,173.493L55.788,204.8,24.48,236.107a13.651,13.651,0,1,0,19.306,19.306l31.307-31.307L106.4,255.413a13.651,13.651,0,0,0,19.306-19.306Z"/>
    <path id="Path_89" data-name="Path 89" class="cls-3" d="M116.053,266.24a20.344,20.344,0,0,1-14.483-6L75.093,233.76,48.612,260.241c-7.726,7.733-21.229,7.733-28.964,0a20.5,20.5,0,0,1,0-28.96L46.133,204.8,19.652,178.319a20.5,20.5,0,0,1,0-28.96c7.726-7.733,21.229-7.733,28.964,0L75.093,175.84l26.481-26.481c7.726-7.733,21.229-7.733,28.964,0a20.5,20.5,0,0,1,0,28.96L104.054,204.8l26.481,26.481a20.479,20.479,0,0,1-14.482,34.959Zm-40.96-48.961a6.8,6.8,0,0,1,4.826,2l31.307,31.307a6.968,6.968,0,0,0,9.649,0,6.831,6.831,0,0,0,0-9.653L89.571,209.626a6.825,6.825,0,0,1,0-9.653l31.307-31.307a6.834,6.834,0,0,0,0-9.653,6.968,6.968,0,0,0-9.649,0L79.92,190.321a6.825,6.825,0,0,1-9.653,0L38.96,159.014a6.968,6.968,0,0,0-9.649,0,6.831,6.831,0,0,0,0,9.653l31.307,31.307a6.825,6.825,0,0,1,0,9.653L29.308,240.934a6.834,6.834,0,0,0,0,9.653,6.968,6.968,0,0,0,9.649,0L70.268,219.28A6.8,6.8,0,0,1,75.093,217.279Z"/>
    <path id="Path_90" data-name="Path 90" class="cls-4" d="M204.8,116.053A54.613,54.613,0,1,1,259.413,61.44,54.674,54.674,0,0,1,204.8,116.053Zm0-81.92A27.307,27.307,0,1,0,232.107,61.44,27.337,27.337,0,0,0,204.8,34.133Z"/>
    <path id="Path_91" data-name="Path 91" class="cls-3" d="M204.8,122.88a61.44,61.44,0,1,1,61.44-61.44A61.508,61.508,0,0,1,204.8,122.88Zm0-109.227A47.787,47.787,0,1,0,252.587,61.44,47.843,47.843,0,0,0,204.8,13.653Zm0,81.92A34.133,34.133,0,1,1,238.933,61.44,34.174,34.174,0,0,1,204.8,95.573Zm0-54.613a20.48,20.48,0,1,0,20.48,20.48A20.5,20.5,0,0,0,204.8,40.96Z"/>
    <path id="Path_92" data-name="Path 92" class="cls-5" d="M204.8,259.413A54.613,54.613,0,1,1,259.413,204.8,54.674,54.674,0,0,1,204.8,259.413Zm0-81.92A27.307,27.307,0,1,0,232.107,204.8,27.337,27.337,0,0,0,204.8,177.493Z"/>
    <path id="Path_93" data-name="Path 93" class="cls-3" d="M204.8,266.24a61.44,61.44,0,1,1,61.44-61.44A61.508,61.508,0,0,1,204.8,266.24Zm0-109.227A47.787,47.787,0,1,0,252.587,204.8,47.843,47.843,0,0,0,204.8,157.013Zm0,81.92A34.133,34.133,0,1,1,238.933,204.8,34.174,34.174,0,0,1,204.8,238.933Zm0-54.613a20.48,20.48,0,1,0,20.48,20.48A20.5,20.5,0,0,0,204.8,184.32Z"/>
    <path id="Path_94" data-name="Path 94" class="cls-1" d="M68.267,402.773A54.613,54.613,0,1,1,122.88,348.16,54.674,54.674,0,0,1,68.267,402.773Zm0-81.92A27.307,27.307,0,1,0,95.574,348.16,27.337,27.337,0,0,0,68.267,320.853Z"/>
    <path id="Path_95" data-name="Path 95" class="cls-3" d="M68.267,409.6a61.44,61.44,0,1,1,61.44-61.44A61.508,61.508,0,0,1,68.267,409.6Zm0-109.227a47.787,47.787,0,1,0,47.787,47.787A47.843,47.843,0,0,0,68.267,300.373Zm0,81.92A34.133,34.133,0,1,1,102.4,348.16,34.174,34.174,0,0,1,68.267,382.293Zm0-54.613a20.48,20.48,0,1,0,20.48,20.48A20.5,20.5,0,0,0,68.267,327.68Z"/>
    <path id="Path_96" data-name="Path 96" class="cls-5" d="M341.333,402.773a54.613,54.613,0,1,1,54.613-54.613A54.674,54.674,0,0,1,341.333,402.773Zm0-81.92A27.307,27.307,0,1,0,368.64,348.16,27.337,27.337,0,0,0,341.333,320.853Z"/>
    <path id="Path_97" data-name="Path 97" class="cls-3" d="M341.333,409.6a61.44,61.44,0,1,1,61.44-61.44A61.508,61.508,0,0,1,341.333,409.6Zm0-109.227A47.787,47.787,0,1,0,389.12,348.16,47.843,47.843,0,0,0,341.333,300.373Zm0,81.92a34.133,34.133,0,1,1,34.133-34.133A34.174,34.174,0,0,1,341.333,382.293Zm0-54.613a20.48,20.48,0,1,0,20.48,20.48A20.5,20.5,0,0,0,341.333,327.68Z"/>
    <path id="Path_98" data-name="Path 98" class="cls-4" d="M341.333,259.413A54.613,54.613,0,1,1,395.946,204.8,54.674,54.674,0,0,1,341.333,259.413Zm0-81.92A27.307,27.307,0,1,0,368.64,204.8,27.337,27.337,0,0,0,341.333,177.493Z"/>
    <path id="Path_99" data-name="Path 99" class="cls-3" d="M341.333,266.24a61.44,61.44,0,1,1,61.44-61.44A61.508,61.508,0,0,1,341.333,266.24Zm0-109.227A47.787,47.787,0,1,0,389.12,204.8,47.843,47.843,0,0,0,341.333,157.013Zm0,81.92A34.133,34.133,0,1,1,375.466,204.8,34.174,34.174,0,0,1,341.333,238.933Zm0-54.613a20.48,20.48,0,1,0,20.48,20.48A20.5,20.5,0,0,0,341.333,184.32Z"/>
  </g>
</svg>
