<svg xmlns="http://www.w3.org/2000/svg" viewBox="0 0 282.842 282.842">
  <defs>
    <style>
      .cls-1 {
        fill: #ffe600;
      }

      .cls-2, .cls-3 {
        stroke: none;
      }

      .cls-3 {
        fill: #602f75;
      }
    </style>
  </defs>
  <g id="Group_23" data-name="Group 23" transform="translate(-1956.578 266.421)">
    <g id="Union_1" data-name="Union 1" class="cls-1" transform="translate(2098 -266.421) rotate(45)">
      <path class="cls-2" d="M 99.99990081787109 193.9998016357422 C 90.07452392578125 193.9998016357422 81.99961853027344 185.9253082275391 81.99961853027344 176.0003967285156 L 81.99961853027344 124.0002136230469 L 81.99961853027344 118.0002136230469 L 75.99961853027344 118.0002136230469 L 24.00030708312988 118.0002136230469 C 14.07490062713623 118.0002136230469 5.99999475479126 109.9253082275391 5.99999475479126 99.99990081787109 C 5.99999475479126 90.07452392578125 14.07490062713623 81.99961853027344 24.00030708312988 81.99961853027344 L 75.99961853027344 81.99961853027344 L 81.99961853027344 81.99961853027344 L 81.99961853027344 75.99961853027344 L 81.99961853027344 24.00030708312988 C 81.99961853027344 14.07490062713623 90.07452392578125 5.99999475479126 99.99990081787109 5.99999475479126 C 109.9253082275391 5.99999475479126 118.0002136230469 14.07490062713623 118.0002136230469 24.00030708312988 L 118.0002136230469 75.99961853027344 L 118.0002136230469 81.99961853027344 L 124.0002136230469 81.99961853027344 L 176.0003967285156 81.99961853027344 C 185.9253082275391 81.99961853027344 193.9998016357422 90.07452392578125 193.9998016357422 99.99990081787109 C 193.9998016357422 109.9253082275391 185.9253082275391 118.0002136230469 176.0003967285156 118.0002136230469 L 124.0002136230469 118.0002136230469 L 118.0002136230469 118.0002136230469 L 118.0002136230469 124.0002136230469 L 118.0002136230469 176.0003967285156 C 118.0002136230469 185.9253082275391 109.9253082275391 193.9998016357422 99.99990081787109 193.9998016357422 Z"/>
      <path class="cls-3" d="M 99.99990081787109 187.9998168945313 C 106.6168975830078 187.9998168945313 112.0002059936523 182.6168975830078 112.0002059936523 176.0003967285156 L 112.0002059936523 124.0002059936523 L 112.0002059936523 112.0002059936523 L 124.0002059936523 112.0002059936523 L 176.0003967285156 112.0002059936523 C 182.6168975830078 112.0002059936523 187.9998168945313 106.6168975830078 187.9998168945313 99.99990081787109 C 187.9998168945313 93.38290405273438 182.6168975830078 87.99959564208984 176.0003967285156 87.99959564208984 L 124.0002059936523 87.99959564208984 L 112.0002059936523 87.99959564208984 L 112.0002059936523 75.99959564208984 L 112.0002059936523 24.00028610229492 C 112.0002059936523 17.38332366943359 106.6168975830078 12.00001621246338 99.99990081787109 12.00001621246338 C 93.38290405273438 12.00001621246338 87.99959564208984 17.38332366943359 87.99959564208984 24.00028610229492 L 87.99959564208984 75.99959564208984 L 87.99959564208984 87.99959564208984 L 75.99959564208984 87.99959564208984 L 24.00028610229492 87.99959564208984 C 17.38332366943359 87.99959564208984 12.00001621246338 93.38290405273438 12.00001621246338 99.99990081787109 C 12.00001621246338 106.6168975830078 17.38332366943359 112.0002059936523 24.00028610229492 112.0002059936523 L 75.99959564208984 112.0002059936523 L 87.99959564208984 112.0002059936523 L 87.99959564208984 124.0002059936523 L 87.99959564208984 176.0003967285156 C 87.99959564208984 182.6168975830078 93.38290405273438 187.9998168945313 99.99990081787109 187.9998168945313 M 99.99990081787109 199.9998168945313 C 86.74559020996094 199.9998168945313 75.99959564208984 189.2547149658203 75.99959564208984 176.0003967285156 L 75.99959564208984 124.0002059936523 L 24.00028610229492 124.0002059936523 C 10.74509334564209 124.0002059936523 1.62024862220278e-05 113.2550964355469 1.62024862220278e-05 99.99990081787109 C 1.62024862220278e-05 86.74559020996094 10.74509334564209 75.99959564208984 24.00028610229492 75.99959564208984 L 75.99959564208984 75.99959564208984 L 75.99959564208984 24.00028610229492 C 75.99959564208984 10.74509334564209 86.74559020996094 1.62024862220278e-05 99.99990081787109 1.62024862220278e-05 C 113.2550964355469 1.62024862220278e-05 124.0002059936523 10.74509334564209 124.0002059936523 24.00028610229492 L 124.0002059936523 75.99959564208984 L 176.0003967285156 75.99959564208984 C 189.2547149658203 75.99959564208984 199.9998168945313 86.74559020996094 199.9998168945313 99.99990081787109 C 199.9998168945313 113.2550964355469 189.2547149658203 124.0002059936523 176.0003967285156 124.0002059936523 L 124.0002059936523 124.0002059936523 L 124.0002059936523 176.0003967285156 C 124.0002059936523 189.2547149658203 113.2550964355469 199.9998168945313 99.99990081787109 199.9998168945313 Z"/>
    </g>
  </g>
</svg>
