<svg xmlns="http://www.w3.org/2000/svg" viewBox="0 0 296.892 440.94">
  <defs>
    <style>
      .cls-1 {
        fill: #6a9923;
      }

      .cls-2 {
        fill: #618c20;
      }

      .cls-3 {
        fill: #88b337;
      }

      .cls-4 {
        fill: #595959;
      }

      .cls-5 {
        fill: #00c3ff;
      }

      .cls-6 {
        fill: #00aaf0;
      }

      .cls-7 {
        fill: #e4eaf8;
      }

      .cls-8 {
        fill: #ffc850;
      }

      .cls-9 {
        fill: #ff5050;
      }

      .cls-10 {
        fill: #ed3a3a;
      }

      .cls-11 {
        fill: #f9b428;
      }

      .cls-12 {
        fill: #eda320;
      }

      .cls-13 {
        fill: #ad7b64;
      }

      .cls-14 {
        fill: #9e6b57;
      }

      .cls-15 {
        fill: #d8dce5;
      }

      .cls-16, .cls-19 {
        fill: #c79369;
      }

      .cls-16, .cls-17, .cls-18, .cls-20, .cls-21, .cls-22, .cls-27 {
        fill-rule: evenodd;
      }

      .cls-17 {
        fill: #d9eced;
      }

      .cls-18, .cls-25 {
        fill: #e7b791;
      }

      .cls-20, .cls-24 {
        fill: #f5f0f0;
      }

      .cls-21, .cls-26 {
        fill: #323232;
      }

      .cls-22, .cls-23 {
        fill: #1a1a1a;
      }

      .cls-27, .cls-28 {
        fill: #5e3a1d;
      }

      .cls-29 {
        fill: #50d1ef;
      }

      .cls-30 {
        fill: #ffed00;
      }
    </style>
  </defs>
  <g id="Group_23" data-name="Group 23" transform="translate(-22 -145.938)">
    <g id="trees" transform="translate(22 231.861)">
      <path id="Path_90" data-name="Path 90" class="cls-1" d="M159.013,131.85a39.1,39.1,0,0,0-17.1-32.394,34.321,34.321,0,0,0-5.29-47.981A33.7,33.7,0,0,0,115.432,44c-.484,0-.968.054-1.453.073a34.213,34.213,0,0,0-22.626-42.6A33.852,33.852,0,0,0,49.092,24.278a34.425,34.425,0,0,0,0,19.79c-.484,0-.968-.073-1.453-.073a34.192,34.192,0,0,0-26.478,55.46,39.191,39.191,0,0,0,0,64.788,34.321,34.321,0,0,0,5.29,47.981A33.7,33.7,0,0,0,47.64,219.7h67.792a34.192,34.192,0,0,0,26.478-55.46A39.1,39.1,0,0,0,159.013,131.85Z" transform="translate(-4.048 0.001)"/>
      <path id="Path_91" data-name="Path 91" class="cls-2" d="M146.575,146.385a4.815,4.815,0,0,0-6.847-.1l-25.674,25.029V100.994a4.842,4.842,0,1,0-9.685,0v34.585l-22-22.173a4.816,4.816,0,0,0-6.847.12,4.909,4.909,0,0,0,0,6.781l28.846,29.075v66.73L83.581,195.159a4.815,4.815,0,0,0-6.847.12,4.908,4.908,0,0,0,0,6.782l27.635,27.855v90.714a4.842,4.842,0,1,0,9.685,0V184.895L146.5,153.3a4.908,4.908,0,0,0,.091-6.9l-.014-.014Z" transform="translate(-31.724 -37.474)"/>
      <path id="Path_92" data-name="Path 92" class="cls-1" d="M367.013,131.85a39.1,39.1,0,0,0-17.1-32.394,34.32,34.32,0,0,0-5.29-47.981A33.7,33.7,0,0,0,323.432,44c-.484,0-.969.054-1.453.073a34.213,34.213,0,0,0-22.626-42.6,33.852,33.852,0,0,0-42.261,22.806,34.425,34.425,0,0,0,0,19.79c-.484,0-.968-.073-1.453-.073a34.192,34.192,0,0,0-26.478,55.46,39.191,39.191,0,0,0,0,64.788,34.321,34.321,0,0,0,5.29,47.981,33.7,33.7,0,0,0,21.187,7.48h67.792a34.192,34.192,0,0,0,26.478-55.46,39.1,39.1,0,0,0,17.1-32.393Z" transform="translate(-86.148 0.001)"/>
      <path id="Path_93" data-name="Path 93" class="cls-2" d="M354.531,146.351a4.815,4.815,0,0,0-6.847,0l-25.63,25.834V100.994a4.842,4.842,0,1,0-9.685,0v34.585l-22-22.173a4.815,4.815,0,0,0-6.847.12,4.909,4.909,0,0,0,0,6.782l28.846,29.075v66.73l-20.788-20.953a4.815,4.815,0,0,0-6.847.12,4.908,4.908,0,0,0,0,6.782l27.635,27.855v90.714a4.842,4.842,0,1,0,9.685,0V185.651a4.672,4.672,0,0,0,1-.674l31.475-31.725a4.908,4.908,0,0,0,0-6.9Z" transform="translate(-113.824 -37.474)"/>
      <path id="Path_94" data-name="Path 94" class="cls-3" d="M263.013,131.85a39.1,39.1,0,0,0-17.1-32.394,34.32,34.32,0,0,0-5.29-47.981A33.7,33.7,0,0,0,219.432,44c-.484,0-.968.054-1.453.073a34.213,34.213,0,0,0-22.627-42.6,33.852,33.852,0,0,0-42.26,22.806,34.425,34.425,0,0,0,0,19.79c-.484,0-.968-.073-1.453-.073a34.192,34.192,0,0,0-26.478,55.46,39.191,39.191,0,0,0,0,64.788,34.321,34.321,0,0,0,5.29,47.981,33.7,33.7,0,0,0,21.187,7.48h67.792a34.192,34.192,0,0,0,26.478-55.46A39.1,39.1,0,0,0,263.013,131.85Z" transform="translate(-45.098 0.001)"/>
      <path id="Path_95" data-name="Path 95" class="cls-1" d="M250.531,146.351a4.815,4.815,0,0,0-6.847,0l-25.63,25.834V100.994a4.842,4.842,0,1,0-9.685,0v34.585l-22-22.173a4.816,4.816,0,0,0-6.847.12,4.909,4.909,0,0,0,0,6.781l28.846,29.075v66.73l-20.788-20.953a4.816,4.816,0,0,0-6.847.12,4.909,4.909,0,0,0,0,6.782l27.635,27.855v90.714a4.842,4.842,0,1,0,9.685,0V185.651a4.674,4.674,0,0,0,1-.674l31.475-31.725a4.908,4.908,0,0,0,0-6.9Z" transform="translate(-72.774 -37.474)"/>
      <path id="Path_96" data-name="Path 96" class="cls-4" d="M261.547,465.875H96.908a4.881,4.881,0,0,1,0-9.762H261.547a4.881,4.881,0,0,1,0,9.762Z" transform="translate(-38.79 -177.839)"/>
    </g>
    <g id="castle_1_" data-name="castle (1)" transform="translate(38.2 270.98)">
      <path id="Path_76" data-name="Path 76" class="cls-5" d="M279.828,32.109H256.15V14.747H279.5a3.806,3.806,0,0,1,3.806,3.806V28.628A3.48,3.48,0,0,1,279.828,32.109Z" transform="translate(-132.158 -7.581)"/>
      <rect id="Rectangle_3" data-name="Rectangle 3" class="cls-6" width="13.855" height="17.362" transform="translate(123.991 7.166)"/>
      <path id="Path_77" data-name="Path 77" class="cls-7" d="M252.193,47.8a3.74,3.74,0,0,1-3.74-3.74V3.74a3.74,3.74,0,1,1,7.48,0V44.061A3.739,3.739,0,0,1,252.193,47.8Z" transform="translate(-128.201)"/>
      <rect id="Rectangle_4" data-name="Rectangle 4" class="cls-5" width="148.113" height="69.542" transform="translate(49.583 165.34)"/>
      <g id="Group_16" data-name="Group 16" transform="translate(49.583 165.34)">
        <rect id="Rectangle_5" data-name="Rectangle 5" class="cls-6" width="11.94" height="69.542" transform="translate(116.945)"/>
        <rect id="Rectangle_6" data-name="Rectangle 6" class="cls-6" width="12.293" height="69.542"/>
      </g>
      <rect id="Rectangle_7" data-name="Rectangle 7" class="cls-8" width="88.348" height="132.771" transform="translate(79.817 102.111)"/>
      <path id="Path_78" data-name="Path 78" class="cls-9" d="M202.513,79.49l-47.706,59.524c-1.089,1.36-.29,3.629,1.279,3.629H251.5c1.569,0,2.369-2.269,1.279-3.629L205.071,79.49A1.577,1.577,0,0,0,202.513,79.49Z" transform="translate(-79.8 -40.529)"/>
      <path id="Path_79" data-name="Path 79" class="cls-10" d="M165.107,139.014,208.943,84.32l-3.871-4.83a1.578,1.578,0,0,0-2.558,0l-47.706,59.524c-1.089,1.36-.29,3.629,1.279,3.629h10.3C164.817,142.642,164.018,140.373,165.107,139.014Z" transform="translate(-79.8 -40.529)"/>
      <g id="Group_17" data-name="Group 17" transform="translate(79.817 102.111)">
        <rect id="Rectangle_8" data-name="Rectangle 8" class="cls-11" width="88.348" height="13.542"/>
        <rect id="Rectangle_9" data-name="Rectangle 9" class="cls-11" width="9.974" height="132.771"/>
      </g>
      <rect id="Rectangle_10" data-name="Rectangle 10" class="cls-12" width="9.974" height="13.542" transform="translate(79.817 102.111)"/>
      <path id="Path_80" data-name="Path 80" class="cls-9" d="M32.9,196.833,61.155,227.1a1.094,1.094,0,0,1-.758,1.845H3.879a1.094,1.094,0,0,1-.758-1.845l28.259-30.266A1.029,1.029,0,0,1,32.9,196.833Z" transform="translate(-1.925 -101.02)"/>
      <path id="Path_81" data-name="Path 81" class="cls-10" d="M13.1,227.1l24.03-25.736-4.229-4.53a1.029,1.029,0,0,0-1.516,0L3.121,227.1a1.094,1.094,0,0,0,.758,1.845h9.974A1.094,1.094,0,0,1,13.1,227.1Z" transform="translate(-1.925 -101.019)"/>
      <rect id="Rectangle_11" data-name="Rectangle 11" class="cls-8" width="44.174" height="106.958" transform="translate(8.126 127.924)"/>
      <g id="Group_18" data-name="Group 18" transform="translate(8.126 127.924)">
        <rect id="Rectangle_12" data-name="Rectangle 12" class="cls-11" width="44.174" height="13.542"/>
        <rect id="Rectangle_13" data-name="Rectangle 13" class="cls-11" width="9.83" height="106.958"/>
      </g>
      <rect id="Rectangle_14" data-name="Rectangle 14" class="cls-12" width="9.83" height="13.542" transform="translate(8.126 127.924)"/>
      <path id="Path_82" data-name="Path 82" class="cls-13" d="M233.743,332.042h0c-11.648,0-21.179,9.854-21.179,21.9v51.644h42.357V353.938C254.921,341.9,245.391,332.042,233.743,332.042Z" transform="translate(-109.751 -170.701)"/>
      <path id="Path_83" data-name="Path 83" class="cls-14" d="M238.731,332.664a20.363,20.363,0,0,0-4.987-.623h0c-11.648,0-21.179,9.854-21.179,21.9v51.644h9.974V353.938A21.846,21.846,0,0,1,238.731,332.664Z" transform="translate(-109.751 -170.7)"/>
      <path id="Path_84" data-name="Path 84" class="cls-11" d="M59.2,387a3.74,3.74,0,0,1-3.74-3.74V336.689a3.74,3.74,0,1,1,7.48,0v46.573A3.74,3.74,0,0,1,59.2,387Z" transform="translate(-28.983 -171.167)"/>
      <path id="Path_85" data-name="Path 85" class="cls-9" d="M418.588,196.833,446.847,227.1a1.094,1.094,0,0,1-.758,1.845H389.57a1.094,1.094,0,0,1-.758-1.845l28.259-30.266A1.031,1.031,0,0,1,418.588,196.833Z" transform="translate(-200.206 -101.02)"/>
      <path id="Path_86" data-name="Path 86" class="cls-10" d="M398.788,227.1l24.03-25.736-4.229-4.53a1.029,1.029,0,0,0-1.516,0L388.813,227.1a1.094,1.094,0,0,0,.758,1.845h9.974A1.094,1.094,0,0,1,398.788,227.1Z" transform="translate(-200.207 -101.019)"/>
      <rect id="Rectangle_15" data-name="Rectangle 15" class="cls-8" width="44.174" height="106.958" transform="translate(195.536 127.924)"/>
      <g id="Group_19" data-name="Group 19" transform="translate(195.536 127.924)">
        <rect id="Rectangle_16" data-name="Rectangle 16" class="cls-11" width="44.174" height="13.542"/>
        <rect id="Rectangle_17" data-name="Rectangle 17" class="cls-11" width="9.83" height="106.958"/>
      </g>
      <rect id="Rectangle_18" data-name="Rectangle 18" class="cls-12" width="9.83" height="13.542" transform="translate(195.536 127.924)"/>
      <path id="Path_87" data-name="Path 87" class="cls-11" d="M444.888,387a3.74,3.74,0,0,1-3.74-3.74V336.689a3.74,3.74,0,1,1,7.48,0v46.573A3.739,3.739,0,0,1,444.888,387Z" transform="translate(-227.264 -171.167)"/>
      <path id="Path_88" data-name="Path 88" class="cls-7" d="M244.273,482.362H5.512a4.617,4.617,0,0,0-4.538,4.692v8.665a1.044,1.044,0,0,0,1.045,1.045H247.768a1.044,1.044,0,0,0,1.045-1.045v-8.665A4.619,4.619,0,0,0,244.273,482.362Z" transform="translate(-0.974 -247.979)"/>
      <path id="Path_89" data-name="Path 89" class="cls-15" d="M247.767,493.789H2.019a1.044,1.044,0,0,1-1.045-1.045v8.311A1.044,1.044,0,0,0,2.019,502.1H247.768a1.044,1.044,0,0,0,1.045-1.045v-8.311A1.046,1.046,0,0,1,247.767,493.789Z" transform="translate(-0.974 -253.316)"/>
    </g>
    <g id="wedding-couple" transform="translate(119.407 431)">
      <g id="Group_7" data-name="Group 7" transform="translate(0 0)">
        <path id="Path_1" data-name="Path 1" class="cls-16" d="M139.868,56.45l5.137,1.013,1.48-13.087-5.137-1.012Z" transform="translate(-75.376 -8.228)"/>
        <path id="Path_2" data-name="Path 2" class="cls-17" d="M27.481,16.365C39.668,11.43,53.42,31.508,59.03,61.71,53.972,72.262,46.731,80.278,38.038,83.8s-17.432,1.975-24.992-3.467C9.093,49.459,15.293,21.3,27.481,16.365Z" transform="translate(-11.859 -2.964)"/>
        <path id="Path_3" data-name="Path 3" class="cls-18" d="M75.618,71.164c2.328-.977,7.234-4.086,9.049-6.531l1.025,2.82c-1.527,3.149-6.436,7.451-8.644,9.431Z" transform="translate(-43.496 -12.264)"/>
        <path id="Path_4" data-name="Path 4" class="cls-18" d="M58.016,68.627a35.627,35.627,0,0,0,9.217,2.637l-.4,6.032a25.451,25.451,0,0,1-7.949-.313C53.542,75.621,52.335,66.066,58.016,68.627Z" transform="translate(-32.908 -12.94)"/>
        <path id="Path_5" data-name="Path 5" class="cls-18" d="M90.651,62.672c.332-1.049.744-1.1,1.094-.491.364-1.642,1.419-2.368,1.927-1.954.987.806,1.235,3.209.554,5.365s-2.033,3.252-3.021,2.445S89.97,64.829,90.651,62.672Z" transform="translate(-50.764 -11.406)"/>
        <path id="Path_35" data-name="Path 35" class="cls-19" d="M1.222.866,7.307,0,6.085,12.984,0,13.85Z" transform="matrix(-0.968, 0.251, -0.251, -0.968, 27.753, 60.639)"/>
        <path id="Path_6" data-name="Path 6" class="cls-18" d="M56.8,98.471,52.126,82.366l-.911-12.329a13.391,13.391,0,0,0,5.673-2.364c1.49.535,3.68,5.546,4.065,10.335L62.631,96.04Z" transform="translate(-31.387 -12.841)"/>
        <path id="Path_7" data-name="Path 7" class="cls-20" d="M49.58,101.248c12.567,0,22.856,24.871,23.71,56.361-6.506,8.246-14.746,13.176-23.71,13.176s-14.826-6.668-21.332-14.914C29.1,124.381,37.012,101.248,49.58,101.248Z" transform="translate(-19.991 -19.212)"/>
        <path id="Path_8" data-name="Path 8" class="cls-20" d="M53.023,83.68c.7-.271,4.668-9.613,7.93-9.058a23.4,23.4,0,0,1,.9,4.7l1.662,17.849.017.183-5.834,2.432Z" transform="translate(-32.284 -14.155)"/>
        <path id="Path_9" data-name="Path 9" class="cls-18" d="M58.65,75.7c4.683,6.513,12.411,14.181,19.83,17.523l-.613,3.252C70.7,94.845,61.1,88.667,57.138,84.334,52.4,79.157,53.926,69.13,58.65,75.7Z" transform="translate(-32.897 -13.954)"/>
        <path id="Path_10" data-name="Path 10" class="cls-20" d="M70.328,190.619c2.328,0,4.226-1.534,4.226-3.414s-1.9-3.413-4.226-3.413-4.225,1.534-4.225,3.413S68,190.619,70.328,190.619Z" transform="translate(-38.774 -34.874)"/>
        <g id="Group_1" data-name="Group 1" transform="translate(56.743 92.806)">
          <path id="Path_11" data-name="Path 11" class="cls-21" d="M125.8,173.1,124.5,128.443l-.009-10.428-.007-3.475h7.457q-.818,29.282-1.636,58.563Z" transform="translate(-124.489 -114.54)"/>
          <path id="Path_12" data-name="Path 12" class="cls-21" d="M124.488,114.54h.1l-.1,3.477v0Z" transform="translate(-124.488 -114.54)"/>
        </g>
        <path id="Path_13" data-name="Path 13" class="cls-22" d="M122.282,190.465c2.552,0,4.634-1.681,4.634-3.743s-2.082-3.743-4.634-3.743-4.633,1.681-4.633,3.743S119.73,190.465,122.282,190.465Z" transform="translate(-64.351 -34.72)"/>
        <path id="Path_14" data-name="Path 14" class="cls-22" d="M112.312,67.885c-2.781-.4-8.446-3.4-10.816-5.639l-.837,3.546c2.124,3.133,7.933,7.5,10.7,9.085Z" transform="translate(-55.92 -11.811)"/>
        <path id="Path_15" data-name="Path 15" class="cls-22" d="M129.739,62.852a46.122,46.122,0,0,1-10.422,4.959l.948,6.874a30.9,30.9,0,0,0,9.145-2.011C135.461,69.992,136.087,58.718,129.739,62.852Z" transform="translate(-65.179 -11.755)"/>
        <path id="Path_16" data-name="Path 16" class="cls-18" d="M98.485,60.234c-.671-.837-1.12-.566-1.3.357-.888-1.435-2.219-1.356-2.625-.518-.787,1.633-.308,4.352,1.071,6.074s3.136,1.795,3.924.161S99.865,61.957,98.485,60.234Z" transform="translate(-52.707 -11.285)"/>
        <path id="Path_17" data-name="Path 17" class="cls-18" d="M102.65,96.624a1.308,1.308,0,0,1,.3,1.872,3.361,3.361,0,0,1,1.25,3.316c-.549,1.665-2.134,2.043-3.541.843a5.244,5.244,0,0,1-1.554-5.187C99.658,95.8,101.243,95.425,102.65,96.624Z" transform="translate(-55.058 -18.201)"/>
        <path id="Path_18" data-name="Path 18" class="cls-20" d="M139.771,54l5.334,1.228-.4,4.535-5.825,2.325Z" transform="translate(-74.884 -10.245)"/>
        <path id="Path_19" data-name="Path 19" class="cls-22" d="M121.984,112.566l12.364,2.844-.2,4.059-12.517-2.88Z" transform="translate(-66.329 -21.359)"/>
        <path id="Path_20" data-name="Path 20" class="cls-21" d="M134.329,107.7l2.2-50.039-4.155.506L124.3,81.449l-2.437,23.289Z" transform="translate(-66.44 -10.941)"/>
        <path id="Path_21" data-name="Path 21" class="cls-20" d="M134.4,55.073c-2.005,15.364-2.447,22.889-7.244,27.348l.579-6.646,5.245-15.947L133.958,54Z" transform="translate(-69.07 -10.245)"/>
        <path id="Path_22" data-name="Path 22" class="cls-21" d="M133.45,52.437,132.6,62.459l-.421,1.5L128.025,78l-2.869,7.364,1.477-10.826L131.99,59.1l.756-5.071c.115-.771.062-3.857.062-3.857Z" transform="translate(-68.076 -9.521)"/>
        <path id="Path_23" data-name="Path 23" class="cls-22" d="M122.415,63.983c-3.608,9.248-10.178,21.282-17.289,28.618l1.292,3.092c7.193-5.413,16.019-16.848,19.307-23.44C129.653,64.381,126.055,54.653,122.415,63.983Z" transform="translate(-58.137 -11.416)"/>
        <path id="Path_24" data-name="Path 24" class="cls-18" d="M103.179,96.473a1.477,1.477,0,0,0-.173,2.1,4.05,4.05,0,0,0-1.083,3.879c.737,1.693,2.494,1.761,3.924.151a6.215,6.215,0,0,0,1.257-5.982C106.367,94.931,104.609,94.863,103.179,96.473Z" transform="translate(-56.475 -18.085)"/>
        <g id="Group_2" data-name="Group 2" transform="translate(58.746 91.525)">
          <path id="Path_25" data-name="Path 25" class="cls-21" d="M141.605,171.536l-10.3-41.525-2.129-9.849-.712-3.282,7.047-3.921q5.18,28.1,10.36,56.2Z" transform="translate(-128.463 -112.959)"/>
          <path id="Path_26" data-name="Path 26" class="cls-21" d="M128.463,117.785l.1-.055.615,3.338v0Z" transform="translate(-128.463 -113.864)"/>
        </g>
        <path id="Path_36" data-name="Path 36" class="cls-23" d="M2.825.02C4.809.261,6.806,2.666,7.287,5.392s-.737,4.739-2.72,4.5S.586,7.243.1,4.517.842-.222,2.825.02Z" transform="translate(68.425 155.879) rotate(-109.087)"/>
        <path id="Path_37" data-name="Path 37" class="cls-24" d="M4.2.02C6-.213,7.085,1.63,6.621,4.135s-2.3,4.725-4.1,4.958S-.356,7.484.107,4.978,2.4.252,4.2.02Z" transform="translate(12.281 150.425) rotate(-69.63)"/>
        <g id="Group_3" data-name="Group 3" transform="translate(52.256)">
          <path id="Path_38" data-name="Path 38" class="cls-25" d="M4.832.1C7.256-.26,9.033.364,8.8,1.5S6.414,3.842,3.989,4.206-.212,3.946.02,2.813,2.407.467,4.832.1Z" transform="translate(26.796 34.032) rotate(-65.996)"/>
          <path id="Path_73" data-name="Path 73" class="cls-25" d="M4.643,0c2.586.035,4.7.9,4.723,1.929s-2.057,1.838-4.643,1.8S.022,2.835,0,1.8,2.057-.034,4.643,0Z" transform="translate(2.387 25.375) rotate(-92.08)"/>
          <path id="Path_39" data-name="Path 39" class="cls-25" d="M18.236.052c9.179-.657,15.928,5.029,15.076,12.7S24.327,27.177,15.148,27.834-.78,22.8.073,15.133,9.057.709,18.236.052Z" transform="matrix(0.19, -0.982, 0.982, 0.19, 0, 41.394)"/>
          <path id="Path_40" data-name="Path 40" class="cls-26" d="M2.185.015C3.343-.068,4.243.21,4.2.636s-1.025.839-2.183.922S-.046,1.363,0,.937,1.026.1,2.185.015Z" transform="matrix(0.19, -0.982, 0.982, 0.19, 11.828, 26.708)"/>
          <path id="Path_41" data-name="Path 41" class="cls-26" d="M2.185.015C3.343-.068,4.243.21,4.2.636s-1.025.839-2.183.922S-.046,1.363,0,.937,1.026.1,2.185.015Z" transform="matrix(0.19, -0.982, 0.982, 0.19, 19.938, 29.235)"/>
          <path id="Path_27" data-name="Path 27" class="cls-27" d="M147.844,16.693c-6.562-2.5-19.236,11.054-25.471,4.53,2.851-12.69,12.1-17.43,18.985-13.309C143.9,9.434,146.136,11.519,147.844,16.693Z" transform="translate(-118.951 -1.227)"/>
          <path id="Path_28" data-name="Path 28" class="cls-27" d="M163.361,11.641c-2.417,8.611,1.87,20.326,6.142,21.447C171.088,25.855,168.107,14.531,163.361,11.641Z" transform="translate(-138.942 -2.209)"/>
          <path id="Path_29" data-name="Path 29" class="cls-16" d="M147.647,42.768c-1.991,0-6.683-1.517-8.808-2.744C140.574,45.1,145.3,46.726,147.647,42.768Z" transform="translate(-127.121 -7.594)"/>
          <path id="Path_30" data-name="Path 30" class="cls-27" d="M147.87,16.913c-8.907-6.32-23.756,8.873-25.353-9.512,4.287,4.24,5.131,1.63,9.961-.757C137.351,4.237,144.071,5.408,147.87,16.913Z" transform="translate(-119.022 -1.064)"/>
          <path id="Path_31" data-name="Path 31" class="cls-27" d="M151.627,19.934c-7.555-9.876-24.37-1.522-22.894-19.934,3.439,5.909,4.681,3.75,9.733,3.5C143.561,3.243,149.851,7.225,151.627,19.934Z" transform="translate(-122.062)"/>
        </g>
        <g id="Group_6" data-name="Group 6" transform="translate(4.356 12.811)">
          <path id="Path_42" data-name="Path 42" class="cls-28" d="M10.963.09C17.655.754,23.624,4.943,24.3,9.445s-4.209,7.613-10.9,6.948S.733,11.54.062,7.038,4.271-.575,10.963.09Z" transform="matrix(-0.265, -0.964, 0.964, -0.265, 8.551, 27.856)"/>
          <path id="Path_43" data-name="Path 43" class="cls-24" d="M8.176.048A12.7,12.7,0,0,1,19,10.2c.759,5.089-2.856,8.794-8.075,8.276A12.7,12.7,0,0,1,.1,8.324C-.658,3.235,2.957-.47,8.176.048Z" transform="matrix(-0.265, -0.964, 0.964, -0.265, 7.321, 28.235)"/>
          <path id="Path_44" data-name="Path 44" class="cls-28" d="M7.189.036c4.739.471,9.265,5.441,10.11,11.1s-2.313,9.867-7.052,9.4S.981,15.092.137,9.432,2.45-.435,7.189.036Z" transform="matrix(-0.265, -0.964, 0.964, -0.265, 6.263, 28.563)"/>
          <path id="Path_45" data-name="Path 45" class="cls-25" d="M13.792.1c8.518.846,16.2,6.722,17.152,13.123s-5.176,10.9-13.694,10.058S1.053,16.562.1,10.16,5.274-.744,13.792.1Z" transform="matrix(-0.265, -0.964, 0.964, -0.265, 8.232, 44.792)"/>
          <g id="Group_4" data-name="Group 4" transform="translate(10.314 22.549)">
            <path id="Path_46" data-name="Path 46" class="cls-26" d="M1.838.025c1.075.107,2,.525,2.056.934s-.761.654-1.835.547S.064.981,0,.572.764-.082,1.838.025Z" transform="matrix(-0.265, -0.964, 0.964, -0.265, 8.529, 4.164)"/>
            <path id="Path_47" data-name="Path 47" class="cls-26" d="M1.838.025c1.075.107,2,.525,2.056.934s-.761.654-1.835.547S.064.982,0,.572.764-.082,1.838.025Z" transform="translate(1.033 7.478) rotate(-105.373)"/>
          </g>
          <path id="Path_32" data-name="Path 32" class="cls-16" d="M53.074,53.555a27.134,27.134,0,0,1-8.621,3.814C47.4,60.664,52.066,58.759,53.074,53.555Z" transform="translate(-32.388 -22.972)"/>
          <path id="Path_48" data-name="Path 48" class="cls-25" d="M3.821.126C6.178.534,8.3,1.811,8.562,2.979S7.124,4.761,4.767,4.353.288,2.668.027,1.5,1.464-.282,3.821.126Z" transform="translate(4.573 36.386) rotate(-118.426)"/>
          <path id="Path_74" data-name="Path 74" class="cls-25" d="M4.622,0C7.2.04,9.308.905,9.333,1.933S7.288,3.762,4.711,3.723.025,2.819,0,1.791,2.045-.038,4.622,0Z" transform="matrix(-0.041, -0.999, 0.999, -0.041, 24.557, 26.891)"/>
          <g id="Group_5" data-name="Group 5" transform="translate(2.306 8.59)">
            <path id="Path_33" data-name="Path 33" class="cls-27" d="M50.418,27.573C56.451,30.234,60.537,42.018,63.41,39.1,61.374,29.158,54.514,24.2,50.418,27.573Z" transform="translate(-37.653 -26.432)"/>
            <path id="Path_34" data-name="Path 34" class="cls-27" d="M43.744,27.3c-8.658,3.027-10.751,24-18.42,22.416C23.427,34.4,32.939,23.093,43.744,27.3Z" transform="translate(-25.082 -26.412)"/>
          </g>
        </g>
      </g>
    </g>
    <g id="sun" transform="translate(108.785 145.938)">
      <path id="Path_97" data-name="Path 97" class="cls-29" d="M142.059,180.684a38.572,38.572,0,1,1,0,77.014H30.095a30.107,30.107,0,0,1,0-60.214h2.143a46.847,46.847,0,1,1,92.807-12.857,38.338,38.338,0,0,1,17.014-3.943Z" transform="translate(0 -86.247)"/>
      <path id="Path_98" data-name="Path 98" class="cls-30" d="M179.836,55.327a3.9,3.9,0,0,1-7.448,2.316q-.056-.181-.095-.366l-4.286-16.2a3.9,3.9,0,0,1,7.448-2.316q.056.181.095.366Zm-28.821,14.1a3.909,3.909,0,0,1-5.55,5.507L133.679,63.02a3.9,3.9,0,1,1,5.549-5.421Zm99.365,66.814a3.91,3.91,0,0,1,2.143-7.521l16.157,4.414a3.91,3.91,0,1,1-2.143,7.521h0Zm2.143-32.014a3.9,3.9,0,0,1-1.95-7.543l16.2-4.286a3.9,3.9,0,0,1,1.95,7.543Zm-14.057-28.8a3.917,3.917,0,0,1-5.529-5.55L244.85,58.091a3.909,3.909,0,1,1,5.507,5.55ZM211.829,57.6a3.91,3.91,0,1,1-7.521-2.143h0L208.722,39.3a3.91,3.91,0,1,1,7.521,2.143Zm-4.286,19.286a40.842,40.842,0,0,1,18.536,61.072A38.571,38.571,0,0,0,186.35,134.7a46.908,46.908,0,0,0-30.879-37.436,40.715,40.715,0,0,1,52.007-20.507Z" transform="translate(-61.412 -36.018)"/>
    </g>
  </g>
</svg>
