<svg xmlns="http://www.w3.org/2000/svg" viewBox="0 0 299.58 246.67">
  <defs>
    <style>
      .cls-1 {
        fill: #5a4146;
      }

      .cls-2 {
        fill: #694b4b;
      }

      .cls-3 {
        fill: #e6af78;
      }

      .cls-4 {
        fill: #d29b6e;
      }

      .cls-5 {
        fill: #ff507d;
      }

      .cls-6 {
        fill: #f0c087;
      }

      .cls-7 {
        fill: #d23c69;
      }

      .cls-8 {
        fill: #00aaf0;
      }

      .cls-9 {
        fill: #707487;
      }

      .cls-10 {
        fill: #0096dc;
      }

      .cls-11 {
        fill: #5b5d6e;
      }

      .cls-12 {
        fill: #fc9d9a;
      }

      .cls-13 {
        fill: #29abe2;
      }

      .cls-14 {
        fill: #d8445e;
      }

      .cls-15 {
        fill: #fe4365;
      }

      .cls-16 {
        fill: #f9cdad;
      }

      .cls-17 {
        fill: #0071bc;
      }

      .cls-18 {
        fill: #da4836;
      }

      .cls-19 {
        fill: #e6e6e6;
      }

      .cls-20 {
        fill: #509cff;
      }
    </style>
  </defs>
  <g id="Group_37" data-name="Group 37" transform="translate(-51.489 -327)">
    <g id="conversation" transform="translate(62.454 275.333)">
      <path id="Path_60" data-name="Path 60" class="cls-1" d="M100.751,315.993c-4.734-12.542-8.488-34.1-9.3-45.33-1.543-21.362-17.642-38.777-39.4-38.777s-37.861,17.414-39.4,38.777c-.811,11.225-4.566,32.787-9.3,45.33a5.518,5.518,0,0,0,2.884,7.048A105.807,105.807,0,0,0,35.162,331.6H68.936a106.747,106.747,0,0,0,28.931-8.557A5.517,5.517,0,0,0,100.751,315.993Z" transform="translate(-1.13 -104.319)"/>
      <path id="Path_61" data-name="Path 61" class="cls-2" d="M124.492,323.041a5.517,5.517,0,0,0,2.883-7.048c-4.733-12.542-8.488-34.1-9.3-45.33-1.543-21.362-17.642-38.777-39.4-38.777h-.164c-16.7.068-22.6,22.84-8.224,31.338a15.324,15.324,0,0,0,1.417.756L84.291,331.6H95.56A106.719,106.719,0,0,0,124.492,323.041Z" transform="translate(-27.753 -104.318)"/>
      <path id="Path_62" data-name="Path 62" class="cls-3" d="M90.988,404.328l-17.927-8.963a11.081,11.081,0,0,1-6.125-9.911V368.836H33.7v16.619a11.078,11.078,0,0,1-6.125,9.909L9.65,404.328A16.62,16.62,0,0,0,.464,419.192v22.863A5.539,5.539,0,0,0,6,447.594H94.636a5.54,5.54,0,0,0,5.539-5.539V419.192A16.617,16.617,0,0,0,90.988,404.328Z" transform="translate(0 -165.928)"/>
      <path id="Path_63" data-name="Path 63" class="cls-4" d="M77.254,390.994a43.78,43.78,0,0,0,16.915-3.419,10.915,10.915,0,0,1-.3-2.121V368.836H60.635v16.619a10.89,10.89,0,0,1-.3,2.131A44.006,44.006,0,0,0,77.254,390.994Z" transform="translate(-26.935 -165.928)"/>
      <path id="Path_64" data-name="Path 64" class="cls-5" d="M90.989,428.13l-12.771-6.385a33.191,33.191,0,0,1-55.8,0L9.651,428.13A16.618,16.618,0,0,0,.465,442.994v22.863A5.539,5.539,0,0,0,6,471.4H94.637a5.539,5.539,0,0,0,5.539-5.539V442.995A16.62,16.62,0,0,0,90.989,428.13Z" transform="translate(-0.001 -189.729)"/>
      <path id="Path_65" data-name="Path 65" class="cls-6" d="M64.095,344.419h0a33.244,33.244,0,0,1-32.961-28.935,5.587,5.587,0,0,1,2.96-5.758,46.249,46.249,0,0,0,9.8-6.622,31.99,31.99,0,0,0,7.579-9.973,5.483,5.483,0,0,1,6.246-3.036,95.446,95.446,0,0,1,37.6,19.264,5.358,5.358,0,0,1,1.906,4.453A33.241,33.241,0,0,1,64.095,344.419Z" transform="translate(-13.776 -130.431)"/>
      <path id="Path_66" data-name="Path 66" class="cls-3" d="M95.323,309.358a95.437,95.437,0,0,0-37.6-19.265,5.483,5.483,0,0,0-6.246,3.036,31.714,31.714,0,0,1-5.062,7.389c0,.007,0,.012,0,.019A29.665,29.665,0,0,1,43.9,303.1a46.24,46.24,0,0,1-9.8,6.622,5.589,5.589,0,0,0-2.96,5.759,33.2,33.2,0,0,0,27.922,28.468c-6.632-4.512-11.579-10.629-11.579-21.691v-7.9c1.258-.929,2.525-1.856,3.8-2.992a44.109,44.109,0,0,0,7.922-9.347,83.666,83.666,0,0,1,28.871,15.708c1.05.921,3.655,3.322,6.7,6.182a32.994,32.994,0,0,0,2.457-10.1A5.358,5.358,0,0,0,95.323,309.358Z" transform="translate(-13.775 -130.431)"/>
      <g id="Group_34" data-name="Group 34" transform="translate(0.463 243.279)">
        <path id="Path_67" data-name="Path 67" class="cls-7" d="M3.84,442.219A16.581,16.581,0,0,0,.463,452.2v22.863A5.539,5.539,0,0,0,6,480.608H22.621V462.569a11.08,11.08,0,0,0-4.158-8.651Z" transform="translate(-0.463 -442.219)"/>
        <path id="Path_68" data-name="Path 68" class="cls-7" d="M160.217,442.219a16.581,16.581,0,0,1,3.377,9.986v22.863a5.539,5.539,0,0,1-5.539,5.539H141.437V462.569a11.08,11.08,0,0,1,4.158-8.651Z" transform="translate(-63.883 -442.219)"/>
      </g>
      <path id="Path_69" data-name="Path 69" class="cls-1" d="M343.47,266.328v3.817A43.5,43.5,0,0,0,345.7,283.9l8.645,25.934h16.316V250.012H359.786A16.317,16.317,0,0,0,343.47,266.328Z" transform="translate(-154.308 -112.472)"/>
      <path id="Path_70" data-name="Path 70" class="cls-2" d="M426.834,273.179l-9.2,32.212L374.12,267.32a10.878,10.878,0,0,1-10.878-10.878h0a16.316,16.316,0,0,1,16.316-16.316H417.63A10.878,10.878,0,0,1,428.507,251v10.223A43.485,43.485,0,0,1,426.834,273.179Z" transform="translate(-163.203 -108.025)"/>
      <rect id="Rectangle_17" data-name="Rectangle 17" class="cls-3" width="32.634" height="24.072" transform="translate(210.915 213.682)"/>
      <path id="Path_71" data-name="Path 71" class="cls-4" d="M383.016,398.411a43.155,43.155,0,0,0,32.633,0v-9.99H383.016Z" transform="translate(-172.098 -174.738)"/>
      <path id="Path_72" data-name="Path 72" class="cls-8" d="M410.753,419.9l-26.239-7.5L368.2,423.232,351.883,412.4l-26.238,7.5a16.316,16.316,0,0,0-11.834,15.689v26.167a5.439,5.439,0,0,0,5.439,5.439h97.9a5.439,5.439,0,0,0,5.439-5.439V435.591A16.315,16.315,0,0,0,410.753,419.9Z" transform="translate(-140.965 -185.528)"/>
      <path id="Path_73" data-name="Path 73" class="cls-9" d="M413.666,476.09H402.788l2.72-43.913h5.439Z" transform="translate(-180.993 -194.423)"/>
      <path id="Path_74" data-name="Path 74" class="cls-6" d="M385.99,349.439h0a32.633,32.633,0,0,1-32.633-32.633v-6.372a10.877,10.877,0,0,1,3.186-7.691l9.862-9.862a10.751,10.751,0,0,1,7.9-3.2c17.386.548,32.775,4.273,41.187,12.489a10.738,10.738,0,0,1,3.134,7.7v6.93A32.632,32.632,0,0,1,385.99,349.439Z" transform="translate(-158.756 -130.317)"/>
      <path id="Path_75" data-name="Path 75" class="cls-3" d="M369.673,311.783a10.856,10.856,0,0,1,11.53-10.862c10.98.7,27.272,2.536,37.268,7.344a10.515,10.515,0,0,0-2.983-6.093c-8.412-8.216-23.8-11.941-41.187-12.489h0a10.752,10.752,0,0,0-7.9,3.2l-9.862,9.862a10.876,10.876,0,0,0-3.186,7.692v6.372a32.626,32.626,0,0,0,23.591,31.336,32.365,32.365,0,0,1-7.274-20.458v-15.9Z" transform="translate(-158.755 -130.317)"/>
      <g id="Group_35" data-name="Group 35" transform="translate(172.846 240.73)">
        <path id="Path_76" data-name="Path 76" class="cls-10" d="M335.566,463.124a16.317,16.317,0,0,0-4.779-11.537l-14-14a16.253,16.253,0,0,0-2.976,9.332v26.167a5.438,5.438,0,0,0,5.439,5.439h16.316v-15.4h0Z" transform="translate(-313.811 -437.586)"/>
        <path id="Path_77" data-name="Path 77" class="cls-10" d="M471.993,463.124a16.316,16.316,0,0,1,4.779-11.537l14-14a16.253,16.253,0,0,1,2.976,9.332v26.167a5.438,5.438,0,0,1-5.439,5.439H471.994v-15.4h0Z" transform="translate(-384.972 -437.586)"/>
      </g>
      <path id="Path_78" data-name="Path 78" class="cls-11" d="M411.4,443.054h-6.345a2.266,2.266,0,0,1-2.266-2.266v-8.611h10.878v8.611A2.267,2.267,0,0,1,411.4,443.054Z" transform="translate(-180.994 -194.423)"/>
      <g id="Group_36" data-name="Group 36" transform="translate(204.903 222.557)">
        <path id="Path_79" data-name="Path 79" class="cls-10" d="M394.414,419.7l-9.219,7.042a3.263,3.263,0,0,1-4.843-1.026l-8.269-15.1,3.328-5.077a2.175,2.175,0,0,1,3.3-.4Z" transform="translate(-372.083 -404.552)"/>
        <path id="Path_80" data-name="Path 80" class="cls-10" d="M412.675,419.7l9.219,7.042a3.263,3.263,0,0,0,4.843-1.026l8.269-15.1-3.328-5.077a2.175,2.175,0,0,0-3.3-.4Z" transform="translate(-390.344 -404.552)"/>
      </g>
    </g>
    <g id="message" transform="translate(111.5 327)">
      <path id="Path_52" data-name="Path 52" class="cls-12" d="M91.783,42.667h55.9a6.45,6.45,0,0,1,6.45,6.45v94.6a6.45,6.45,0,0,1-6.45,6.45h-55.9a6.45,6.45,0,0,1-6.45-6.45v-94.6A6.45,6.45,0,0,1,91.783,42.667Z" transform="translate(-31.916 -31.917)"/>
      <rect id="Rectangle_5" data-name="Rectangle 5" class="cls-13" width="68.8" height="73.1" transform="translate(53.417 27.95)"/>
      <g id="Group_30" data-name="Group 30" transform="translate(81.367 17.2)">
        <rect id="Rectangle_6" data-name="Rectangle 6" class="cls-14" width="4.3" height="4.3" transform="translate(4.3 90.3)"/>
        <rect id="Rectangle_7" data-name="Rectangle 7" class="cls-14" width="4.3" height="4.3"/>
        <rect id="Rectangle_8" data-name="Rectangle 8" class="cls-14" width="4.3" height="4.3" transform="translate(8.6)"/>
      </g>
      <g id="Group_31" data-name="Group 31" transform="translate(42.667)">
        <path id="Path_53" data-name="Path 53" class="cls-12" d="M46.967,43h-4.3V15.05A15.066,15.066,0,0,1,57.717,0h10.75V4.3H57.717a10.762,10.762,0,0,0-10.75,10.75Z" transform="translate(-42.667)"/>
        <rect id="Rectangle_9" data-name="Rectangle 9" class="cls-12" width="4.3" height="4.3" transform="translate(0 47.3)"/>
        <path id="Path_54" data-name="Path 54" class="cls-12" d="M328.566,352.416h-4.3v-4.3h4.3a10.762,10.762,0,0,0,10.75-10.75v-38.7h4.3v38.7A15.067,15.067,0,0,1,328.566,352.416Z" transform="translate(-253.316 -223.416)"/>
        <rect id="Rectangle_10" data-name="Rectangle 10" class="cls-12" width="4.3" height="4.3" transform="translate(86 66.65)"/>
      </g>
      <path id="Path_55" data-name="Path 55" class="cls-15" d="M324.6,42.933H305.25l-12.9,8.6v-8.6H285.9a4.3,4.3,0,0,1-4.3-4.3v-25.8a4.3,4.3,0,0,1,4.3-4.3h38.7a4.3,4.3,0,0,1,4.3,4.3v25.8A4.3,4.3,0,0,1,324.6,42.933Z" transform="translate(-178.733 -6.383)"/>
      <g id="Group_32" data-name="Group 32" transform="translate(111.467 8.6)">
        <rect id="Rectangle_11" data-name="Rectangle 11" class="cls-16" width="4.3" height="4.3" transform="translate(4.3)"/>
        <rect id="Rectangle_12" data-name="Rectangle 12" class="cls-16" width="17.2" height="4.3" transform="translate(12.9)"/>
        <rect id="Rectangle_13" data-name="Rectangle 13" class="cls-16" width="30.1" height="4.3" transform="translate(0 8.6)"/>
        <rect id="Rectangle_14" data-name="Rectangle 14" class="cls-16" width="21.5" height="4.3" transform="translate(0 17.2)"/>
      </g>
      <g id="Group_33" data-name="Group 33" transform="translate(62.017 88.15)">
        <rect id="Rectangle_15" data-name="Rectangle 15" class="cls-17" width="4.3" height="4.3" transform="translate(0)"/>
        <rect id="Rectangle_16" data-name="Rectangle 16" class="cls-17" width="43" height="4.3" transform="translate(8.6)"/>
      </g>
      <path id="Path_56" data-name="Path 56" class="cls-18" d="M217.7,200.566l-2.52-2.52a6.083,6.083,0,0,0-4.3-1.78h0a6.08,6.08,0,0,0-6.08,6.08h0a6.083,6.083,0,0,0,1.78,4.3l11.12,11.12,11.12-11.12a6.083,6.083,0,0,0,1.78-4.3h0a6.08,6.08,0,0,0-6.08-6.08h0a6.083,6.083,0,0,0-4.3,1.78Z" transform="translate(-121.283 -146.816)"/>
      <path id="Path_57" data-name="Path 57" class="cls-19" d="M149.433,234.7l-2.52-2.52a6.083,6.083,0,0,0-4.3-1.78h0a6.08,6.08,0,0,0-6.08,6.08h0a6.083,6.083,0,0,0,1.78,4.3l11.12,11.12,11.12-11.12a6.083,6.083,0,0,0,1.78-4.3h0a6.08,6.08,0,0,0-6.08-6.08h0a6.083,6.083,0,0,0-4.3,1.78Z" transform="translate(-70.216 -172.35)"/>
    </g>
    <path id="Path_110" data-name="Path 110" class="cls-5" d="M305.293,57.67h-107.1a8.239,8.239,0,1,1,0-16.478h107.1a8.239,8.239,0,1,1,0,16.478Z" transform="translate(-138.463 516)"/>
    <path id="Path_111" data-name="Path 111" class="cls-5" d="M305.293,57.67h-107.1a8.239,8.239,0,1,1,0-16.478h107.1a8.239,8.239,0,1,1,0,16.478Z" transform="translate(-138.463 516)"/>
    <path id="Path_112" data-name="Path 112" class="cls-5" d="M305.293,57.67h-107.1a8.239,8.239,0,1,1,0-16.478h107.1a8.239,8.239,0,1,1,0,16.478Z" transform="translate(-138.463 516)"/>
    <path id="Path_113" data-name="Path 113" class="cls-20" d="M305.293,57.67h-107.1a8.239,8.239,0,1,1,0-16.478h107.1a8.239,8.239,0,1,1,0,16.478Z" transform="translate(37.537 516)"/>
  </g>
</svg>
