<svg xmlns="http://www.w3.org/2000/svg" viewBox="0 0 213.469 175">
  <defs>
    <style>
      .cls-1 {
        fill: #cad1e5;
      }

      .cls-2 {
        fill: #6e4439;
      }

      .cls-3 {
        fill: #c38762;
      }

      .cls-4 {
        fill: #00858a;
      }

      .cls-5 {
        fill: #5e342e;
      }

      .cls-6 {
        fill: #a46d4d;
      }

      .cls-7 {
        fill: #d29771;
      }

      .cls-8 {
        fill: #623f33;
      }

      .cls-9 {
        fill: #57b9dd;
      }

      .cls-10 {
        fill: #43a0c5;
      }

      .cls-11 {
        fill: #ffc33d;
      }

      .cls-12 {
        fill: #ff4f4f;
      }

      .cls-13 {
        fill: #ff8c51;
      }

      .cls-14 {
        fill: #ff7941;
      }

      .cls-15 {
        fill: #9a6c52;
      }
    </style>
  </defs>
  <g id="Group_25" data-name="Group 25" transform="translate(-48 -391)">
    <circle id="Ellipse_5" data-name="Ellipse 5" class="cls-1" cx="87.5" cy="87.5" r="87.5" transform="translate(69 391)"/>
    <g id="girl" transform="translate(-16.001 412.189)">
      <g id="Group_3" data-name="Group 3" transform="translate(64.001)">
        <path id="Path_26" data-name="Path 26" class="cls-2" d="M159.571,23.247C151.5,6.135,136.324,0,118.243,0S84.988,6.135,76.916,23.247,73.687,51.337,64,77.489c0,0,17.435,18.081,54.242,18.081s54.242-18.081,54.242-18.081C162.8,51.337,167.643,40.359,159.571,23.247Z" transform="translate(-64.001)"/>
      </g>
      <path id="Path_27" data-name="Path 27" class="cls-3" d="M179.292,211.461l-2.967-22.248h0l-.125-.938a12.553,12.553,0,0,0-1.984-5.294,2.584,2.584,0,0,0-1.176-2.843l-8.484-5.091a2.582,2.582,0,0,0-2.792.087l-5.243-2.31a2.56,2.56,0,0,0-2.97.666l-3.136-1.154a5.166,5.166,0,0,1-3.532-4.9V159.1l11.126-4.636a15.5,15.5,0,0,0,9.537-14.306v-2.583a7.749,7.749,0,1,0,0-15.5v-5.166A12.915,12.915,0,0,0,154.632,104H108.139a12.915,12.915,0,0,0-12.915,12.915v5.166a7.749,7.749,0,1,0,0,15.5v2.583a15.5,15.5,0,0,0,9.537,14.306l11.127,4.636v8.33a5.166,5.166,0,0,1-3.532,4.9l-3.136,1.154a2.56,2.56,0,0,0-2.97-.666l-5.243,2.31a2.582,2.582,0,0,0-2.792-.088l-8.484,5.091a2.583,2.583,0,0,0-1.176,2.843,12.56,12.56,0,0,0-1.984,5.294l-.125.938v0l-2.967,22.248a7.721,7.721,0,0,0,2.123,6.424l.006.006a7.71,7.71,0,0,0,5.551,2.343h80.451A7.75,7.75,0,0,0,179.292,211.461Z" transform="translate(-13.142 -70.421)"/>
      <path id="Path_28" data-name="Path 28" class="cls-4" d="M179.292,355.335,176.2,332.147a13.188,13.188,0,0,0-7.524-10.094L156.52,316.7a2.562,2.562,0,0,0-3.431,1.434,23.213,23.213,0,0,1-43.409,0,2.561,2.561,0,0,0-3.431-1.434l-12.155,5.357a13.188,13.188,0,0,0-7.524,10.094l-3.092,23.188a7.749,7.749,0,0,0,7.681,8.773H171.61A7.749,7.749,0,0,0,179.292,355.335Z" transform="translate(-13.141 -214.295)"/>
      <g id="Group_4" data-name="Group 4" transform="translate(64.001)">
        <path id="Path_29" data-name="Path 29" class="cls-5" d="M118.243,0C100.163,0,84.988,6.135,76.916,23.247S73.687,51.337,64,77.489c0,0,16.211,16.708,50.253,17.959l1.406-2.462-15.5-12.915s-1.291-6.457-2.583-33.579S114.154,0,118.243,0Z" transform="translate(-64.001)"/>
      </g>
      <path id="Path_30" data-name="Path 30" class="cls-6" d="M209.748,274h-31v8.547a5.164,5.164,0,0,1-2.5,4.424C197.857,290.7,209.748,274,209.748,274Z" transform="translate(-76.006 -185.53)"/>
      <path id="Path_31" data-name="Path 31" class="cls-7" d="M176.073,122.081v-5.166A12.915,12.915,0,0,0,163.158,104H116.665a12.915,12.915,0,0,0-12.915,12.915v5.166a7.749,7.749,0,0,0,0,15.5v2.583a15.5,15.5,0,0,0,9.537,14.306l16.69,6.954a25.827,25.827,0,0,0,9.935,1.987h0a25.832,25.832,0,0,0,9.934-1.987l16.691-6.954a15.5,15.5,0,0,0,9.537-14.305v-2.583a7.749,7.749,0,0,0,0-15.5Z" transform="translate(-21.668 -70.421)"/>
      <g id="Group_5" data-name="Group 5" transform="translate(97.58 54.242)">
        <path id="Path_32" data-name="Path 32" class="cls-8" d="M170.584,175.749h0A2.591,2.591,0,0,1,168,173.166v-2.583A2.591,2.591,0,0,1,170.584,168h0a2.591,2.591,0,0,1,2.583,2.583v2.583A2.591,2.591,0,0,1,170.584,175.749Z" transform="translate(-168.001 -168)"/>
      </g>
      <g id="Group_6" data-name="Group 6" transform="translate(133.741 54.242)">
        <path id="Path_33" data-name="Path 33" class="cls-8" d="M282.584,175.749h0A2.591,2.591,0,0,1,280,173.166v-2.583A2.591,2.591,0,0,1,282.584,168h0a2.591,2.591,0,0,1,2.583,2.583v2.583A2.591,2.591,0,0,1,282.584,175.749Z" transform="translate(-280.001 -168)"/>
      </g>
      <g id="Group_8" data-name="Group 8" transform="translate(105.328 72.323)">
        <g id="Group_7" data-name="Group 7">
          <path id="Path_34" data-name="Path 34" class="cls-6" d="M204.915,231.819c-4.592,0-8.888-1.13-11.785-3.1a2.583,2.583,0,0,1,2.906-4.27c2.031,1.381,5.35,2.206,8.879,2.206s6.848-.825,8.879-2.206a2.583,2.583,0,0,1,2.906,4.27C213.8,230.689,209.507,231.819,204.915,231.819Z" transform="translate(-192 -223.998)"/>
        </g>
      </g>
      <g id="Group_9" data-name="Group 9" transform="translate(74.333 33.586)">
        <path id="Path_35" data-name="Path 35" class="cls-3" d="M103.75,116.931V122.1a7.749,7.749,0,1,0,0,15.5v2.583a15.5,15.5,0,0,0,9.537,14.306l16.689,6.954a25.862,25.862,0,0,0,2.495.888,107.8,107.8,0,0,1-15.162-13.2,12.108,12.108,0,0,1-3.227-8.274V122.1c6.242,0,42.081-1.939,52.305-15.176,0,0-.014-2.879,0-2.9l-52.305.252A12.918,12.918,0,0,0,103.75,116.931Z" transform="translate(-96.001 -104.024)"/>
      </g>
      <g id="Group_10" data-name="Group 10" transform="translate(87.248 29.38)">
        <path id="Path_36" data-name="Path 36" class="cls-2" d="M136,91v17.113a295.684,295.684,0,0,0,36.161-2.046l7.749-5.7v4.52c8.514-1.533,16.178-3.788,20.662-7.1V91Z" transform="translate(-136.001 -90.996)"/>
      </g>
      <g id="Group_13" data-name="Group 13" transform="translate(75.334 104.255)">
        <g id="Group_11" data-name="Group 11">
          <path id="Path_37" data-name="Path 37" class="cls-9" d="M171.663,324.115l-9.294,14.871a7.749,7.749,0,0,1-6.571,3.642H128.225a7.749,7.749,0,0,1-6.571-3.642l-9.294-14.871a2.583,2.583,0,0,0-3.519-.846l-8.484,5.091a2.583,2.583,0,0,0-.861,3.584l11.521,18.433h61.991l11.521-18.433a2.583,2.583,0,0,0-.861-3.584l-8.484-5.091A2.583,2.583,0,0,0,171.663,324.115Z" transform="translate(-99.102 -322.901)"/>
        </g>
        <g id="Group_12" data-name="Group 12" transform="translate(11.914 27.476)">
          <rect id="Rectangle_4" data-name="Rectangle 4" class="cls-10" width="61.991" height="18.081"/>
        </g>
      </g>
      <g id="Group_14" data-name="Group 14" transform="translate(92.414 118.817)">
        <circle id="Ellipse_4" data-name="Ellipse 4" class="cls-11" cx="9.04" cy="9.04" r="9.04"/>
      </g>
      <g id="Group_16" data-name="Group 16" transform="translate(96.178 123.795)">
        <g id="Group_15" data-name="Group 15">
          <path id="Path_38" data-name="Path 38" class="cls-12" d="M171.119,383.418a3.083,3.083,0,0,0-2.183.9,3.093,3.093,0,0,0-5.276,2.19c0,2.365,2.775,5.208,5.276,6.368,2.5-1.16,5.276-4,5.276-6.368A3.093,3.093,0,0,0,171.119,383.418Z" transform="translate(-163.659 -383.418)"/>
        </g>
      </g>
      <path id="Path_39" data-name="Path 39" class="cls-5" d="M148.027,91H136v17.113s4.114.053,10.327-.132A59.3,59.3,0,0,1,148.027,91Z" transform="translate(-48.753 -61.616)"/>
    </g>
    <g id="boy" transform="translate(69.961 394.464)">
      <path id="Path_40" data-name="Path 40" class="cls-3" d="M191.389,172.661a11.556,11.556,0,0,0-7.414-7.64L172.6,161.229a2.854,2.854,0,0,0-3.59,1.692l-8.841-2.947a5.777,5.777,0,0,1-3.95-5.481v-9.316l12.443-5.185a17.33,17.33,0,0,0,10.666-16v-2.889a8.666,8.666,0,1,0,0-17.331V86.443A14.443,14.443,0,0,0,164.886,72H112.892A14.443,14.443,0,0,0,98.449,86.443v17.331a8.666,8.666,0,1,0,0,17.331v2.889a17.332,17.332,0,0,0,10.665,16l12.443,5.185v9.316a5.777,5.777,0,0,1-3.95,5.481l-8.841,2.947a2.854,2.854,0,0,0-3.59-1.692L93.8,165.021a11.556,11.556,0,0,0-7.414,7.64,2.906,2.906,0,0,0,.506,2.62v32.483a5.777,5.777,0,0,0,5.777,5.777h92.435a5.777,5.777,0,0,0,5.777-5.777V175.281A2.907,2.907,0,0,0,191.389,172.661Z" transform="translate(-0.002 -46.003)"/>
      <path id="Path_41" data-name="Path 41" class="cls-6" d="M213.71,274.667H179.047v9.316a5.775,5.775,0,0,1-2.8,4.947C200.413,293.106,213.71,274.667,213.71,274.667Z" transform="translate(-57.492 -175.492)"/>
      <g id="Group_17" data-name="Group 17" transform="translate(86.267 115.077)">
        <path id="Path_42" data-name="Path 42" class="cls-13" d="M191.387,330.289a11.556,11.556,0,0,0-7.414-7.64L172.6,318.858a2.854,2.854,0,0,0-3.618,1.763,31.736,31.736,0,0,1-60.19,0,2.854,2.854,0,0,0-3.618-1.763L93.8,322.649a11.556,11.556,0,0,0-7.414,7.64,2.916,2.916,0,0,0,.862,3.007L103.234,347.5a11.556,11.556,0,0,1,3.879,8.637v15.031h63.549V356.139a11.554,11.554,0,0,1,3.879-8.637L190.525,333.3A2.916,2.916,0,0,0,191.387,330.289Z" transform="translate(-86.267 -318.708)"/>
      </g>
      <g id="Group_18" data-name="Group 18" transform="translate(102.526 115.077)">
        <path id="Path_43" data-name="Path 43" class="cls-14" d="M201.372,318.857a2.854,2.854,0,0,0-3.618,1.763,31.736,31.736,0,0,1-60.19,0,2.854,2.854,0,0,0-3.618-1.763l-2.648.883a37.5,37.5,0,0,0,72.722,0Z" transform="translate(-131.298 -318.708)"/>
      </g>
      <path id="Path_44" data-name="Path 44" class="cls-7" d="M185.547,103.774V86.443A14.443,14.443,0,0,0,171.1,72H119.11a14.443,14.443,0,0,0-14.443,14.443v17.331a8.666,8.666,0,1,0,0,17.331v2.889a17.332,17.332,0,0,0,10.665,16L134,147.77a28.883,28.883,0,0,0,11.11,2.222h0a28.882,28.882,0,0,0,11.11-2.222l18.665-7.777a17.331,17.331,0,0,0,10.665-16v-2.889a8.666,8.666,0,1,0,0-17.331Z" transform="translate(-6.22 -46.003)"/>
      <path id="Path_45" data-name="Path 45" class="cls-3" d="M119.83,134.519a13.542,13.542,0,0,1-3.609-9.252V72.806a14.446,14.446,0,0,0-11.554,14.152v17.331a8.666,8.666,0,1,0,0,17.331v2.889a17.332,17.332,0,0,0,10.665,16L134,148.285a28.889,28.889,0,0,0,2.79.993h0A120.546,120.546,0,0,1,119.83,134.519Z" transform="translate(-6.22 -46.518)"/>
      <g id="Group_19" data-name="Group 19" transform="translate(115.779 60.66)">
        <path id="Path_46" data-name="Path 46" class="cls-8" d="M170.89,176.666h0A2.9,2.9,0,0,1,168,173.777v-2.889A2.9,2.9,0,0,1,170.89,168h0a2.9,2.9,0,0,1,2.889,2.889v2.889A2.9,2.9,0,0,1,170.89,176.666Z" transform="translate(-168.001 -168)"/>
      </g>
      <g id="Group_20" data-name="Group 20" transform="translate(156.219 60.66)">
        <path id="Path_47" data-name="Path 47" class="cls-8" d="M282.89,176.666h0A2.9,2.9,0,0,1,280,173.777v-2.889A2.9,2.9,0,0,1,282.89,168h0a2.9,2.9,0,0,1,2.889,2.889v2.889A2.9,2.9,0,0,1,282.89,176.666Z" transform="translate(-280.001 -168)"/>
      </g>
      <g id="Group_22" data-name="Group 22" transform="translate(124.444 80.88)">
        <g id="Group_21" data-name="Group 21">
          <path id="Path_48" data-name="Path 48" class="cls-6" d="M206.443,232.744c-5.136,0-9.939-1.264-13.179-3.468a2.888,2.888,0,1,1,3.25-4.776c2.271,1.544,5.983,2.467,9.93,2.467s7.659-.923,9.929-2.467a2.888,2.888,0,1,1,3.25,4.776C216.383,231.48,211.579,232.744,206.443,232.744Z" transform="translate(-192 -223.998)"/>
        </g>
      </g>
      <path id="Path_49" data-name="Path 49" class="cls-15" d="M186.438,72H134.444A14.443,14.443,0,0,0,120,86.443v17.331h2.889A5.777,5.777,0,0,0,128.667,98V92.22a5.777,5.777,0,0,1,5.777-5.777h51.994a5.777,5.777,0,0,1,5.777,5.777V98a5.777,5.777,0,0,0,5.777,5.777h2.889V86.443A14.443,14.443,0,0,0,186.438,72Z" transform="translate(-21.554 -46.003)"/>
      <g id="Group_23" data-name="Group 23" transform="translate(107.113)">
        <path id="Path_50" data-name="Path 50" class="cls-2" d="M196,40.44H152.667A8.666,8.666,0,0,1,144,31.774V28.311a20.219,20.219,0,0,1,19.338-20.2C182.312,7.27,209.367,5.175,216.216,0,216.216,0,230.177,40.44,196,40.44Z" transform="translate(-144.001)"/>
      </g>
      <g id="Group_24" data-name="Group 24" transform="translate(107.113)">
        <path id="Path_51" data-name="Path 51" class="cls-5" d="M171.751,28.049C197.875,23.854,216.216,5.12,216.216,0c-6.848,5.175-33.9,7.27-52.877,8.111A20.219,20.219,0,0,0,144,28.311v3.463a8.666,8.666,0,0,0,8.666,8.666h8.666A12.5,12.5,0,0,1,171.751,28.049Z" transform="translate(-144.001)"/>
      </g>
    </g>
  </g>
</svg>
