<svg width="122" height="195" viewBox="0 0 122 195" fill="none" xmlns="http://www.w3.org/2000/svg">
<rect x="1.5" y="1.5" width="49" height="49" rx="2.5" transform="translate(2)" fill="#2980B9" stroke="white" stroke-width="3"/>
<path d="M5.784 1.048C6.696 1.048 7.504 1.168 8.208 1.408C8.912 1.632 9.512 1.944 10.008 2.344C10.504 2.744 10.88 3.216 11.136 3.76C11.392 4.304 11.52 4.888 11.52 5.512C11.52 7.192 10.568 8.792 8.664 10.312L5.52 12.832H11.28C11.376 13.008 11.464 13.232 11.544 13.504C11.64 13.776 11.688 14.072 11.688 14.392C11.688 14.968 11.56 15.384 11.304 15.64C11.048 15.88 10.712 16 10.296 16H1.968C1.616 15.76 1.336 15.456 1.128 15.088C0.936 14.704 0.84 14.256 0.84 13.744C0.84 13.2 0.952 12.744 1.176 12.376C1.4 11.992 1.648 11.688 1.92 11.464L5.232 8.632C5.648 8.28 5.992 7.968 6.264 7.696C6.536 7.408 6.752 7.152 6.912 6.928C7.088 6.704 7.208 6.496 7.272 6.304C7.352 6.112 7.392 5.928 7.392 5.752C7.392 5.304 7.192 4.952 6.792 4.696C6.408 4.44 5.928 4.312 5.352 4.312C4.712 4.312 4.136 4.416 3.624 4.624C3.128 4.816 2.712 5.024 2.376 5.248C2.104 5.056 1.88 4.816 1.704 4.528C1.528 4.24 1.44 3.904 1.44 3.52C1.44 2.688 1.832 2.072 2.616 1.672C3.4 1.256 4.456 1.048 5.784 1.048Z" transform="translate(22 17)" fill="white"/>
<rect x="1.5" y="1.5" width="49" height="49" rx="2.5" transform="translate(67)" fill="#F1C40F" stroke="white" stroke-width="3"/>
<path d="M6.24316 21.228C6.24316 20.244 6.54316 19.44 7.14316 18.816C7.76716 18.168 8.61916 17.844 9.69916 17.844C10.7792 17.844 11.6192 18.168 12.2192 18.816C12.8432 19.44 13.1552 20.244 13.1552 21.228C13.1552 22.212 12.8432 23.028 12.2192 23.676C11.6192 24.3 10.7792 24.612 9.69916 24.612C8.61916 24.612 7.76716 24.3 7.14316 23.676C6.54316 23.028 6.24316 22.212 6.24316 21.228ZM7.43116 16.512C7.02316 16.296 6.63916 15.912 6.27916 15.36C5.91916 14.784 5.73916 14.112 5.73916 13.344C5.73916 12.6 5.93116 12.048 6.31516 11.688C6.72316 11.304 7.31116 11.016 8.07916 10.824L10.8872 10.14C12.0872 9.828 12.6872 9.252 12.6872 8.412C12.6872 7.956 12.4592 7.56 12.0032 7.224C11.5712 6.888 10.8152 6.72 9.73516 6.72C8.75116 6.72 7.82716 6.852 6.96316 7.116C6.09916 7.356 5.40316 7.644 4.87516 7.98C4.46716 7.668 4.11916 7.296 3.83116 6.864C3.54316 6.408 3.39916 5.868 3.39916 5.244C3.39916 4.62 3.57916 4.08 3.93916 3.624C4.29916 3.144 4.79116 2.76 5.41516 2.472C6.06316 2.16 6.81916 1.932 7.68316 1.788C8.57116 1.644 9.54316 1.572 10.5992 1.572C13.4312 1.572 15.5672 2.208 17.0072 3.48C18.4712 4.728 19.2032 6.372 19.2032 8.412C19.2032 12.252 16.4912 14.712 11.0672 15.792L7.43116 16.512Z" transform="translate(82 12)" fill="#F5F5F5"/>
<rect x="1.5" y="1.5" width="49" height="49" rx="2.5" transform="translate(2 58)" fill="#1ABC9C" stroke="white" stroke-width="3"/>
<rect x="1.5" y="1.5" width="49" height="49" rx="2.5" transform="translate(67 58)" fill="#E74C3C" stroke="white" stroke-width="3"/>
<path d="M10.272 1.408C10.544 1.584 10.784 1.832 10.992 2.152C11.216 2.456 11.328 2.84 11.328 3.304C11.328 3.56 11.304 3.824 11.256 4.096C11.208 4.352 11.128 4.608 11.016 4.864L6.024 16.168C5.8 16.184 5.584 16.192 5.376 16.192C5.184 16.192 5 16.192 4.824 16.192C4.104 16.192 3.52 16.056 3.072 15.784C2.624 15.512 2.4 15.04 2.4 14.368C2.4 14.032 2.48 13.672 2.64 13.288C2.8 12.888 3.016 12.416 3.288 11.872L6.792 4.696H0.912C0.816 4.52 0.72 4.288 0.624 4C0.528 3.712 0.48 3.408 0.48 3.088C0.48 2.48 0.616 2.048 0.888 1.792C1.16 1.536 1.504 1.408 1.92 1.408H10.272ZM21.2484 8.704C21.2484 7.296 21.0404 6.208 20.6244 5.44C20.2244 4.672 19.6484 4.288 18.8964 4.288C18.1444 4.288 17.5684 4.672 17.1684 5.44C16.7844 6.208 16.5924 7.296 16.5924 8.704C16.5924 10.112 16.7844 11.208 17.1684 11.992C17.5684 12.76 18.1444 13.144 18.8964 13.144C19.6484 13.144 20.2244 12.76 20.6244 11.992C21.0404 11.208 21.2484 10.112 21.2484 8.704ZM25.3524 8.704C25.3524 9.936 25.1924 11.032 24.8724 11.992C24.5524 12.952 24.1044 13.76 23.5284 14.416C22.9684 15.056 22.2884 15.544 21.4884 15.88C20.7044 16.216 19.8484 16.384 18.9204 16.384C17.9764 16.384 17.1044 16.216 16.3044 15.88C15.5204 15.544 14.8404 15.056 14.2644 14.416C13.7044 13.76 13.2644 12.952 12.9444 11.992C12.6404 11.032 12.4884 9.936 12.4884 8.704C12.4884 7.472 12.6404 6.384 12.9444 5.44C13.2644 4.48 13.7044 3.68 14.2644 3.04C14.8404 2.384 15.5204 1.888 16.3044 1.552C17.1044 1.216 17.9764 1.048 18.9204 1.048C19.8484 1.048 20.7044 1.216 21.4884 1.552C22.2884 1.888 22.9684 2.384 23.5284 3.04C24.1044 3.68 24.5524 4.48 24.8724 5.44C25.1924 6.384 25.3524 7.472 25.3524 8.704Z" transform="translate(15 75)" fill="white"/>
<path d="M3.72 17.296L1.32 18.04C1.08 17.88 0.84 17.656 0.6 17.368C0.36 17.08 0.24 16.68 0.24 16.168C0.24 15.208 0.824 14.536 1.992 14.152L4.68 13.24H5.568C6.256 13.24 6.8 13.44 7.2 13.84C7.6 14.24 7.8 14.784 7.8 15.472V27.976C7.624 28.008 7.36 28.048 7.008 28.096C6.672 28.16 6.328 28.192 5.976 28.192C5.624 28.192 5.304 28.168 5.016 28.12C4.744 28.072 4.512 27.976 4.32 27.832C4.128 27.688 3.976 27.496 3.864 27.256C3.768 27 3.72 26.672 3.72 26.272V17.296ZM10.6219 17.344C10.6219 16.704 10.7579 16.12 11.0299 15.592C11.3019 15.064 11.6779 14.608 12.1579 14.224C12.6379 13.84 13.2139 13.544 13.8859 13.336C14.5579 13.128 15.2939 13.024 16.0939 13.024C16.8939 13.024 17.6299 13.12 18.3019 13.312C18.9739 13.504 19.5499 13.776 20.0299 14.128C20.5099 14.48 20.8859 14.912 21.1579 15.424C21.4299 15.936 21.5659 16.512 21.5659 17.152C21.5659 17.856 21.4219 18.472 21.1339 19C20.8459 19.528 20.4459 19.968 19.9339 20.32C20.5419 20.736 21.0379 21.232 21.4219 21.808C21.8059 22.368 21.9979 23.128 21.9979 24.088C21.9979 24.728 21.8619 25.312 21.5899 25.84C21.3179 26.368 20.9259 26.824 20.4139 27.208C19.9019 27.592 19.2859 27.888 18.5659 28.096C17.8459 28.304 17.0379 28.408 16.1419 28.408C15.2459 28.408 14.4379 28.304 13.7179 28.096C12.9979 27.888 12.3819 27.592 11.8699 27.208C11.3739 26.824 10.9819 26.368 10.6939 25.84C10.4219 25.312 10.2859 24.728 10.2859 24.088C10.2859 23.224 10.4699 22.504 10.8379 21.928C11.2219 21.352 11.6699 20.904 12.1819 20.584C11.7499 20.232 11.3819 19.816 11.0779 19.336C10.7739 18.84 10.6219 18.176 10.6219 17.344ZM14.3899 23.728C14.3899 24.224 14.5499 24.616 14.8699 24.904C15.2059 25.192 15.6299 25.336 16.1419 25.336C16.6539 25.336 17.0699 25.192 17.3899 24.904C17.7259 24.6 17.8939 24.208 17.8939 23.728C17.8939 23.264 17.7499 22.88 17.4619 22.576C17.1899 22.256 16.8139 22.008 16.3339 21.832C15.6299 21.992 15.1259 22.24 14.8219 22.576C14.5339 22.896 14.3899 23.28 14.3899 23.728ZM17.5579 17.488C17.5579 17.056 17.4299 16.712 17.1739 16.456C16.9179 16.2 16.5579 16.072 16.0939 16.072C15.6299 16.072 15.2699 16.2 15.0139 16.456C14.7579 16.712 14.6299 17.048 14.6299 17.464C14.6299 17.88 14.7579 18.216 15.0139 18.472C15.2859 18.728 15.5979 18.936 15.9499 19.096C16.5099 18.968 16.9179 18.76 17.1739 18.472C17.4299 18.184 17.5579 17.856 17.5579 17.488Z" transform="translate(82 63)" fill="white"/>
<path d="M4.60987 13.816C4.49787 13.64 4.39387 13.4 4.29787 13.096C4.20187 12.792 4.15387 12.472 4.15387 12.136C4.15387 11.512 4.28987 11.064 4.56187 10.792C4.84987 10.52 5.21787 10.384 5.66587 10.384H16.1299C16.2419 10.56 16.3459 10.8 16.4419 11.104C16.5379 11.408 16.5859 11.728 16.5859 12.064C16.5859 12.688 16.4419 13.136 16.1539 13.408C15.8819 13.68 15.5219 13.816 15.0739 13.816H12.4099V24.904C12.2339 24.952 11.9539 25 11.5699 25.048C11.2019 25.096 10.8339 25.12 10.4659 25.12C10.0979 25.12 9.76987 25.088 9.48187 25.024C9.20987 24.976 8.97787 24.88 8.78587 24.736C8.59387 24.592 8.44987 24.392 8.35387 24.136C8.25787 23.88 8.20987 23.544 8.20987 23.128V13.816H4.60987ZM28.2178 12.688C28.2178 12 28.4178 11.456 28.8178 11.056C29.2178 10.656 29.7618 10.456 30.4498 10.456H38.3698C38.4818 10.632 38.5778 10.864 38.6578 11.152C38.7538 11.44 38.8018 11.744 38.8018 12.064C38.8018 12.672 38.6658 13.104 38.3938 13.36C38.1378 13.616 37.7938 13.744 37.3618 13.744H32.2978V15.976H37.6978C37.8098 16.152 37.9058 16.384 37.9858 16.672C38.0818 16.944 38.1298 17.24 38.1298 17.56C38.1298 18.168 38.0018 18.6 37.7458 18.856C37.4898 19.112 37.1458 19.24 36.7138 19.24H32.2978V21.76H38.4658C38.5778 21.936 38.6738 22.168 38.7538 22.456C38.8498 22.744 38.8978 23.048 38.8978 23.368C38.8978 23.976 38.7618 24.416 38.4898 24.688C38.2338 24.944 37.8898 25.072 37.4578 25.072H30.4498C29.7618 25.072 29.2178 24.872 28.8178 24.472C28.4178 24.072 28.2178 23.528 28.2178 22.84V12.688ZM55.0462 22C55.2702 22.064 55.5582 22.112 55.9102 22.144C56.2623 22.16 56.5983 22.168 56.9182 22.168C57.5582 22.168 58.0862 22.04 58.5023 21.784C58.9342 21.512 59.1502 21.096 59.1502 20.536C59.1502 20.008 58.9742 19.632 58.6223 19.408C58.2702 19.184 57.7342 19.072 57.0143 19.072H55.0462V22ZM55.0462 16.144H56.7982C57.4863 16.144 57.9823 16.016 58.2863 15.76C58.6062 15.504 58.7662 15.128 58.7662 14.632C58.7662 14.2 58.5822 13.856 58.2143 13.6C57.8623 13.344 57.3263 13.216 56.6063 13.216C56.3663 13.216 56.0862 13.224 55.7662 13.24C55.4622 13.256 55.2223 13.28 55.0462 13.312V16.144ZM56.6063 25.384C56.3342 25.384 56.0142 25.376 55.6462 25.36C55.2782 25.344 54.8943 25.312 54.4942 25.264C54.1102 25.216 53.7262 25.152 53.3423 25.072C52.9583 25.008 52.6062 24.912 52.2862 24.784C51.4062 24.448 50.9662 23.864 50.9662 23.032V11.824C50.9662 11.488 51.0542 11.232 51.2302 11.056C51.4222 10.864 51.6783 10.712 51.9983 10.6C52.5423 10.408 53.2223 10.272 54.0383 10.192C54.8543 10.096 55.6943 10.048 56.5583 10.048C58.6063 10.048 60.1823 10.392 61.2863 11.08C62.3903 11.768 62.9423 12.832 62.9423 14.272C62.9423 14.992 62.7343 15.616 62.3182 16.144C61.9023 16.656 61.3423 17.032 60.6382 17.272C61.4383 17.496 62.1023 17.904 62.6302 18.496C63.1742 19.088 63.4462 19.832 63.4462 20.728C63.4462 22.312 62.8542 23.488 61.6702 24.256C60.5022 25.008 58.8142 25.384 56.6063 25.384ZM78.5216 10.888C78.7936 10.728 79.2016 10.576 79.7456 10.432C80.3056 10.288 80.8656 10.216 81.4256 10.216C82.2256 10.216 82.9296 10.336 83.5376 10.576C84.1616 10.8 84.5616 11.16 84.7376 11.656C85.0256 12.488 85.3376 13.456 85.6736 14.56C86.0096 15.664 86.3456 16.808 86.6816 17.992C87.0176 19.16 87.3456 20.32 87.6656 21.472C87.9856 22.608 88.2656 23.616 88.5056 24.496C88.3136 24.72 88.0256 24.896 87.6416 25.024C87.2576 25.168 86.8016 25.24 86.2736 25.24C85.8896 25.24 85.5616 25.208 85.2896 25.144C85.0336 25.08 84.8176 24.984 84.6416 24.856C84.4816 24.728 84.3456 24.56 84.2336 24.352C84.1376 24.144 84.0496 23.904 83.9696 23.632L83.5376 21.976H79.1936C79.0656 22.456 78.9376 22.952 78.8096 23.464C78.6816 23.976 78.5536 24.472 78.4256 24.952C78.2016 25.032 77.9616 25.096 77.7056 25.144C77.4656 25.208 77.1696 25.24 76.8176 25.24C76.0016 25.24 75.3936 25.104 74.9936 24.832C74.6096 24.544 74.4176 24.152 74.4176 23.656C74.4176 23.432 74.4496 23.208 74.5136 22.984C74.5776 22.76 74.6496 22.496 74.7296 22.192C74.8416 21.76 74.9936 21.224 75.1856 20.584C75.3936 19.944 75.6176 19.256 75.8576 18.52C76.0976 17.768 76.3536 17 76.6256 16.216C76.8976 15.432 77.1536 14.696 77.3936 14.008C77.6336 13.304 77.8496 12.68 78.0416 12.136C78.2496 11.592 78.4096 11.176 78.5216 10.888ZM81.4016 13.984C81.1776 14.656 80.9216 15.408 80.6336 16.24C80.3616 17.056 80.1136 17.888 79.8896 18.736H82.8656C82.6416 17.872 82.4096 17.032 82.1696 16.216C81.9456 15.384 81.7376 14.64 81.5456 13.984H81.4016ZM104.296 19.6V24.904C104.12 24.952 103.84 25 103.456 25.048C103.072 25.096 102.696 25.12 102.328 25.12C101.96 25.12 101.632 25.088 101.344 25.024C101.072 24.976 100.84 24.88 100.648 24.736C100.456 24.592 100.312 24.392 100.216 24.136C100.12 23.88 100.072 23.544 100.072 23.128V10.456C100.248 10.424 100.528 10.384 100.912 10.336C101.296 10.272 101.664 10.24 102.016 10.24C102.384 10.24 102.704 10.272 102.976 10.336C103.264 10.384 103.504 10.48 103.696 10.624C103.888 10.768 104.032 10.968 104.128 11.224C104.224 11.48 104.272 11.816 104.272 12.232V16.048L109.264 10.312C110.352 10.312 111.128 10.52 111.592 10.936C112.072 11.336 112.312 11.816 112.312 12.376C112.312 12.792 112.208 13.184 112 13.552C111.792 13.92 111.456 14.336 110.992 14.8L107.992 17.8C108.392 18.248 108.808 18.712 109.24 19.192C109.688 19.672 110.12 20.144 110.536 20.608C110.968 21.056 111.376 21.488 111.76 21.904C112.16 22.32 112.504 22.68 112.792 22.984C112.792 23.336 112.728 23.648 112.6 23.92C112.472 24.192 112.296 24.424 112.072 24.616C111.864 24.808 111.624 24.952 111.352 25.048C111.08 25.144 110.792 25.192 110.488 25.192C109.832 25.192 109.296 25.032 108.88 24.712C108.464 24.376 108.064 23.984 107.68 23.536L104.296 19.6Z" transform="translate(2 118)" fill="#FB7D7D"/>
<path d="M5.41303 48.888C5.68503 48.728 6.09303 48.576 6.63703 48.432C7.19703 48.288 7.75703 48.216 8.31703 48.216C9.11703 48.216 9.82103 48.336 10.429 48.576C11.053 48.8 11.453 49.16 11.629 49.656C11.917 50.488 12.229 51.456 12.565 52.56C12.901 53.664 13.237 54.808 13.573 55.992C13.909 57.16 14.237 58.32 14.557 59.472C14.877 60.608 15.157 61.616 15.397 62.496C15.205 62.72 14.917 62.896 14.533 63.024C14.149 63.168 13.693 63.24 13.165 63.24C12.781 63.24 12.453 63.208 12.181 63.144C11.925 63.08 11.709 62.984 11.533 62.856C11.373 62.728 11.237 62.56 11.125 62.352C11.029 62.144 10.941 61.904 10.861 61.632L10.429 59.976H6.08503C5.95703 60.456 5.82903 60.952 5.70103 61.464C5.57303 61.976 5.44503 62.472 5.31703 62.952C5.09303 63.032 4.85303 63.096 4.59703 63.144C4.35703 63.208 4.06103 63.24 3.70903 63.24C2.89303 63.24 2.28503 63.104 1.88503 62.832C1.50103 62.544 1.30903 62.152 1.30903 61.656C1.30903 61.432 1.34103 61.208 1.40503 60.984C1.46903 60.76 1.54103 60.496 1.62103 60.192C1.73303 59.76 1.88503 59.224 2.07703 58.584C2.28503 57.944 2.50903 57.256 2.74903 56.52C2.98903 55.768 3.24503 55 3.51703 54.216C3.78903 53.432 4.04503 52.696 4.28503 52.008C4.52503 51.304 4.74103 50.68 4.93303 50.136C5.14103 49.592 5.30103 49.176 5.41303 48.888ZM8.29303 51.984C8.06903 52.656 7.81303 53.408 7.52503 54.24C7.25303 55.056 7.00503 55.888 6.78103 56.736H9.75703C9.53303 55.872 9.30103 55.032 9.06103 54.216C8.83703 53.384 8.62903 52.64 8.43703 51.984H8.29303ZM40.1399 62.496C39.9159 62.72 39.5879 62.888 39.1559 63C38.7399 63.128 38.2359 63.192 37.6439 63.192C37.0519 63.192 36.4919 63.104 35.9639 62.928C35.4359 62.752 35.0039 62.328 34.6679 61.656L32.2919 56.808C32.0519 56.312 31.8359 55.848 31.6439 55.416C31.4519 54.968 31.2439 54.456 31.0199 53.88L30.8759 53.904C30.9399 54.768 30.9719 55.648 30.9719 56.544C30.9879 57.44 30.9959 58.32 30.9959 59.184V62.904C30.8199 62.952 30.5479 63 30.1799 63.048C29.8279 63.096 29.4759 63.12 29.1239 63.12C28.7719 63.12 28.4599 63.096 28.1879 63.048C27.9159 63 27.6919 62.904 27.5159 62.76C27.3399 62.616 27.2039 62.424 27.1079 62.184C27.0119 61.928 26.9639 61.6 26.9639 61.2V49.2C27.1879 48.88 27.5319 48.64 27.9959 48.48C28.4599 48.32 28.9559 48.24 29.4839 48.24C30.0759 48.24 30.6359 48.336 31.1639 48.528C31.7079 48.704 32.1399 49.12 32.4599 49.776L34.8599 54.624C35.0999 55.12 35.3159 55.592 35.5079 56.04C35.6999 56.472 35.9079 56.976 36.1319 57.552L36.2519 57.528C36.1879 56.664 36.1479 55.8 36.1319 54.936C36.1159 54.072 36.1079 53.208 36.1079 52.344V48.456C36.2839 48.408 36.5479 48.36 36.8999 48.312C37.2679 48.264 37.6279 48.24 37.9799 48.24C38.6839 48.24 39.2199 48.368 39.5879 48.624C39.9559 48.864 40.1399 49.376 40.1399 50.16V62.496ZM66.029 60.624C66.029 61.12 65.941 61.488 65.765 61.728C65.589 61.968 65.309 62.2 64.925 62.424C64.701 62.552 64.421 62.68 64.085 62.808C63.749 62.92 63.381 63.016 62.981 63.096C62.581 63.192 62.157 63.264 61.709 63.312C61.277 63.36 60.845 63.384 60.413 63.384C59.261 63.384 58.181 63.232 57.173 62.928C56.165 62.608 55.285 62.136 54.533 61.512C53.797 60.872 53.213 60.08 52.781 59.136C52.349 58.192 52.133 57.096 52.133 55.848C52.133 54.536 52.365 53.392 52.829 52.416C53.309 51.44 53.933 50.632 54.701 49.992C55.485 49.336 56.373 48.848 57.365 48.528C58.373 48.208 59.405 48.048 60.461 48.048C61.981 48.048 63.181 48.296 64.061 48.792C64.957 49.272 65.405 49.904 65.405 50.688C65.405 51.104 65.301 51.464 65.093 51.768C64.885 52.072 64.645 52.312 64.373 52.488C63.973 52.248 63.469 52.016 62.861 51.792C62.269 51.552 61.597 51.432 60.845 51.432C59.501 51.432 58.429 51.816 57.629 52.584C56.845 53.352 56.453 54.416 56.453 55.776C56.453 56.512 56.557 57.152 56.765 57.696C56.989 58.224 57.285 58.664 57.653 59.016C58.021 59.352 58.445 59.608 58.925 59.784C59.405 59.944 59.917 60.024 60.461 60.024C60.813 60.024 61.125 59.992 61.397 59.928C61.669 59.864 61.877 59.792 62.021 59.712V57.456H59.453C59.357 57.28 59.261 57.048 59.165 56.76C59.085 56.472 59.045 56.168 59.045 55.848C59.045 55.272 59.173 54.856 59.429 54.6C59.701 54.344 60.045 54.216 60.461 54.216H64.517C64.997 54.216 65.365 54.352 65.621 54.624C65.893 54.88 66.029 55.248 66.029 55.728V60.624ZM82.6145 57.6V62.904C82.4385 62.952 82.1585 63 81.7745 63.048C81.3905 63.096 81.0145 63.12 80.6465 63.12C80.2785 63.12 79.9505 63.088 79.6625 63.024C79.3905 62.976 79.1585 62.88 78.9665 62.736C78.7745 62.592 78.6305 62.392 78.5345 62.136C78.4385 61.88 78.3905 61.544 78.3905 61.128V48.456C78.5665 48.424 78.8465 48.384 79.2305 48.336C79.6145 48.272 79.9825 48.24 80.3345 48.24C80.7025 48.24 81.0225 48.272 81.2945 48.336C81.5825 48.384 81.8225 48.48 82.0145 48.624C82.2065 48.768 82.3505 48.968 82.4465 49.224C82.5425 49.48 82.5905 49.816 82.5905 50.232V54.048L87.5825 48.312C88.6705 48.312 89.4465 48.52 89.9105 48.936C90.3905 49.336 90.6305 49.816 90.6305 50.376C90.6305 50.792 90.5265 51.184 90.3185 51.552C90.1105 51.92 89.7745 52.336 89.3105 52.8L86.3105 55.8C86.7105 56.248 87.1265 56.712 87.5585 57.192C88.0065 57.672 88.4385 58.144 88.8545 58.608C89.2865 59.056 89.6945 59.488 90.0785 59.904C90.4785 60.32 90.8225 60.68 91.1105 60.984C91.1105 61.336 91.0465 61.648 90.9185 61.92C90.7905 62.192 90.6145 62.424 90.3905 62.616C90.1825 62.808 89.9425 62.952 89.6705 63.048C89.3985 63.144 89.1105 63.192 88.8065 63.192C88.1505 63.192 87.6145 63.032 87.1985 62.712C86.7825 62.376 86.3825 61.984 85.9985 61.536L82.6145 57.6ZM105.852 48.888C106.124 48.728 106.532 48.576 107.076 48.432C107.636 48.288 108.196 48.216 108.756 48.216C109.556 48.216 110.26 48.336 110.868 48.576C111.492 48.8 111.892 49.16 112.068 49.656C112.356 50.488 112.668 51.456 113.004 52.56C113.34 53.664 113.676 54.808 114.012 55.992C114.348 57.16 114.676 58.32 114.996 59.472C115.316 60.608 115.596 61.616 115.836 62.496C115.644 62.72 115.356 62.896 114.972 63.024C114.588 63.168 114.132 63.24 113.604 63.24C113.22 63.24 112.892 63.208 112.62 63.144C112.364 63.08 112.148 62.984 111.972 62.856C111.812 62.728 111.676 62.56 111.564 62.352C111.468 62.144 111.38 61.904 111.3 61.632L110.868 59.976H106.524C106.396 60.456 106.268 60.952 106.14 61.464C106.012 61.976 105.884 62.472 105.756 62.952C105.532 63.032 105.292 63.096 105.036 63.144C104.796 63.208 104.5 63.24 104.148 63.24C103.332 63.24 102.724 63.104 102.324 62.832C101.94 62.544 101.748 62.152 101.748 61.656C101.748 61.432 101.78 61.208 101.844 60.984C101.908 60.76 101.98 60.496 102.06 60.192C102.172 59.76 102.324 59.224 102.516 58.584C102.724 57.944 102.948 57.256 103.188 56.52C103.428 55.768 103.684 55 103.956 54.216C104.228 53.432 104.484 52.696 104.724 52.008C104.964 51.304 105.18 50.68 105.372 50.136C105.58 49.592 105.74 49.176 105.852 48.888ZM108.732 51.984C108.508 52.656 108.252 53.408 107.964 54.24C107.692 55.056 107.444 55.888 107.22 56.736H110.196C109.972 55.872 109.74 55.032 109.5 54.216C109.276 53.384 109.068 52.64 108.876 51.984H108.732Z" transform="translate(2 118)" fill="#566871"/>
<path d="M4.60987 13.816L2.07889 15.4266L2.96304 16.816H4.60987V13.816ZM4.29787 13.096L7.15862 12.1926L7.15862 12.1926L4.29787 13.096ZM4.56187 10.792L2.502 8.61096L2.47085 8.64038L2.44055 8.67068L4.56187 10.792ZM16.1299 10.384L18.6609 8.77338L17.7767 7.384H16.1299V10.384ZM16.4419 11.104L13.5811 12.0074L13.5811 12.0074L16.4419 11.104ZM16.1539 13.408L14.094 11.227L14.0629 11.2564L14.0326 11.2867L16.1539 13.408ZM12.4099 13.816V10.816H9.40987V13.816H12.4099ZM12.4099 24.904L13.1992 27.7983L15.4099 27.1954V24.904H12.4099ZM11.5699 25.048L11.1978 22.0712L11.1898 22.0722L11.1819 22.0732L11.5699 25.048ZM9.48187 25.024L10.1327 22.0954L10.0682 22.0811L10.0032 22.0696L9.48187 25.024ZM8.78587 24.736L6.98587 27.136L6.98588 27.136L8.78587 24.736ZM8.35387 24.136L5.54489 25.1894L5.54489 25.1894L8.35387 24.136ZM8.20987 13.816H11.2099V10.816H8.20987V13.816ZM7.14086 12.2054C7.16534 12.2438 7.18124 12.2729 7.18986 12.2896C7.19857 12.3063 7.20184 12.3142 7.20054 12.3112C7.19929 12.3083 7.19463 12.2973 7.18711 12.2768C7.17962 12.2564 7.17 12.2287 7.15862 12.1926L1.43713 13.9994C1.57503 14.4361 1.77351 14.9467 2.07889 15.4266L7.14086 12.2054ZM7.15862 12.1926C7.15854 12.1924 7.15834 12.1917 7.15805 12.1904C7.15775 12.1891 7.15725 12.1867 7.15668 12.183C7.15561 12.1758 7.15387 12.1607 7.15387 12.136H1.15387C1.15387 12.7619 1.24397 13.3877 1.43713 13.9994L7.15862 12.1926ZM7.15387 12.136C7.15387 12.0275 7.16738 12.0688 7.12652 12.2034C7.08207 12.3499 6.96387 12.6326 6.6832 12.9133L2.44055 8.67068C1.34194 9.7693 1.15387 11.19 1.15387 12.136H7.15387ZM6.62175 12.973C6.47482 13.1118 6.29274 13.2265 6.09383 13.3C5.90124 13.3712 5.74705 13.384 5.66587 13.384V7.384C4.56021 7.384 3.42096 7.74306 2.502 8.61096L6.62175 12.973ZM5.66587 13.384H16.1299V7.384H5.66587V13.384ZM13.5989 11.9946C13.5744 11.9561 13.5585 11.927 13.5499 11.9104C13.5412 11.8937 13.5379 11.8858 13.5392 11.8888C13.5405 11.8917 13.5451 11.9027 13.5526 11.9232C13.5601 11.9436 13.5697 11.9713 13.5811 12.0074L19.3026 10.2006C19.1647 9.7639 18.9662 9.25326 18.6609 8.77338L13.5989 11.9946ZM13.5811 12.0074C13.5812 12.0076 13.5814 12.0083 13.5817 12.0096C13.582 12.0109 13.5825 12.0133 13.5831 12.017C13.5841 12.0242 13.5859 12.0393 13.5859 12.064H19.5859C19.5859 11.4381 19.4958 10.8123 19.3026 10.2006L13.5811 12.0074ZM13.5859 12.064C13.5859 12.1596 13.5731 12.1014 13.6218 11.95C13.6754 11.7831 13.807 11.498 14.094 11.227L18.2137 15.589C19.3715 14.4956 19.5859 13.0494 19.5859 12.064H13.5859ZM14.0326 11.2867C14.1978 11.1215 14.4015 10.99 14.6197 10.9076C14.8292 10.8284 14.9941 10.816 15.0739 10.816V16.816C16.176 16.816 17.3478 16.4567 18.2752 15.5293L14.0326 11.2867ZM15.0739 10.816H12.4099V16.816H15.0739V10.816ZM9.40987 13.816V24.904H15.4099V13.816H9.40987ZM11.6205 22.0097C11.6618 21.9984 11.6519 22.0035 11.561 22.0191C11.4784 22.0333 11.3596 22.0509 11.1978 22.0712L11.942 28.0248C12.347 27.9742 12.8053 27.9057 13.1992 27.7983L11.6205 22.0097ZM11.1819 22.0732C10.9414 22.1046 10.703 22.12 10.4659 22.12V28.12C10.9647 28.12 11.4623 28.0874 11.9579 28.0228L11.1819 22.0732ZM10.4659 22.12C10.2655 22.12 10.1621 22.102 10.1327 22.0954L8.83108 27.9526C9.3776 28.074 9.93028 28.12 10.4659 28.12V22.12ZM10.0032 22.0696C10.1249 22.0911 10.3479 22.1575 10.5859 22.336L6.98588 27.136C7.60783 27.6025 8.29489 27.8609 8.96052 27.9784L10.0032 22.0696ZM10.5859 22.336C10.9131 22.5814 11.0866 22.8793 11.1629 23.0826L5.54489 25.1894C5.81315 25.9047 6.27466 26.6026 6.98587 27.136L10.5859 22.336ZM11.1629 23.0826C11.1855 23.143 11.1986 23.1901 11.2059 23.2199C11.2131 23.2498 11.2156 23.2666 11.2157 23.2677C11.2159 23.269 11.2143 23.2583 11.2128 23.2339C11.2112 23.2097 11.2099 23.1747 11.2099 23.128H5.20987C5.20987 23.7356 5.27461 24.4686 5.54489 25.1894L11.1629 23.0826ZM11.2099 23.128V13.816H5.20987V23.128H11.2099ZM8.20987 10.816H4.60987V16.816H8.20987V10.816ZM28.8178 11.056L30.9391 13.1773L30.9391 13.1773L28.8178 11.056ZM38.3698 10.456L40.9008 8.84537L40.0166 7.456H38.3698V10.456ZM38.6578 11.152L35.7673 11.9549L35.7877 12.0284L35.8118 12.1007L38.6578 11.152ZM38.3938 13.36L36.3377 11.1754L36.3046 11.2065L36.2725 11.2387L38.3938 13.36ZM32.2978 13.744V10.744H29.2978V13.744H32.2978ZM32.2978 15.976H29.2978V18.976H32.2978V15.976ZM37.6978 15.976L40.2288 14.3654L39.3446 12.976H37.6978V15.976ZM37.9858 16.672L35.0953 17.4749L35.1227 17.5737L35.1568 17.6705L37.9858 16.672ZM37.7458 18.856L39.8671 20.9773L39.8671 20.9773L37.7458 18.856ZM32.2978 19.24V16.24H29.2978V19.24H32.2978ZM32.2978 21.76H29.2978V24.76H32.2978V21.76ZM38.4658 21.76L40.9968 20.1494L40.1127 18.76H38.4658V21.76ZM38.7538 22.456L35.8633 23.2589L35.8837 23.3324L35.9078 23.4047L38.7538 22.456ZM38.4898 24.688L40.6111 26.8093L40.6111 26.8093L38.4898 24.688ZM28.8178 24.472L30.9391 22.3507L30.9391 22.3507L28.8178 24.472ZM31.2178 12.688C31.2178 12.6327 31.2259 12.6841 31.1835 12.7992C31.1373 12.9249 31.0543 13.0622 30.9391 13.1773L26.6965 8.93468C25.6163 10.0149 25.2178 11.3877 25.2178 12.688H31.2178ZM30.9391 13.1773C30.824 13.2925 30.6868 13.3755 30.561 13.4217C30.4459 13.464 30.3946 13.456 30.4498 13.456V7.456C29.1495 7.456 27.7767 7.85448 26.6965 8.93468L30.9391 13.1773ZM30.4498 13.456H38.3698V7.456H30.4498V13.456ZM35.8388 12.0666C35.7845 11.9813 35.7595 11.923 35.7538 11.9091C35.7476 11.8941 35.7538 11.9066 35.7673 11.9549L41.5484 10.3491C41.4203 9.88798 41.2243 9.35373 40.9008 8.84537L35.8388 12.0666ZM35.8118 12.1007C35.8068 12.0858 35.8039 12.0729 35.8025 12.0639C35.8011 12.0551 35.8018 12.0545 35.8018 12.064H41.8018C41.8018 11.4391 41.7072 10.8134 41.5039 10.2033L35.8118 12.1007ZM35.8018 12.064C35.8018 12.16 35.7892 12.099 35.8383 11.9431C35.8918 11.7729 36.028 11.4669 36.3377 11.1754L40.4499 15.5446C41.6112 14.4516 41.8018 12.9985 41.8018 12.064H35.8018ZM36.2725 11.2387C36.4535 11.0577 36.6716 10.9204 36.8976 10.8363C37.1138 10.7559 37.2825 10.744 37.3618 10.744V16.744C38.4246 16.744 39.5898 16.4067 40.5151 15.4813L36.2725 11.2387ZM37.3618 10.744H32.2978V16.744H37.3618V10.744ZM29.2978 13.744V15.976H35.2978V13.744H29.2978ZM32.2978 18.976H37.6978V12.976H32.2978V18.976ZM35.1668 17.5866C35.1125 17.5013 35.0875 17.443 35.0818 17.4291C35.0756 17.4141 35.0818 17.4266 35.0953 17.4749L40.8764 15.8691C40.7483 15.408 40.5523 14.8737 40.2288 14.3654L35.1668 17.5866ZM35.1568 17.6705C35.1431 17.6315 35.136 17.5996 35.1325 17.5782C35.1291 17.5572 35.1298 17.5502 35.1298 17.56H41.1298C41.1298 16.9369 41.0357 16.2994 40.8148 15.6735L35.1568 17.6705ZM35.1298 17.56C35.1298 17.6691 35.1165 17.6258 35.1574 17.4877C35.2013 17.3398 35.3227 17.0365 35.6245 16.7347L39.8671 20.9773C40.9651 19.8794 41.1298 18.4542 41.1298 17.56H35.1298ZM35.6245 16.7347C35.8055 16.5537 36.0236 16.4164 36.2496 16.3323C36.4658 16.2519 36.6345 16.24 36.7138 16.24V22.24C37.7766 22.24 38.9418 21.9027 39.8671 20.9773L35.6245 16.7347ZM36.7138 16.24H32.2978V22.24H36.7138V16.24ZM29.2978 19.24V21.76H35.2978V19.24H29.2978ZM32.2978 24.76H38.4658V18.76H32.2978V24.76ZM35.9348 23.3706C35.8805 23.2853 35.8555 23.227 35.8498 23.2131C35.8436 23.1981 35.8498 23.2106 35.8633 23.2589L41.6444 21.6531C41.5163 21.192 41.3203 20.6577 40.9968 20.1494L35.9348 23.3706ZM35.9078 23.4047C35.9028 23.3898 35.8999 23.3769 35.8985 23.3679C35.8971 23.3591 35.8978 23.3585 35.8978 23.368H41.8978C41.8978 22.7431 41.8032 22.1174 41.5999 21.5073L35.9078 23.4047ZM35.8978 23.368C35.8978 23.4618 35.8857 23.41 35.9296 23.2681C35.9775 23.1133 36.0975 22.8376 36.3685 22.5667L40.6111 26.8093C41.6979 25.7225 41.8978 24.3248 41.8978 23.368H35.8978ZM36.3685 22.5667C36.5495 22.3857 36.7676 22.2484 36.9936 22.1643C37.2098 22.0839 37.3785 22.072 37.4578 22.072V28.072C38.5206 28.072 39.6858 27.7347 40.6111 26.8093L36.3685 22.5667ZM37.4578 22.072H30.4498V28.072H37.4578V22.072ZM30.4498 22.072C30.3946 22.072 30.4459 22.064 30.561 22.1063C30.6868 22.1525 30.824 22.2355 30.9391 22.3507L26.6965 26.5933C27.7767 27.6735 29.1495 28.072 30.4498 28.072V22.072ZM30.9391 22.3507C31.0543 22.4658 31.1373 22.6031 31.1835 22.7288C31.2259 22.8439 31.2178 22.8953 31.2178 22.84H25.2178C25.2178 24.1403 25.6163 25.5131 26.6965 26.5933L30.9391 22.3507ZM31.2178 22.84V12.688H25.2178V22.84H31.2178ZM55.0462 22H52.0462V24.2629L54.2221 24.8846L55.0462 22ZM55.9102 22.144L55.6386 25.1317L55.7062 25.1378L55.774 25.1409L55.9102 22.144ZM58.5023 21.784L60.0745 24.339L60.0877 24.3309L60.1007 24.3227L58.5023 21.784ZM58.6223 19.408L60.2329 16.877L60.2329 16.877L58.6223 19.408ZM55.0462 19.072V16.072H52.0462V19.072H55.0462ZM55.0462 16.144H52.0462V19.144H55.0462V16.144ZM58.2863 15.76L56.4122 13.4174L56.3827 13.441L56.3538 13.4653L58.2863 15.76ZM58.2143 13.6L56.4497 16.0262L56.4752 16.0447L56.5011 16.0627L58.2143 13.6ZM55.7662 13.24L55.6164 10.2437L55.6086 10.2441L55.7662 13.24ZM55.0462 13.312L54.5096 10.3604L52.0462 10.8083V13.312H55.0462ZM55.6462 25.36L55.7766 22.3628L55.7766 22.3628L55.6462 25.36ZM54.4942 25.264L54.1221 28.2408L54.1295 28.2418L54.1368 28.2426L54.4942 25.264ZM53.3423 25.072L53.9541 22.1351L53.895 22.1227L53.8354 22.1128L53.3423 25.072ZM52.2862 24.784L53.4004 21.9986L53.3785 21.9898L53.3564 21.9813L52.2862 24.784ZM51.2302 11.056L53.3516 13.1773L53.3516 13.1773L51.2302 11.056ZM51.9983 10.6L52.9893 13.4316L52.9967 13.429L51.9983 10.6ZM54.0383 10.192L54.331 13.1777L54.3599 13.1748L54.3888 13.1715L54.0383 10.192ZM61.2863 11.08L59.6996 13.6261L59.6996 13.6261L61.2863 11.08ZM62.3182 16.144L64.6466 18.0358L64.6608 18.0183L64.6747 18.0006L62.3182 16.144ZM60.6382 17.272L59.6702 14.4325L50.5161 17.5532L59.8294 20.1609L60.6382 17.272ZM62.6302 18.496L60.3914 20.4928L60.4062 20.5095L60.4213 20.5259L62.6302 18.496ZM61.6702 24.256L63.2943 26.7784L63.3028 26.7729L61.6702 24.256ZM54.2221 24.8846C54.6936 25.0193 55.1849 25.0904 55.6386 25.1317L56.1819 19.1563C56.0652 19.1457 55.9806 19.1343 55.9234 19.1248C55.8645 19.115 55.8504 19.1097 55.8704 19.1154L54.2221 24.8846ZM55.774 25.1409C56.1669 25.1588 56.5486 25.168 56.9182 25.168V19.168C56.6479 19.168 56.3576 19.1612 56.0465 19.1471L55.774 25.1409ZM56.9182 25.168C57.9449 25.168 59.0603 24.9631 60.0745 24.339L56.93 19.229C56.9728 19.2027 57.0102 19.1848 57.0389 19.1731C57.0672 19.1616 57.0845 19.1572 57.0874 19.1564C57.0915 19.1555 57.0411 19.168 56.9182 19.168V25.168ZM60.1007 24.3227C61.5014 23.4408 62.1502 22.0075 62.1502 20.536H56.1502C56.1502 20.4279 56.1727 20.1803 56.3258 19.8856C56.485 19.5788 56.7102 19.3672 56.9038 19.2453L60.1007 24.3227ZM62.1502 20.536C62.1502 19.2924 61.6829 17.7998 60.2329 16.877L57.0116 21.939C56.7092 21.7465 56.4561 21.4609 56.3012 21.1298C56.1594 20.8269 56.1502 20.596 56.1502 20.536H62.1502ZM60.2329 16.877C59.164 16.1968 57.94 16.072 57.0143 16.072V22.072C57.1175 22.072 57.1963 22.0761 57.2533 22.0811C57.3107 22.0863 57.3389 22.0918 57.3426 22.0926C57.3467 22.0934 57.3169 22.0876 57.2621 22.0669C57.2069 22.046 57.1185 22.007 57.0116 21.939L60.2329 16.877ZM57.0143 16.072H55.0462V22.072H57.0143V16.072ZM52.0462 19.072V22H58.0462V19.072H52.0462ZM55.0462 19.144H56.7982V13.144H55.0462V19.144ZM56.7982 19.144C57.724 19.144 59.0994 18.9973 60.2187 18.0547L56.3538 13.4653C56.6298 13.2329 56.8708 13.1601 56.9366 13.1432C57.0007 13.1266 56.9698 13.144 56.7982 13.144V19.144ZM60.1603 18.1026C61.3428 17.1566 61.7662 15.8269 61.7662 14.632H55.7662C55.7662 14.5606 55.7778 14.3652 55.8858 14.1113C56.0007 13.8413 56.1858 13.5985 56.4122 13.4174L60.1603 18.1026ZM61.7662 14.632C61.7662 13.1747 61.0655 11.929 59.9274 11.1373L56.5011 16.0627C56.3542 15.9605 56.1457 15.7693 55.9829 15.465C55.8179 15.1564 55.7662 14.8557 55.7662 14.632H61.7662ZM59.9788 11.1738C58.8757 10.3715 57.5829 10.216 56.6063 10.216V16.216C56.6985 16.216 56.7645 16.2202 56.8076 16.2245C56.851 16.229 56.8637 16.2329 56.8514 16.23C56.8331 16.2256 56.6666 16.1839 56.4497 16.0262L59.9788 11.1738ZM56.6063 10.216C56.303 10.216 55.971 10.226 55.6164 10.2437L55.9161 16.2363C56.2015 16.222 56.4295 16.216 56.6063 16.216V10.216ZM55.6086 10.2441C55.2523 10.2629 54.8676 10.2953 54.5096 10.3604L55.5829 16.2636C55.5703 16.2659 55.5911 16.2617 55.6568 16.2551C55.7197 16.2488 55.8074 16.242 55.9239 16.2359L55.6086 10.2441ZM52.0462 13.312V16.144H58.0462V13.312H52.0462ZM56.6063 22.384C56.3898 22.384 56.1152 22.3776 55.7766 22.3628L55.5159 28.3572C55.9133 28.3744 56.2787 28.384 56.6063 28.384V22.384ZM55.7766 22.3628C55.4911 22.3504 55.1832 22.3251 54.8517 22.2854L54.1368 28.2426C54.6053 28.2989 55.0654 28.3376 55.5159 28.3572L55.7766 22.3628ZM54.8664 22.2872C54.5639 22.2494 54.2598 22.1988 53.9541 22.1351L52.7304 28.0089C53.1927 28.1052 53.6566 28.1826 54.1221 28.2408L54.8664 22.2872ZM53.8354 22.1128C53.6372 22.0798 53.4965 22.037 53.4004 21.9986L51.1721 27.5694C51.716 27.787 52.2793 27.9362 52.8491 28.0312L53.8354 22.1128ZM53.3564 21.9813C53.2936 21.9574 53.4879 22.0174 53.6923 22.2888C53.9172 22.5873 53.9662 22.8905 53.9662 23.032H47.9662C47.9662 24.0055 48.2353 25.0167 48.9002 25.8992C49.5446 26.7546 50.3989 27.2746 51.2161 27.5867L53.3564 21.9813ZM53.9662 23.032V11.824H47.9662V23.032H53.9662ZM53.9662 11.824C53.9662 11.9973 53.9126 12.6163 53.3516 13.1773L49.1089 8.93468C48.1959 9.84774 47.9662 10.9787 47.9662 11.824H53.9662ZM53.3516 13.1773C53.1558 13.3731 52.9915 13.4308 52.9893 13.4316L51.0072 7.76843C50.365 7.99321 49.6887 8.35492 49.1089 8.93468L53.3516 13.1773ZM52.9967 13.429C53.2394 13.3433 53.6636 13.2431 54.331 13.1777L53.7455 7.20631C52.7809 7.30089 51.8451 7.47268 50.9998 7.77103L52.9967 13.429ZM54.3888 13.1715C55.0826 13.0898 55.8054 13.048 56.5583 13.048V7.048C55.5831 7.048 54.6259 7.10218 53.6877 7.21255L54.3888 13.1715ZM56.5583 13.048C58.3399 13.048 59.2715 13.3593 59.6996 13.6261L62.8729 8.53394C61.093 7.42471 58.8726 7.048 56.5583 7.048V13.048ZM59.6996 13.6261C59.8351 13.7105 59.8581 13.7616 59.8653 13.7755C59.8795 13.8029 59.9423 13.9368 59.9423 14.272H65.9423C65.9423 11.9284 64.9626 9.83618 62.8729 8.53393L59.6996 13.6261ZM59.9423 14.272C59.9423 14.3073 59.9397 14.3276 59.9385 14.3352C59.9374 14.3425 59.9372 14.3403 59.9402 14.3313C59.9416 14.3271 59.9435 14.3221 59.9458 14.3167C59.9482 14.3112 59.9508 14.306 59.9534 14.3012C59.9589 14.2909 59.9627 14.2862 59.9618 14.2874L64.6747 18.0006C65.5382 16.9046 65.9423 15.6143 65.9423 14.272H59.9423ZM59.9899 14.2522C59.9732 14.2728 59.9106 14.3505 59.6702 14.4325L61.6063 20.1115C62.7739 19.7135 63.8313 19.0392 64.6466 18.0358L59.9899 14.2522ZM59.8294 20.1609C60.1047 20.238 60.2635 20.3495 60.3914 20.4928L64.8691 16.4992C63.941 15.4585 62.7718 14.754 61.4471 14.3831L59.8294 20.1609ZM60.4213 20.5259C60.4289 20.5342 60.4294 20.5361 60.427 20.5322C60.4246 20.5282 60.4238 20.5258 60.4246 20.5281C60.4253 20.5298 60.4462 20.5858 60.4462 20.728H66.4462C66.4462 19.1731 65.9515 17.6766 64.8392 16.4661L60.4213 20.5259ZM60.4462 20.728C60.4462 21.4422 60.2528 21.5996 60.0377 21.7391L63.3028 26.7729C65.4557 25.3764 66.4462 23.1818 66.4462 20.728H60.4462ZM60.0462 21.7336C59.57 22.0402 58.5484 22.384 56.6063 22.384V28.384C59.0801 28.384 61.4345 27.9758 63.2943 26.7784L60.0462 21.7336ZM78.5216 10.888L77.0006 8.3022L76.103 8.83016L75.7256 9.80066L78.5216 10.888ZM79.7456 10.432L78.9985 7.52652L78.9882 7.52917L78.978 7.53188L79.7456 10.432ZM83.5376 10.576L82.4361 13.3665L82.4798 13.3837L82.524 13.3996L83.5376 10.576ZM84.7376 11.656L87.5726 10.6747L87.5688 10.6637L87.5649 10.6528L84.7376 11.656ZM85.6736 14.56L88.5437 13.6865L88.5437 13.6865L85.6736 14.56ZM86.6816 17.992L83.7956 18.811L83.7986 18.8214L86.6816 17.992ZM87.6656 21.472L84.7751 22.2749L84.778 22.2854L87.6656 21.472ZM88.5056 24.496L90.7834 26.4484L91.8184 25.2409L91.3999 23.7066L88.5056 24.496ZM87.6416 25.024L86.6929 22.178L86.6403 22.1955L86.5883 22.215L87.6416 25.024ZM85.2896 25.144L84.562 28.0544L84.5822 28.0595L84.6025 28.0643L85.2896 25.144ZM84.6416 24.856L82.7675 27.1986L82.8214 27.2417L82.8771 27.2822L84.6416 24.856ZM84.2336 24.352L81.5098 25.6092L81.5484 25.693L81.5922 25.7743L84.2336 24.352ZM83.9696 23.632L81.0668 24.3893L81.0785 24.4341L81.0915 24.4785L83.9696 23.632ZM83.5376 21.976L86.4405 21.2187L85.8554 18.976H83.5376V21.976ZM79.1936 21.976V18.976H76.8888L76.2949 21.203L79.1936 21.976ZM78.8096 23.464L75.8992 22.7364L75.8992 22.7364L78.8096 23.464ZM78.4256 24.952L79.4346 27.7772L80.9184 27.2473L81.3243 25.725L78.4256 24.952ZM77.7056 25.144L77.1528 22.1954L77.0418 22.2162L76.9326 22.2453L77.7056 25.144ZM74.9936 24.832L73.1936 27.232L73.2492 27.2737L73.3067 27.3128L74.9936 24.832ZM74.5136 22.984L77.3982 23.8082L77.3982 23.8082L74.5136 22.984ZM74.7296 22.192L77.6309 22.9555L77.6336 22.9449L74.7296 22.192ZM75.1856 20.584L72.3325 19.6567L72.322 19.6892L72.3122 19.722L75.1856 20.584ZM75.8576 18.52L78.7098 19.4501L78.7127 19.4411L78.7156 19.4321L75.8576 18.52ZM76.6256 16.216L79.4599 17.1993L79.4599 17.1993L76.6256 16.216ZM77.3936 14.008L80.2262 14.9961L80.2297 14.9861L80.2332 14.976L77.3936 14.008ZM78.0416 12.136L75.2395 11.0646L75.2256 11.1009L75.2127 11.1375L78.0416 12.136ZM81.4016 13.984V10.984H79.2394L78.5556 13.0353L81.4016 13.984ZM80.6336 16.24L77.7987 15.2587L77.793 15.275L77.7876 15.2913L80.6336 16.24ZM79.8896 18.736L76.9891 17.9698L75.9943 21.736H79.8896V18.736ZM82.8656 18.736V21.736H86.7426L85.7696 17.9831L82.8656 18.736ZM82.1696 16.216L79.2728 16.9959L79.2818 17.0293L79.2915 17.0625L82.1696 16.216ZM81.5456 13.984L84.4248 13.1413L83.7934 10.984H81.5456V13.984ZM80.0427 13.4738C79.9831 13.5089 79.9823 13.5013 80.079 13.4652C80.1693 13.4316 80.3102 13.3859 80.5133 13.3321L78.978 7.53188C78.3416 7.70033 77.6237 7.93565 77.0006 8.3022L80.0427 13.4738ZM80.4928 13.3375C80.8166 13.2542 81.1258 13.216 81.4256 13.216V7.216C80.6055 7.216 79.7946 7.32181 78.9985 7.52652L80.4928 13.3375ZM81.4256 13.216C81.9304 13.216 82.2477 13.2921 82.4361 13.3665L84.6391 7.78553C83.6115 7.3799 82.5208 7.216 81.4256 7.216V13.216ZM82.524 13.3996C82.552 13.4096 82.4468 13.3772 82.2987 13.2439C82.1361 13.0975 81.9933 12.893 81.9103 12.6592L87.5649 10.6528C87.0121 9.0948 85.7826 8.19445 84.5512 7.75242L82.524 13.3996ZM81.9027 12.6373C82.1752 13.4246 82.4755 14.3553 82.8036 15.4335L88.5437 13.6865C88.1998 12.5567 87.8761 11.5514 87.5726 10.6747L81.9027 12.6373ZM82.8036 15.4335C83.1337 16.5182 83.4644 17.644 83.7956 18.811L89.5677 17.173C89.2268 15.972 88.8855 14.8098 88.5437 13.6865L82.8036 15.4335ZM83.7986 18.8214C84.1321 19.9807 84.4576 21.1319 84.7751 22.2749L90.5562 20.6691C90.2337 19.5081 89.9032 18.3393 89.5647 17.1626L83.7986 18.8214ZM84.778 22.2854C85.0964 23.4156 85.3741 24.4153 85.6113 25.2854L91.3999 23.7066C91.1572 22.8167 90.8749 21.8004 90.5533 20.6586L84.778 22.2854ZM86.2279 22.5436C86.4978 22.2288 86.7454 22.1605 86.6929 22.178L88.5903 27.87C89.3059 27.6315 90.1295 27.2112 90.7834 26.4484L86.2279 22.5436ZM86.5883 22.215C86.6224 22.2022 86.5403 22.24 86.2736 22.24V28.24C87.0629 28.24 87.8929 28.1338 88.695 27.833L86.5883 22.215ZM86.2736 22.24C86.1635 22.24 86.0839 22.2353 86.0309 22.2302C85.9773 22.2249 85.9618 22.2202 85.9767 22.2237L84.6025 28.0643C85.1658 28.1968 85.7377 28.24 86.2736 28.24V22.24ZM86.0172 22.2336C86.0574 22.2436 86.2122 22.2888 86.4061 22.4298L82.8771 27.2822C83.423 27.6792 84.0098 27.9164 84.562 28.0544L86.0172 22.2336ZM86.5157 22.5134C86.7153 22.673 86.8248 22.8363 86.875 22.9297L81.5922 25.7743C81.8665 26.2837 82.248 26.783 82.7675 27.1986L86.5157 22.5134ZM86.9575 23.0948C86.9353 23.0466 86.8957 22.9486 86.8477 22.7855L81.0915 24.4785C81.2036 24.8594 81.34 25.2414 81.5098 25.6092L86.9575 23.0948ZM86.8725 22.8747L86.4405 21.2187L80.6348 22.7333L81.0668 24.3893L86.8725 22.8747ZM83.5376 18.976H79.1936V24.976H83.5376V18.976ZM76.2949 21.203C76.1627 21.699 76.0308 22.2102 75.8992 22.7364L81.7201 24.1916C81.8445 23.6938 81.9686 23.213 82.0923 22.749L76.2949 21.203ZM75.8992 22.7364C75.7748 23.2342 75.6507 23.715 75.5269 24.179L81.3243 25.725C81.4566 25.229 81.5885 24.7178 81.7201 24.1916L75.8992 22.7364ZM77.4166 22.1268C77.3544 22.149 77.2682 22.1737 77.1528 22.1954L78.2585 28.0926C78.6551 28.0183 79.0488 27.915 79.4346 27.7772L77.4166 22.1268ZM76.9326 22.2453C76.9861 22.231 77.0059 22.2307 76.9812 22.2334C76.9575 22.2359 76.9047 22.24 76.8176 22.24V28.24C77.3315 28.24 77.9059 28.1954 78.4786 28.0427L76.9326 22.2453ZM76.8176 22.24C76.6959 22.24 76.601 22.2349 76.5299 22.2281C76.4584 22.2213 76.4184 22.2134 76.4045 22.2103C76.3905 22.2072 76.4115 22.2107 76.4582 22.2297C76.5055 22.2488 76.5845 22.2859 76.6806 22.3512L73.3067 27.3128C74.4411 28.0841 75.7702 28.24 76.8176 28.24V22.24ZM76.7936 22.432C76.9424 22.5436 77.1231 22.7315 77.2558 23.0024C77.3869 23.27 77.4176 23.5092 77.4176 23.656H71.4176C71.4176 25.0593 72.0251 26.3556 73.1936 27.232L76.7936 22.432ZM77.4176 23.656C77.4176 23.7217 77.4077 23.7749 77.3982 23.8082L71.6291 22.1598C71.4916 22.6411 71.4176 23.1423 71.4176 23.656H77.4176ZM77.3982 23.8082C77.4696 23.5584 77.5472 23.2733 77.6309 22.9555L71.8284 21.4285C71.752 21.7187 71.6857 21.9616 71.6291 22.1598L77.3982 23.8082ZM77.6336 22.9449C77.7327 22.5626 77.8732 22.0657 78.0591 21.446L72.3122 19.722C72.1141 20.3823 71.9505 20.9574 71.8256 21.4391L77.6336 22.9449ZM78.0387 21.5113C78.2464 20.8723 78.4701 20.1853 78.7098 19.4501L73.0054 17.5899C72.7652 18.3267 72.5409 19.0157 72.3325 19.6567L78.0387 21.5113ZM78.7156 19.4321C78.9476 18.7051 79.1957 17.9609 79.4599 17.1993L73.7914 15.2327C73.5116 16.0391 73.2476 16.8309 72.9997 17.6079L78.7156 19.4321ZM79.4599 17.1993C79.7314 16.4167 79.9869 15.6823 80.2262 14.9961L74.561 13.0199C74.3204 13.7097 74.0638 14.4473 73.7914 15.2327L79.4599 17.1993ZM80.2332 14.976C80.4706 14.2795 80.683 13.6659 80.8706 13.1345L75.2127 11.1375C75.0162 11.6941 74.7966 12.3285 74.5541 13.04L80.2332 14.976ZM80.8438 13.2074C81.0512 12.665 81.2088 12.2553 81.3176 11.9753L75.7256 9.80066C75.6105 10.0967 75.4481 10.519 75.2395 11.0646L80.8438 13.2074ZM78.5556 13.0353C78.336 13.6942 78.0838 14.435 77.7987 15.2587L83.4686 17.2213C83.7595 16.381 84.0193 15.6178 84.2477 14.9327L78.5556 13.0353ZM77.7876 15.2913C77.4951 16.1687 77.229 17.0616 76.9891 17.9698L82.7901 19.5022C82.9982 18.7144 83.2282 17.9433 83.4797 17.1887L77.7876 15.2913ZM79.8896 21.736H82.8656V15.736H79.8896V21.736ZM85.7696 17.9831C85.5379 17.0893 85.2973 16.218 85.0477 15.3695L79.2915 17.0625C79.522 17.846 79.7454 18.6547 79.9616 19.4889L85.7696 17.9831ZM85.0665 15.4361C84.8382 14.5882 84.6243 13.8227 84.4248 13.1413L78.6664 14.8267C78.851 15.4573 79.0531 16.1798 79.2728 16.9959L85.0665 15.4361ZM81.5456 10.984H81.4016V16.984H81.5456V10.984ZM104.296 19.6L106.571 17.6442L101.296 11.5089V19.6H104.296ZM104.296 24.904L105.086 27.7983L107.296 27.1954V24.904H104.296ZM103.456 25.048L103.829 28.0248L103.829 28.0248L103.456 25.048ZM101.344 25.024L101.995 22.0954L101.931 22.0811L101.866 22.0696L101.344 25.024ZM100.648 24.736L102.448 22.336L100.648 24.736ZM100.216 24.136L103.025 23.0826L103.025 23.0826L100.216 24.136ZM100.072 10.456L99.5358 7.50439L97.0725 7.95227V10.456H100.072ZM100.912 10.336L101.285 13.3128L101.345 13.3052L101.406 13.2952L100.912 10.336ZM102.976 10.336L102.289 13.2563L102.386 13.2789L102.483 13.2952L102.976 10.336ZM103.696 10.624L105.496 8.224L105.496 8.224L103.696 10.624ZM104.272 16.048H101.272V24.0649L106.535 18.0175L104.272 16.048ZM109.264 10.312V7.312H107.898L107.001 8.34253L109.264 10.312ZM111.592 10.936L109.59 13.1697L109.63 13.2059L109.672 13.2407L111.592 10.936ZM112 13.552L109.389 12.0758L109.389 12.0758L112 13.552ZM110.992 14.8L108.871 12.6787L108.871 12.6787L110.992 14.8ZM107.992 17.8L105.871 15.6787L103.867 17.6833L105.755 19.798L107.992 17.8ZM109.24 19.192L107.011 21.1989L107.029 21.2191L107.047 21.239L109.24 19.192ZM110.536 20.608L108.303 22.6106L108.339 22.6512L108.377 22.6904L110.536 20.608ZM111.76 21.904L109.556 23.9388L109.577 23.9613L109.598 23.9833L111.76 21.904ZM112.792 22.984H115.792V21.7886L114.97 20.9208L112.792 22.984ZM112.6 23.92L109.886 22.6426L109.886 22.6426L112.6 23.92ZM112.072 24.616L110.12 22.3382L110.078 22.3742L110.038 22.4116L112.072 24.616ZM111.352 25.048L112.351 27.877L112.351 27.877L111.352 25.048ZM108.88 24.712L106.995 27.0458L107.023 27.0682L107.051 27.0899L108.88 24.712ZM107.68 23.536L109.958 21.5836L109.955 21.5802L107.68 23.536ZM101.296 19.6V24.904H107.296V19.6H101.296ZM103.507 22.0097C103.548 21.9984 103.539 22.0035 103.448 22.0191C103.365 22.0333 103.246 22.0509 103.084 22.0712L103.829 28.0248C104.234 27.9742 104.692 27.9057 105.086 27.7983L103.507 22.0097ZM103.084 22.0712C102.818 22.1045 102.566 22.12 102.328 22.12V28.12C102.827 28.12 103.327 28.0875 103.829 28.0248L103.084 22.0712ZM102.328 22.12C102.128 22.12 102.025 22.102 101.995 22.0954L100.694 27.9526C101.24 28.074 101.793 28.12 102.328 28.12V22.12ZM101.866 22.0696C101.987 22.0911 102.211 22.1575 102.448 22.336L98.8485 27.136C99.4704 27.6025 100.158 27.8609 100.823 27.9784L101.866 22.0696ZM102.448 22.336C102.776 22.5814 102.949 22.8793 103.025 23.0826L97.4075 25.1894C97.6758 25.9047 98.1373 26.6026 98.8485 27.136L102.448 22.336ZM103.025 23.0826C103.048 23.143 103.061 23.1901 103.068 23.2199C103.076 23.2498 103.078 23.2666 103.078 23.2677C103.079 23.269 103.077 23.2583 103.075 23.2339C103.074 23.2097 103.072 23.1747 103.072 23.128H97.0725C97.0725 23.7356 97.1372 24.4686 97.4075 25.1894L103.025 23.0826ZM103.072 23.128V10.456H97.0725V23.128H103.072ZM100.609 13.4076C100.698 13.3915 100.908 13.3599 101.285 13.3128L100.54 7.35917C100.149 7.40805 99.7992 7.4565 99.5358 7.50439L100.609 13.4076ZM101.406 13.2952C101.644 13.2555 101.846 13.24 102.016 13.24V7.24C101.483 7.24 100.949 7.28847 100.419 7.37682L101.406 13.2952ZM102.016 13.24C102.115 13.24 102.186 13.2443 102.234 13.2491C102.282 13.2539 102.299 13.2585 102.289 13.2563L103.664 7.41575C103.108 7.28512 102.548 7.24 102.016 7.24V13.24ZM102.483 13.2952C102.399 13.2811 102.164 13.2243 101.896 13.024L105.496 8.224C104.845 7.73565 104.13 7.48693 103.47 7.37682L102.483 13.2952ZM101.896 13.024C101.569 12.7786 101.396 12.4807 101.32 12.2774L106.937 10.1706C106.669 9.45527 106.208 8.75741 105.496 8.224L101.896 13.024ZM101.32 12.2774C101.297 12.217 101.284 12.1699 101.276 12.1401C101.269 12.1102 101.267 12.0934 101.267 12.0923C101.266 12.091 101.268 12.1017 101.27 12.1261C101.271 12.1503 101.272 12.1853 101.272 12.232H107.272C107.272 11.6244 107.208 10.8914 106.937 10.1706L101.32 12.2774ZM101.272 12.232V16.048H107.272V12.232H101.272ZM106.535 18.0175L111.527 12.2815L107.001 8.34253L102.009 14.0785L106.535 18.0175ZM109.264 13.312C109.442 13.312 109.583 13.3206 109.689 13.3325C109.797 13.3445 109.859 13.3586 109.886 13.3657C109.946 13.3819 109.795 13.3538 109.59 13.1697L113.595 8.70229C112.296 7.53734 110.589 7.312 109.264 7.312V13.312ZM109.672 13.2407C109.646 13.2188 109.542 13.1236 109.449 12.9376C109.352 12.7428 109.312 12.5409 109.312 12.376H115.312C115.312 10.8156 114.588 9.5269 113.513 8.63134L109.672 13.2407ZM109.312 12.376C109.312 12.331 109.319 12.2741 109.335 12.2127C109.351 12.1515 109.372 12.1048 109.389 12.0758L114.612 15.0282C115.07 14.2174 115.312 13.318 115.312 12.376H109.312ZM109.389 12.0758C109.367 12.1152 109.237 12.3133 108.871 12.6787L113.114 16.9213C113.676 16.3587 114.218 15.7248 114.612 15.0282L109.389 12.0758ZM108.871 12.6787L105.871 15.6787L110.114 19.9213L113.114 16.9213L108.871 12.6787ZM105.755 19.798C106.158 20.2492 106.576 20.7162 107.011 21.1989L111.47 17.1851C111.041 16.7078 110.627 16.2468 110.23 15.802L105.755 19.798ZM107.047 21.239C107.482 21.7051 107.901 22.1623 108.303 22.6106L112.77 18.6054C112.34 18.1257 111.895 17.6389 111.434 17.145L107.047 21.239ZM108.377 22.6904C108.795 23.1242 109.188 23.5403 109.556 23.9388L113.965 19.8692C113.565 19.4357 113.142 18.9878 112.696 18.5256L108.377 22.6904ZM109.598 23.9833C109.995 24.3958 110.333 24.7502 110.615 25.0472L114.97 20.9208C114.676 20.6098 114.326 20.2442 113.923 19.8247L109.598 23.9833ZM109.792 22.984C109.792 22.9693 109.796 22.8329 109.886 22.6426L115.315 25.1974C115.661 24.4631 115.792 23.7027 115.792 22.984H109.792ZM109.886 22.6426C109.935 22.5385 110.016 22.4274 110.12 22.3382L114.025 26.8938C114.577 26.4206 115.01 25.8455 115.315 25.1974L109.886 22.6426ZM110.038 22.4116C110.135 22.3218 110.249 22.256 110.354 22.219L112.351 27.877C113 27.648 113.594 27.2942 114.107 26.8204L110.038 22.4116ZM110.354 22.219C110.384 22.2083 110.414 22.2011 110.439 22.1968C110.465 22.1926 110.482 22.192 110.488 22.192V28.192C111.114 28.192 111.741 28.0922 112.351 27.877L110.354 22.219ZM110.488 22.192C110.402 22.192 110.399 22.1813 110.453 22.1973C110.513 22.2153 110.608 22.2562 110.71 22.3341L107.051 27.0899C108.111 27.9051 109.339 28.192 110.488 28.192V22.192ZM110.766 22.3782C110.506 22.1682 110.235 21.9068 109.958 21.5836L105.403 25.4884C105.894 26.0612 106.423 26.5838 106.995 27.0458L110.766 22.3782ZM109.955 21.5802L106.571 17.6442L102.022 21.5558L105.406 25.4918L109.955 21.5802ZM5.41303 48.888L3.89197 46.3022L2.99443 46.8302L2.61702 47.8007L5.41303 48.888ZM6.63703 48.432L5.88991 45.5265L5.87962 45.5292L5.86935 45.5319L6.63703 48.432ZM10.429 48.576L9.32753 51.3665L9.37122 51.3837L9.41544 51.3996L10.429 48.576ZM11.629 49.656L14.464 48.6747L14.4602 48.6637L14.4563 48.6528L11.629 49.656ZM12.565 52.56L15.4351 51.6865L15.4351 51.6865L12.565 52.56ZM13.573 55.992L10.687 56.811L10.69 56.8214L13.573 55.992ZM14.557 59.472L11.6665 60.2749L11.6694 60.2854L14.557 59.472ZM15.397 62.496L17.6748 64.4484L18.7098 63.2409L18.2913 61.7066L15.397 62.496ZM14.533 63.024L13.5843 60.178L13.5317 60.1955L13.4797 60.215L14.533 63.024ZM12.181 63.144L11.4534 66.0544L11.4736 66.0595L11.4939 66.0643L12.181 63.144ZM11.533 62.856L9.65894 65.1986L9.71277 65.2417L9.76852 65.2822L11.533 62.856ZM11.125 62.352L8.40115 63.6092L8.43984 63.693L8.48362 63.7743L11.125 62.352ZM10.861 61.632L7.95818 62.3893L7.96987 62.4341L7.98293 62.4785L10.861 61.632ZM10.429 59.976L13.3319 59.2187L12.7468 56.976H10.429V59.976ZM6.08503 59.976V56.976H3.7802L3.18633 59.203L6.08503 59.976ZM5.70103 61.464L2.7906 60.7364L2.7906 60.7364L5.70103 61.464ZM5.31703 62.952L6.32604 65.7772L7.80978 65.2473L8.21574 63.725L5.31703 62.952ZM4.59703 63.144L4.04416 60.1954L3.93316 60.2162L3.82404 60.2453L4.59703 63.144ZM1.88503 62.832L0.0850304 65.232L0.14063 65.2737L0.1981 65.3128L1.88503 62.832ZM1.40503 60.984L4.2896 61.8082L4.2896 61.8082L1.40503 60.984ZM1.62103 60.192L4.52227 60.9555L4.52502 60.9449L1.62103 60.192ZM2.07703 58.584L-0.776072 57.6567L-0.786631 57.6892L-0.796448 57.722L2.07703 58.584ZM2.74903 56.52L5.60122 57.4501L5.60414 57.4411L5.60701 57.4321L2.74903 56.52ZM3.51703 54.216L6.3513 55.1993L6.3513 55.1993L3.51703 54.216ZM4.28503 52.008L7.11763 52.9961L7.12113 52.9861L7.12456 52.976L4.28503 52.008ZM4.93303 50.136L2.13088 49.0646L2.11699 49.1009L2.10406 49.1375L4.93303 50.136ZM8.29303 51.984V48.984H6.13075L5.44698 51.0353L8.29303 51.984ZM7.52503 54.24L4.69007 53.2587L4.68443 53.275L4.67898 53.2913L7.52503 54.24ZM6.78103 56.736L3.88052 55.9698L2.88568 59.736H6.78103V56.736ZM9.75703 56.736V59.736H13.634L12.661 55.9831L9.75703 56.736ZM9.06103 54.216L6.16418 54.9959L6.17317 55.0293L6.18293 55.0625L9.06103 54.216ZM8.43703 51.984L11.3162 51.1413L10.6848 48.984H8.43703V51.984ZM6.93409 51.4738C6.87446 51.5089 6.87365 51.5013 6.97036 51.4652C7.0607 51.4316 7.20159 51.3859 7.40471 51.3321L5.86935 45.5319C5.23301 45.7003 4.51509 45.9357 3.89197 46.3022L6.93409 51.4738ZM7.38415 51.3375C7.70804 51.2542 8.01715 51.216 8.31703 51.216V45.216C7.49691 45.216 6.68602 45.3218 5.88991 45.5265L7.38415 51.3375ZM8.31703 51.216C8.82185 51.216 9.13913 51.2921 9.32753 51.3665L11.5305 45.7855C10.5029 45.3799 9.41222 45.216 8.31703 45.216V51.216ZM9.41544 51.3996C9.44338 51.4096 9.33824 51.3772 9.19014 51.2439C9.02751 51.0975 8.88469 50.893 8.80175 50.6592L14.4563 48.6528C13.9035 47.0948 12.674 46.1944 11.4426 45.7524L9.41544 51.3996ZM8.79407 50.6373C9.0666 51.4246 9.36686 52.3553 9.69501 53.4335L15.4351 51.6865C15.0912 50.5567 14.7675 49.5514 14.464 48.6747L8.79407 50.6373ZM9.69501 53.4335C10.0251 54.5182 10.3558 55.644 10.687 56.811L16.4591 55.173C16.1182 53.972 15.7769 52.8098 15.4351 51.6865L9.69501 53.4335ZM10.69 56.8214C11.0235 57.9807 11.349 59.1319 11.6665 60.2749L17.4476 58.6691C17.1251 57.5081 16.7946 56.3393 16.4561 55.1626L10.69 56.8214ZM11.6694 60.2854C11.9878 61.4156 12.2655 62.4153 12.5027 63.2854L18.2913 61.7066C18.0486 60.8167 17.7663 59.8004 17.4447 58.6586L11.6694 60.2854ZM13.1193 60.5436C13.3892 60.2288 13.6368 60.1605 13.5843 60.178L15.4817 65.87C16.1973 65.6315 17.0209 65.2112 17.6748 64.4484L13.1193 60.5436ZM13.4797 60.215C13.5138 60.2022 13.4317 60.24 13.165 60.24V66.24C13.9543 66.24 14.7843 66.1338 15.5864 65.833L13.4797 60.215ZM13.165 60.24C13.0549 60.24 12.9753 60.2353 12.9223 60.2302C12.8687 60.2249 12.8532 60.2202 12.8681 60.2237L11.4939 66.0643C12.0572 66.1968 12.6291 66.24 13.165 66.24V60.24ZM12.9086 60.2336C12.9488 60.2436 13.1036 60.2888 13.2975 60.4298L9.76852 65.2822C10.3144 65.6792 10.9012 65.9164 11.4534 66.0544L12.9086 60.2336ZM13.4071 60.5134C13.6067 60.673 13.7162 60.8363 13.7664 60.9297L8.48362 63.7743C8.75789 64.2837 9.13938 64.783 9.65894 65.1986L13.4071 60.5134ZM13.8489 61.0948C13.8267 61.0466 13.7871 60.9486 13.7391 60.7855L7.98293 62.4785C8.09497 62.8594 8.2314 63.2414 8.40115 63.6092L13.8489 61.0948ZM13.7639 60.8747L13.3319 59.2187L7.52618 60.7333L7.95818 62.3893L13.7639 60.8747ZM10.429 56.976H6.08503V62.976H10.429V56.976ZM3.18633 59.203C3.05406 59.699 2.92216 60.2102 2.7906 60.7364L8.61146 62.1916C8.7359 61.6938 8.86 61.213 8.98374 60.749L3.18633 59.203ZM2.7906 60.7364C2.66616 61.2342 2.54206 61.715 2.41833 62.179L8.21574 63.725C8.348 63.229 8.4799 62.7178 8.61146 62.1916L2.7906 60.7364ZM4.30802 60.1268C4.24582 60.149 4.15956 60.1737 4.04416 60.1954L5.1499 66.0926C5.5465 66.0183 5.94024 65.915 6.32604 65.7772L4.30802 60.1268ZM3.82404 60.2453C3.87748 60.231 3.89733 60.2307 3.87258 60.2334C3.84886 60.2359 3.7961 60.24 3.70903 60.24V66.24C4.22292 66.24 4.79733 66.1954 5.37002 66.0427L3.82404 60.2453ZM3.70903 60.24C3.5873 60.24 3.49236 60.2349 3.42125 60.2281C3.34979 60.2213 3.30976 60.2134 3.2959 60.2103C3.28187 60.2072 3.30286 60.2107 3.34961 60.2297C3.39693 60.2488 3.47589 60.2859 3.57196 60.3512L0.1981 65.3128C1.33246 66.0841 2.66159 66.24 3.70903 66.24V60.24ZM3.68503 60.432C3.83382 60.5436 4.01454 60.7315 4.14722 61.0024C4.27828 61.27 4.30903 61.5092 4.30903 61.656H-1.69097C-1.69097 63.0593 -1.08347 64.3556 0.0850304 65.232L3.68503 60.432ZM4.30903 61.656C4.30903 61.7217 4.2991 61.7749 4.2896 61.8082L-1.47954 60.1598C-1.61704 60.6411 -1.69097 61.1423 -1.69097 61.656H4.30903ZM4.2896 61.8082C4.36095 61.5584 4.43862 61.2733 4.52225 60.9555L-1.28019 59.4285C-1.35656 59.7187 -1.42289 59.9616 -1.47954 60.1598L4.2896 61.8082ZM4.52502 60.9449C4.62414 60.5626 4.76461 60.0657 4.95051 59.446L-0.796448 57.722C-0.99455 58.3823 -1.15808 58.9574 -1.28296 59.4391L4.52502 60.9449ZM4.93013 59.5113C5.13779 58.8723 5.36148 58.1853 5.60122 57.4501L-0.103159 55.5899C-0.34342 56.3267 -0.567727 57.0157 -0.776072 57.6567L4.93013 59.5113ZM5.60701 57.4321C5.83903 56.7051 6.08708 55.9609 6.3513 55.1993L0.682761 53.2327C0.402977 54.0391 0.139034 54.8309 -0.108947 55.6079L5.60701 57.4321ZM6.3513 55.1993C6.62282 54.4167 6.87826 53.6823 7.11763 52.9961L1.45243 51.0199C1.2118 51.7097 0.955241 52.4473 0.682761 53.2327L6.3513 55.1993ZM7.12456 52.976C7.36203 52.2795 7.57442 51.6659 7.762 51.1345L2.10406 49.1375C1.90764 49.6941 1.68803 50.3285 1.4455 51.04L7.12456 52.976ZM7.73519 51.2074C7.94259 50.665 8.10018 50.2553 8.20904 49.9753L2.61702 47.8007C2.50188 48.0967 2.33947 48.519 2.13088 49.0646L7.73519 51.2074ZM5.44698 51.0353C5.22736 51.6942 4.97517 52.435 4.69007 53.2587L10.36 55.2213C10.6509 54.381 10.9107 53.6178 11.1391 52.9327L5.44698 51.0353ZM4.67898 53.2913C4.38651 54.1687 4.12042 55.0616 3.88052 55.9698L9.68154 57.5022C9.88964 56.7144 10.1196 55.9433 10.3711 55.1887L4.67898 53.2913ZM6.78103 59.736H9.75703V53.736H6.78103V59.736ZM12.661 55.9831C12.4293 55.0893 12.1887 54.218 11.9391 53.3695L6.18293 55.0625C6.41336 55.846 6.63677 56.6547 6.85304 57.4889L12.661 55.9831ZM11.9579 53.4361C11.7296 52.5882 11.5157 51.8227 11.3162 51.1413L5.55782 52.8267C5.74239 53.4573 5.94446 54.1798 6.16418 54.9959L11.9579 53.4361ZM8.43703 48.984H8.29303V54.984H8.43703V48.984ZM40.1399 62.496L42.2612 64.6173L43.1399 63.7386V62.496H40.1399ZM39.1559 63L38.403 60.096L38.3379 60.1129L38.2736 60.1327L39.1559 63ZM34.6679 61.656L31.974 62.9763L31.9793 62.987L31.9846 62.9976L34.6679 61.656ZM32.2919 56.808L29.5914 58.1147L29.5947 58.1215L29.598 58.1283L32.2919 56.808ZM31.6439 55.416L28.8865 56.5978L28.8943 56.6161L28.9025 56.6344L31.6439 55.416ZM31.0199 53.88L33.8159 52.7927L32.9321 50.5199L30.5267 50.9208L31.0199 53.88ZM30.8759 53.904L30.3827 50.9448L27.6818 51.395L27.8841 54.1256L30.8759 53.904ZM30.9719 56.544H27.9719V56.5708L27.9724 56.5976L30.9719 56.544ZM30.9959 62.904L31.7853 65.7983L33.9959 65.1954V62.904H30.9959ZM30.1799 63.048L29.7919 60.0732L29.7832 60.0743L29.7746 60.0755L30.1799 63.048ZM28.1879 63.048L27.6665 66.0024L27.6665 66.0024L28.1879 63.048ZM27.5159 62.76L29.4156 60.4381L27.5159 62.76ZM27.1079 62.184L24.2989 63.2374L24.3104 63.2679L24.3225 63.2982L27.1079 62.184ZM26.9639 49.2L24.5062 47.4796L23.9639 48.2543V49.2H26.9639ZM27.9959 48.48L28.9739 51.3161L28.9739 51.3161L27.9959 48.48ZM31.1639 48.528L30.1387 51.3474L30.1892 51.3658L30.2404 51.3823L31.1639 48.528ZM32.4599 49.776L29.7636 51.0913L29.7674 51.0991L29.7713 51.107L32.4599 49.776ZM34.8599 54.624L37.5604 53.3173L37.5545 53.3051L37.5485 53.293L34.8599 54.624ZM35.5079 56.04L32.7505 57.2218L32.7583 57.2401L32.7665 57.2584L35.5079 56.04ZM36.1319 57.552L33.3359 58.6393L34.2492 60.9879L36.7203 60.4937L36.1319 57.552ZM36.2519 57.528L36.8403 60.4697L39.4395 59.9499L39.2437 57.3064L36.2519 57.528ZM36.1319 54.936L33.1324 54.9915L33.1324 54.9915L36.1319 54.936ZM36.1079 48.456L35.3185 45.5617L33.1079 46.1646V48.456H36.1079ZM36.8999 48.312L36.5119 45.3372L36.5032 45.3383L36.4946 45.3395L36.8999 48.312ZM39.5879 48.624L37.8747 51.0867L37.9115 51.1123L37.9491 51.1368L39.5879 48.624ZM38.0186 60.3747C38.1604 60.2329 38.2884 60.1557 38.3583 60.1199C38.4259 60.0852 38.4491 60.0841 38.403 60.096L39.9088 65.904C40.6576 65.7099 41.5352 65.3434 42.2612 64.6173L38.0186 60.3747ZM38.2736 60.1327C38.2254 60.1475 38.0367 60.192 37.6439 60.192V66.192C38.4351 66.192 39.2544 66.1085 40.0382 65.8673L38.2736 60.1327ZM37.6439 60.192C37.3537 60.192 37.1157 60.1497 36.9126 60.082L35.0152 65.774C35.8681 66.0583 36.7501 66.192 37.6439 66.192V60.192ZM36.9126 60.082C37.1184 60.1506 37.2647 60.2578 37.3453 60.3369C37.4154 60.4057 37.4051 60.4223 37.3512 60.3144L31.9846 62.9976C32.5484 64.1252 33.4983 65.2684 35.0152 65.774L36.9126 60.082ZM37.3618 60.3357L34.9858 55.4877L29.598 58.1283L31.974 62.9763L37.3618 60.3357ZM34.9924 55.5013C34.7643 55.0299 34.5622 54.5956 34.3853 54.1976L28.9025 56.6344C29.1096 57.1004 29.3395 57.5941 29.5914 58.1147L34.9924 55.5013ZM34.4013 54.2342C34.2257 53.8244 34.0307 53.3449 33.8159 52.7927L28.2239 54.9673C28.4571 55.5671 28.6781 56.1116 28.8865 56.5978L34.4013 54.2342ZM30.5267 50.9208L30.3827 50.9448L31.3691 56.8632L31.5131 56.8392L30.5267 50.9208ZM27.8841 54.1256C27.9425 54.9134 27.9719 55.7194 27.9719 56.544H33.9719C33.9719 55.5766 33.9374 54.6226 33.8677 53.6824L27.8841 54.1256ZM27.9724 56.5976C27.9881 57.4764 27.9959 58.3385 27.9959 59.184H33.9959C33.9959 58.3015 33.9877 57.4036 33.9714 56.4904L27.9724 56.5976ZM27.9959 59.184V62.904H33.9959V59.184H27.9959ZM30.2066 60.0097C30.2394 60.0007 30.2251 60.0064 30.1385 60.0216C30.0589 60.0357 29.9453 60.0532 29.7919 60.0732L30.5679 66.0228C30.9629 65.9713 31.4027 65.9026 31.7853 65.7983L30.2066 60.0097ZM29.7746 60.0755C29.5557 60.1054 29.3391 60.12 29.1239 60.12V66.12C29.6127 66.12 30.1002 66.0866 30.5852 66.0205L29.7746 60.0755ZM29.1239 60.12C28.9017 60.12 28.7699 60.1043 28.7093 60.0936L27.6665 66.0024C28.1499 66.0877 28.6421 66.12 29.1239 66.12V60.12ZM28.7093 60.0936C28.8353 60.1159 29.1169 60.1937 29.4156 60.4381L25.6162 65.0819C26.2669 65.6143 26.9965 65.8841 27.6665 66.0024L28.7093 60.0936ZM29.4156 60.4381C29.6832 60.6571 29.8271 60.9041 29.8933 61.0698L24.3225 63.2982C24.5808 63.9439 24.9966 64.5749 25.6162 65.0819L29.4156 60.4381ZM29.9169 61.1306C29.9378 61.1864 29.9504 61.2307 29.9577 61.2603C29.965 61.2898 29.9677 61.3077 29.9683 61.3116C29.9691 61.3172 29.9639 61.2832 29.9639 61.2H23.9639C23.9639 61.8082 24.0325 62.527 24.2989 63.2374L29.9169 61.1306ZM29.9639 61.2V49.2H23.9639V61.2H29.9639ZM29.4216 50.9204C29.1986 51.239 28.9535 51.3231 28.9739 51.3161L27.0179 45.6439C26.1103 45.9569 25.1773 46.521 24.5062 47.4796L29.4216 50.9204ZM28.9739 51.3161C29.1002 51.2726 29.2635 51.24 29.4839 51.24V45.24C28.6483 45.24 27.8196 45.3674 27.0179 45.6439L28.9739 51.3161ZM29.4839 51.24C29.7452 51.24 29.9566 51.2812 30.1387 51.3474L32.1891 45.7086C31.3152 45.3908 30.4066 45.24 29.4839 45.24V51.24ZM30.2404 51.3823C30.0577 51.3232 29.9107 51.2251 29.815 51.133C29.7297 51.0508 29.7253 51.0127 29.7636 51.0913L35.1562 48.4607C34.5831 47.2859 33.6072 46.1654 32.0874 45.6737L30.2404 51.3823ZM29.7713 51.107L32.1713 55.955L37.5485 53.293L35.1485 48.445L29.7713 51.107ZM32.1594 55.9307C32.382 56.3907 32.5786 56.8208 32.7505 57.2218L38.2653 54.8582C38.0532 54.3632 37.8178 53.8493 37.5604 53.3173L32.1594 55.9307ZM32.7665 57.2584C32.9345 57.6364 33.1242 58.0949 33.3359 58.6393L38.9279 56.4647C38.6916 55.8571 38.4653 55.3076 38.2493 54.8216L32.7665 57.2584ZM36.7203 60.4937L36.8403 60.4697L35.6636 54.5863L35.5436 54.6103L36.7203 60.4937ZM39.2437 57.3064C39.1838 56.4975 39.1464 55.6889 39.1314 54.8805L33.1324 54.9915C33.1494 55.9111 33.192 56.8305 33.2601 57.7496L39.2437 57.3064ZM39.1314 54.8805C39.1157 54.035 39.1079 53.1895 39.1079 52.344H33.1079C33.1079 53.2265 33.1161 54.109 33.1324 54.9915L39.1314 54.8805ZM39.1079 52.344V48.456H33.1079V52.344H39.1079ZM36.8973 51.3503C36.8731 51.3569 36.892 51.3506 36.9746 51.3356C37.0516 51.3216 37.1601 51.3043 37.3052 51.2845L36.4946 45.3395C36.11 45.392 35.689 45.4607 35.3185 45.5617L36.8973 51.3503ZM37.2879 51.2868C37.5342 51.2547 37.7644 51.24 37.9799 51.24V45.24C37.4914 45.24 37.0016 45.2733 36.5119 45.3372L37.2879 51.2868ZM37.9799 51.24C38.0659 51.24 38.1278 51.244 38.1684 51.2481C38.2091 51.2523 38.2224 51.2562 38.2131 51.254C38.1977 51.2503 38.0597 51.2154 37.8747 51.0867L41.3011 46.1613C40.2178 45.4077 38.9731 45.24 37.9799 45.24V51.24ZM37.9491 51.1368C37.4661 50.8218 37.254 50.4123 37.1787 50.2026C37.1144 50.0238 37.1399 49.9746 37.1399 50.16H43.1399C43.1399 49.1446 42.9382 47.2274 41.2267 46.1112L37.9491 51.1368ZM37.1399 50.16V62.496H43.1399V50.16H37.1399ZM65.765 61.728L63.3458 59.9539L63.3458 59.9539L65.765 61.728ZM64.925 62.424L66.4134 65.0287L66.425 65.0221L66.4366 65.0153L64.925 62.424ZM64.085 62.808L65.0337 65.654L65.0938 65.634L65.153 65.6115L64.085 62.808ZM62.981 63.096L62.3926 60.1543L62.3365 60.1655L62.2808 60.1788L62.981 63.096ZM61.709 63.312L61.3894 60.329L61.3777 60.3303L61.709 63.312ZM57.173 62.928L56.2652 65.7874L56.2859 65.7939L56.3067 65.8002L57.173 62.928ZM54.533 61.512L52.5644 63.7758L52.5906 63.7986L52.6173 63.8207L54.533 61.512ZM52.781 59.136L50.053 60.3844L50.053 60.3844L52.781 59.136ZM52.829 52.416L50.1369 51.092L50.1281 51.1099L50.1196 51.1279L52.829 52.416ZM54.701 49.992L56.6215 52.2967L56.6261 52.2928L54.701 49.992ZM57.365 48.528L56.4572 45.6686L56.444 45.6729L57.365 48.528ZM64.061 48.792L62.5879 51.4055L62.616 51.4212L62.6443 51.4364L64.061 48.792ZM64.373 52.488L62.8295 55.0605L64.4329 56.0225L66.0027 55.0067L64.373 52.488ZM62.861 51.792L61.7339 54.5722L61.7786 54.5903L61.8239 54.607L62.861 51.792ZM57.629 52.584L55.5514 50.4198L55.5404 50.4303L55.5296 50.4409L57.629 52.584ZM56.765 57.696L53.9628 58.7674L53.9821 58.8179L54.0032 58.8676L56.765 57.696ZM57.653 59.016L55.5793 61.1839L55.6045 61.208L55.6302 61.2315L57.653 59.016ZM58.925 59.784L57.8922 62.6006L57.934 62.616L57.9763 62.63L58.925 59.784ZM61.397 59.928L60.7099 57.0077L60.7098 57.0077L61.397 59.928ZM62.021 59.712L63.4779 62.3345L65.021 61.4772V59.712H62.021ZM62.021 57.456H65.021V54.456H62.021V57.456ZM59.453 57.456L56.8193 58.8926L57.6721 60.456H59.453V57.456ZM59.165 56.76L56.2744 57.5629L56.2948 57.6364L56.3189 57.7087L59.165 56.76ZM59.429 54.6L57.3729 52.4154L57.3398 52.4465L57.3076 52.4787L59.429 54.6ZM65.621 54.624L63.4364 56.6801L63.4987 56.7463L63.5649 56.8086L65.621 54.624ZM63.029 60.624C63.029 60.7052 63.0207 60.6768 63.0452 60.5743C63.0699 60.4712 63.1429 60.2305 63.3458 59.9539L68.1842 63.5021C68.9152 62.5053 69.029 61.372 69.029 60.624H63.029ZM63.3458 59.9539C63.4314 59.8371 63.4994 59.7798 63.5089 59.7719C63.5193 59.7633 63.4937 59.7858 63.4134 59.8327L66.4366 65.0153C67.0165 64.6771 67.6754 64.1959 68.1842 63.5021L63.3458 59.9539ZM63.4366 59.8193C63.3882 59.8469 63.2598 59.912 63.017 60.0045L65.153 65.6115C65.5822 65.448 66.0137 65.2571 66.4134 65.0287L63.4366 59.8193ZM63.1363 59.962C62.9344 60.0292 62.6885 60.0951 62.3926 60.1543L63.5693 66.0377C64.0734 65.9369 64.5635 65.8108 65.0337 65.654L63.1363 59.962ZM62.2808 60.1788C62.0173 60.2421 61.7212 60.2935 61.3894 60.3291L62.0286 66.2949C62.5927 66.2345 63.1446 66.1419 63.6811 66.0132L62.2808 60.1788ZM61.3777 60.3303C61.055 60.3662 60.7336 60.384 60.413 60.384V66.384C60.9563 66.384 61.4989 66.3538 62.0403 66.2937L61.3777 60.3303ZM60.413 60.384C59.527 60.384 58.7412 60.2675 58.0392 60.0558L56.3067 65.8002C57.6208 66.1965 58.995 66.384 60.413 66.384V60.384ZM58.0807 60.0686C57.4105 59.8559 56.8796 59.5609 56.4487 59.2033L52.6173 63.8207C53.6903 64.7111 54.9194 65.3601 56.2652 65.7874L58.0807 60.0686ZM56.5015 59.2482C56.1086 58.9065 55.7747 58.4684 55.5089 57.8876L50.053 60.3844C50.6513 61.6916 51.4853 62.8375 52.5644 63.7758L56.5015 59.2482ZM55.5089 57.8876C55.2887 57.4064 55.133 56.7508 55.133 55.848H49.133C49.133 57.4412 49.4093 58.9776 50.053 60.3844L55.5089 57.8876ZM55.133 55.848C55.133 54.8879 55.3022 54.2008 55.5384 53.7041L50.1196 51.1279C49.4277 52.5832 49.133 54.1841 49.133 55.848H55.133ZM55.521 53.74C55.8319 53.1078 56.2041 52.6445 56.6215 52.2967L52.7804 47.6873C51.6618 48.6195 50.786 49.7722 50.1369 51.092L55.521 53.74ZM56.6261 52.2928C57.1083 51.8894 57.6538 51.587 58.286 51.3831L56.444 45.6729C55.0921 46.109 53.8616 46.7826 52.7758 47.6912L56.6261 52.2928ZM58.2727 51.3874C58.9876 51.1604 59.7134 51.048 60.461 51.048V45.048C59.0965 45.048 57.7584 45.2556 56.4572 45.6686L58.2727 51.3874ZM60.461 51.048C61.7052 51.048 62.3286 51.2593 62.5879 51.4055L65.534 46.1785C64.0333 45.3327 62.2567 45.048 60.461 45.048V51.048ZM62.6443 51.4364C62.8057 51.5229 62.7365 51.5231 62.6215 51.3609C62.5616 51.2764 62.5025 51.1654 62.4607 51.0334C62.4191 50.9018 62.405 50.7818 62.405 50.688H68.405C68.405 48.4619 67.0113 46.9692 65.4776 46.1476L62.6443 51.4364ZM62.405 50.688C62.405 50.6449 62.4106 50.5559 62.4448 50.4374C62.4799 50.3158 62.5375 50.1902 62.617 50.0739L67.5689 53.4621C68.1614 52.5961 68.405 51.6275 68.405 50.688H62.405ZM62.617 50.0739C62.609 50.0857 62.6139 50.0764 62.6356 50.0547C62.658 50.0324 62.6936 50.0014 62.7432 49.9693L66.0027 55.0067C66.6513 54.587 67.1669 54.0496 67.5689 53.4621L62.617 50.0739ZM65.9165 49.9155C65.3072 49.55 64.6197 49.2428 63.8981 48.977L61.8239 54.607C62.3182 54.7892 62.6387 54.946 62.8295 55.0605L65.9165 49.9155ZM63.9881 49.0118C62.9805 48.6033 61.916 48.432 60.845 48.432V54.432C61.2779 54.432 61.5574 54.5007 61.7339 54.5722L63.9881 49.0118ZM60.845 48.432C58.9005 48.432 57.0241 49.006 55.5514 50.4198L59.7066 54.7482C59.8338 54.626 60.1014 54.432 60.845 54.432V48.432ZM55.5296 50.4409C54.038 51.9021 53.453 53.8146 53.453 55.776H59.453C59.453 55.0174 59.6519 54.8019 59.7283 54.7271L55.5296 50.4409ZM53.453 55.776C53.453 56.7856 53.5946 57.8044 53.9628 58.7674L59.5671 56.6246C59.5193 56.4996 59.453 56.2384 59.453 55.776H53.453ZM54.0032 58.8676C54.3664 59.7237 54.8816 60.5165 55.5793 61.1839L59.7266 56.8481C59.6884 56.8115 59.6115 56.7243 59.5267 56.5244L54.0032 58.8676ZM55.6302 61.2315C56.2935 61.8371 57.056 62.294 57.8922 62.6006L59.9577 56.9674C59.834 56.922 59.7484 56.8669 59.6758 56.8005L55.6302 61.2315ZM57.9763 62.63C58.7844 62.8994 59.6188 63.024 60.461 63.024V57.024C60.2152 57.024 60.0256 56.9886 59.8737 56.938L57.9763 62.63ZM60.461 63.024C60.9875 63.024 61.5376 62.9768 62.0841 62.8483L60.7098 57.0077C60.7123 57.0072 60.6384 57.024 60.461 57.024V63.024ZM62.0841 62.8483C62.4661 62.7584 62.982 62.6099 63.4779 62.3345L60.564 57.0895C60.6277 57.0542 60.6787 57.0305 60.7117 57.0163C60.7451 57.0019 60.7674 56.9939 60.7756 56.991C60.7898 56.9861 60.7715 56.9933 60.7099 57.0077L62.0841 62.8483ZM65.021 59.712V57.456H59.021V59.712H65.021ZM62.021 54.456H59.453V60.456H62.021V54.456ZM62.0867 56.0194C62.1008 56.0453 62.0978 56.0435 62.081 56.0029C62.0649 55.964 62.0411 55.9016 62.011 55.8113L56.3189 57.7087C56.4456 58.0888 56.6068 58.5029 56.8193 58.8926L62.0867 56.0194ZM62.0555 55.9571C62.0531 55.9483 62.045 55.9157 62.045 55.848H56.045C56.045 56.4203 56.1169 56.9957 56.2744 57.5629L62.0555 55.9571ZM62.045 55.848C62.045 55.7685 62.0554 55.8332 62.0083 55.9863C61.9573 56.152 61.8317 56.4399 61.5503 56.7213L57.3076 52.4787C56.2338 53.5525 56.045 54.9299 56.045 55.848H62.045ZM61.4851 56.7846C61.3349 56.9259 61.147 57.0456 60.9372 57.1237C60.7329 57.1997 60.563 57.216 60.461 57.216V51.216C59.375 51.216 58.2664 51.5744 57.3729 52.4154L61.4851 56.7846ZM60.461 57.216H64.517V51.216H60.461V57.216ZM64.517 57.216C64.4788 57.216 64.327 57.2111 64.113 57.132C63.8845 57.0475 63.6423 56.8989 63.4364 56.6801L67.8056 52.5679C66.8319 51.5334 65.575 51.216 64.517 51.216V57.216ZM63.5649 56.8086C63.3461 56.6027 63.1974 56.3604 63.113 56.132C63.0339 55.918 63.029 55.7662 63.029 55.728H69.029C69.029 54.67 68.7116 53.413 67.6771 52.4394L63.5649 56.8086ZM63.029 55.728V60.624H69.029V55.728H63.029ZM82.6145 57.6L84.8893 55.6442L79.6145 49.5089V57.6H82.6145ZM82.6145 62.904L83.4038 65.7983L85.6145 65.1954V62.904H82.6145ZM81.7745 63.048L82.1466 66.0248L82.1466 66.0248L81.7745 63.048ZM79.6625 63.024L80.3133 60.0954L80.2488 60.0811L80.1838 60.0696L79.6625 63.024ZM78.9665 62.736L80.7665 60.336L78.9665 62.736ZM78.5345 62.136L81.3435 61.0826L81.3435 61.0826L78.5345 62.136ZM78.3905 48.456L77.8538 45.5044L75.3905 45.9523V48.456H78.3905ZM79.2305 48.336L79.6026 51.3128L79.6633 51.3052L79.7237 51.2952L79.2305 48.336ZM81.2945 48.336L80.6074 51.2563L80.7037 51.2789L80.8013 51.2952L81.2945 48.336ZM82.0145 48.624L83.8145 46.224L83.8145 46.224L82.0145 48.624ZM82.5905 54.048H79.5905V62.0649L84.8535 56.0175L82.5905 54.048ZM87.5825 48.312V45.312H86.2163L85.3195 46.3425L87.5825 48.312ZM89.9105 48.936L87.9078 51.1697L87.9482 51.2059L87.9899 51.2407L89.9105 48.936ZM90.3185 51.552L87.7068 50.0758L87.7068 50.0758L90.3185 51.552ZM89.3105 52.8L87.1892 50.6787L87.1892 50.6787L89.3105 52.8ZM86.3105 55.8L84.1892 53.6787L82.1845 55.6833L84.0727 57.798L86.3105 55.8ZM87.5585 57.192L85.3286 59.1989L85.3468 59.2191L85.3653 59.239L87.5585 57.192ZM88.8545 58.608L86.6208 60.6106L86.6571 60.6512L86.6949 60.6904L88.8545 58.608ZM90.0785 59.904L87.8741 61.9388L87.8948 61.9613L87.916 61.9833L90.0785 59.904ZM91.1105 60.984H94.1105V59.7886L93.2883 58.9208L91.1105 60.984ZM90.9185 61.92L88.204 60.6426L88.204 60.6426L90.9185 61.92ZM90.3905 62.616L88.4381 60.3382L88.3962 60.3742L88.3556 60.4116L90.3905 62.616ZM89.6705 63.048L90.6689 65.877L90.6689 65.877L89.6705 63.048ZM87.1985 62.712L85.3135 65.0458L85.3411 65.0682L85.3693 65.0899L87.1985 62.712ZM85.9985 61.536L88.2762 59.5836L88.2733 59.5802L85.9985 61.536ZM79.6145 57.6V62.904H85.6145V57.6H79.6145ZM81.8251 60.0097C81.8664 59.9984 81.8565 60.0035 81.7656 60.0191C81.683 60.0333 81.5642 60.0509 81.4024 60.0712L82.1466 66.0248C82.5516 65.9742 83.0099 65.9057 83.4038 65.7983L81.8251 60.0097ZM81.4024 60.0712C81.1355 60.1045 80.8839 60.12 80.6465 60.12V66.12C81.1451 66.12 81.6454 66.0875 82.1466 66.0248L81.4024 60.0712ZM80.6465 60.12C80.4461 60.12 80.3427 60.102 80.3133 60.0954L79.0117 65.9526C79.5582 66.074 80.1109 66.12 80.6465 66.12V60.12ZM80.1838 60.0696C80.3055 60.0911 80.5285 60.1575 80.7665 60.336L77.1665 65.136C77.7884 65.6025 78.4755 65.8609 79.1411 65.9784L80.1838 60.0696ZM80.7665 60.336C81.0937 60.5814 81.2672 60.8793 81.3435 61.0826L75.7255 63.1894C75.9937 63.9047 76.4553 64.6026 77.1665 65.136L80.7665 60.336ZM81.3435 61.0826C81.3661 61.143 81.3792 61.1901 81.3865 61.2199C81.3937 61.2498 81.3962 61.2666 81.3963 61.2677C81.3965 61.269 81.3949 61.2583 81.3934 61.2339C81.3918 61.2097 81.3905 61.1747 81.3905 61.128H75.3905C75.3905 61.7356 75.4552 62.4686 75.7255 63.1894L81.3435 61.0826ZM81.3905 61.128V48.456H75.3905V61.128H81.3905ZM78.9271 51.4076C79.0157 51.3915 79.2257 51.3599 79.6026 51.3128L78.8584 45.3592C78.4673 45.4081 78.1172 45.4565 77.8538 45.5044L78.9271 51.4076ZM79.7237 51.2952C79.9616 51.2555 80.164 51.24 80.3345 51.24V45.24C79.8009 45.24 79.2674 45.2885 78.7373 45.3768L79.7237 51.2952ZM80.3345 51.24C80.4327 51.24 80.5041 51.2443 80.552 51.2491C80.6002 51.2539 80.6167 51.2585 80.6074 51.2563L81.9816 45.4157C81.4264 45.2851 80.8655 45.24 80.3345 45.24V51.24ZM80.8013 51.2952C80.7166 51.2811 80.4816 51.2243 80.2145 51.024L83.8145 46.224C83.1633 45.7357 82.4483 45.4869 81.7877 45.3768L80.8013 51.2952ZM80.2145 51.024C79.8873 50.7786 79.7137 50.4807 79.6375 50.2774L85.2555 48.1706C84.9872 47.4553 84.5257 46.7574 83.8145 46.224L80.2145 51.024ZM79.6375 50.2774C79.6148 50.217 79.6017 50.1699 79.5945 50.1401C79.5872 50.1102 79.5848 50.0934 79.5846 50.0923C79.5844 50.091 79.586 50.1017 79.5876 50.1261C79.5891 50.1503 79.5905 50.1853 79.5905 50.232H85.5905C85.5905 49.6244 85.5257 48.8914 85.2555 48.1706L79.6375 50.2774ZM79.5905 50.232V54.048H85.5905V50.232H79.5905ZM84.8535 56.0175L89.8455 50.2815L85.3195 46.3425L80.3275 52.0785L84.8535 56.0175ZM87.5825 51.312C87.7605 51.312 87.9006 51.3206 88.0073 51.3325C88.1145 51.3445 88.1772 51.3586 88.2038 51.3657C88.2641 51.3819 88.1132 51.3538 87.9078 51.1697L91.9131 46.7023C90.6137 45.5373 88.9069 45.312 87.5825 45.312V51.312ZM87.9899 51.2407C87.9637 51.2188 87.8602 51.1236 87.7672 50.9376C87.6698 50.7428 87.6305 50.5409 87.6305 50.376H93.6305C93.6305 48.8156 92.9057 47.5269 91.831 46.6313L87.9899 51.2407ZM87.6305 50.376C87.6305 50.331 87.6365 50.2741 87.6528 50.2127C87.669 50.1515 87.6904 50.1048 87.7068 50.0758L92.9302 53.0282C93.3884 52.2174 93.6305 51.318 93.6305 50.376H87.6305ZM87.7068 50.0758C87.6845 50.1152 87.5545 50.3133 87.1892 50.6787L91.4318 54.9213C91.9944 54.3587 92.5364 53.7248 92.9302 53.0282L87.7068 50.0758ZM87.1892 50.6787L84.1892 53.6787L88.4318 57.9213L91.4318 54.9213L87.1892 50.6787ZM84.0727 57.798C84.4755 58.2492 84.8941 58.7162 85.3286 59.1989L89.7884 55.1851C89.3588 54.7078 88.9455 54.2468 88.5483 53.802L84.0727 57.798ZM85.3653 59.239C85.8004 59.7051 86.2188 60.1623 86.6208 60.6106L91.0882 56.6054C90.6581 56.1257 90.2126 55.6389 89.7516 55.145L85.3653 59.239ZM86.6949 60.6904C87.1133 61.1242 87.5062 61.5403 87.8741 61.9388L92.2829 57.8692C91.8827 57.4357 91.4597 56.9878 91.014 56.5256L86.6949 60.6904ZM87.916 61.9833C88.3126 62.3958 88.6512 62.7502 88.9326 63.0472L93.2883 58.9208C92.9937 58.6098 92.6443 58.2442 92.241 57.8247L87.916 61.9833ZM88.1105 60.984C88.1105 60.9693 88.1145 60.8329 88.204 60.6426L93.6329 63.1974C93.9785 62.4631 94.1105 61.7027 94.1105 60.984H88.1105ZM88.204 60.6426C88.253 60.5385 88.334 60.4274 88.4381 60.3382L92.3428 64.8938C92.8949 64.4206 93.328 63.8455 93.6329 63.1974L88.204 60.6426ZM88.3556 60.4116C88.4529 60.3218 88.5672 60.256 88.672 60.219L90.6689 65.877C91.3177 65.648 91.9121 65.2942 92.4253 64.8204L88.3556 60.4116ZM88.672 60.219C88.7023 60.2083 88.7315 60.2011 88.7573 60.1968C88.7828 60.1926 88.8 60.192 88.8065 60.192V66.192C89.4321 66.192 90.0592 66.0922 90.6689 65.877L88.672 60.219ZM88.8065 60.192C88.7203 60.192 88.7169 60.1813 88.7706 60.1973C88.8306 60.2153 88.9263 60.2562 89.0276 60.3341L85.3693 65.0899C86.4292 65.9051 87.6572 66.192 88.8065 66.192V60.192ZM89.0835 60.3782C88.8235 60.1682 88.5533 59.9068 88.2762 59.5836L83.7207 63.4884C84.2117 64.0612 84.7415 64.5838 85.3135 65.0458L89.0835 60.3782ZM88.2733 59.5802L84.8893 55.6442L80.3396 59.5558L83.7236 63.4918L88.2733 59.5802ZM105.852 48.888L104.331 46.3022L103.433 46.8302L103.056 47.8007L105.852 48.888ZM107.076 48.432L106.329 45.5265L106.319 45.5292L106.308 45.5319L107.076 48.432ZM110.868 48.576L109.767 51.3665L109.81 51.3837L109.854 51.3996L110.868 48.576ZM112.068 49.656L114.903 48.6747L114.899 48.6637L114.895 48.6528L112.068 49.656ZM113.004 52.56L115.874 51.6865L115.874 51.6865L113.004 52.56ZM114.012 55.992L111.126 56.811L111.129 56.8214L114.012 55.992ZM114.996 59.472L112.106 60.2749L112.108 60.2854L114.996 59.472ZM115.836 62.496L118.114 64.4484L119.149 63.2409L118.73 61.7066L115.836 62.496ZM114.972 63.024L114.023 60.178L113.971 60.1955L113.919 60.215L114.972 63.024ZM112.62 63.144L111.892 66.0544L111.913 66.0595L111.933 66.0643L112.62 63.144ZM111.972 62.856L110.098 65.1986L110.152 65.2417L110.208 65.2822L111.972 62.856ZM111.564 62.352L108.84 63.6092L108.879 63.693L108.923 63.7743L111.564 62.352ZM111.3 61.632L108.397 62.3893L108.409 62.4341L108.422 62.4785L111.3 61.632ZM110.868 59.976L113.771 59.2187L113.186 56.976H110.868V59.976ZM106.524 59.976V56.976H104.219L103.625 59.203L106.524 59.976ZM106.14 61.464L103.23 60.7364L103.23 60.7364L106.14 61.464ZM105.756 62.952L106.765 65.7772L108.249 65.2473L108.655 63.725L105.756 62.952ZM105.036 63.144L104.483 60.1954L104.372 60.2162L104.263 60.2453L105.036 63.144ZM102.324 62.832L100.524 65.232L100.58 65.2737L100.637 65.3128L102.324 62.832ZM101.844 60.984L104.729 61.8082L104.729 61.8082L101.844 60.984ZM102.06 60.192L104.961 60.9555L104.964 60.9449L102.06 60.192ZM102.516 58.584L99.663 57.6567L99.6524 57.6892L99.6426 57.722L102.516 58.584ZM103.188 56.52L106.04 57.4501L106.043 57.4411L106.046 57.4321L103.188 56.52ZM103.956 54.216L106.79 55.1993L106.79 55.1993L103.956 54.216ZM104.724 52.008L107.557 52.9961L107.56 52.9861L107.564 52.976L104.724 52.008ZM105.372 50.136L102.57 49.0646L102.556 49.1009L102.543 49.1375L105.372 50.136ZM108.732 51.984V48.984H106.57L105.886 51.0353L108.732 51.984ZM107.964 54.24L105.129 53.2587L105.123 53.275L105.118 53.2913L107.964 54.24ZM107.22 56.736L104.32 55.9698L103.325 59.736H107.22V56.736ZM110.196 56.736V59.736H114.073L113.1 55.9831L110.196 56.736ZM109.5 54.216L106.603 54.9959L106.612 55.0293L106.622 55.0625L109.5 54.216ZM108.876 51.984L111.755 51.1413L111.124 48.984H108.876V51.984ZM107.373 51.4738C107.314 51.5089 107.313 51.5013 107.409 51.4652C107.5 51.4316 107.641 51.3859 107.844 51.3321L106.308 45.5319C105.672 45.7003 104.954 45.9357 104.331 46.3022L107.373 51.4738ZM107.823 51.3375C108.147 51.2542 108.456 51.216 108.756 51.216V45.216C107.936 45.216 107.125 45.3218 106.329 45.5265L107.823 51.3375ZM108.756 51.216C109.261 51.216 109.578 51.2921 109.767 51.3665L111.97 45.7855C110.942 45.3799 109.851 45.216 108.756 45.216V51.216ZM109.854 51.3996C109.882 51.4096 109.777 51.3772 109.629 51.2439C109.467 51.0975 109.324 50.893 109.241 50.6592L114.895 48.6528C114.343 47.0948 113.113 46.1944 111.882 45.7524L109.854 51.3996ZM109.233 50.6373C109.506 51.4246 109.806 52.3553 110.134 53.4335L115.874 51.6865C115.53 50.5567 115.207 49.5514 114.903 48.6747L109.233 50.6373ZM110.134 53.4335C110.464 54.5182 110.795 55.644 111.126 56.811L116.898 55.173C116.557 53.972 116.216 52.8098 115.874 51.6865L110.134 53.4335ZM111.129 56.8214C111.463 57.9807 111.788 59.1319 112.106 60.2749L117.887 58.6691C117.564 57.5081 117.234 56.3393 116.895 55.1626L111.129 56.8214ZM112.108 60.2854C112.427 61.4156 112.705 62.4153 112.942 63.2854L118.73 61.7066C118.488 60.8167 118.205 59.8004 117.884 58.6586L112.108 60.2854ZM113.558 60.5436C113.828 60.2288 114.076 60.1605 114.023 60.178L115.921 65.87C116.636 65.6315 117.46 65.2112 118.114 64.4484L113.558 60.5436ZM113.919 60.215C113.953 60.2022 113.871 60.24 113.604 60.24V66.24C114.393 66.24 115.223 66.1338 116.025 65.833L113.919 60.215ZM113.604 60.24C113.494 60.24 113.414 60.2353 113.361 60.2302C113.308 60.2249 113.292 60.2202 113.307 60.2237L111.933 66.0643C112.496 66.1968 113.068 66.24 113.604 66.24V60.24ZM113.348 60.2336C113.388 60.2436 113.543 60.2888 113.737 60.4298L110.208 65.2822C110.753 65.6792 111.34 65.9164 111.892 66.0544L113.348 60.2336ZM113.846 60.5134C114.046 60.673 114.155 60.8363 114.206 60.9297L108.923 63.7743C109.197 64.2837 109.578 64.783 110.098 65.1986L113.846 60.5134ZM114.288 61.0948C114.266 61.0466 114.226 60.9486 114.178 60.7855L108.422 62.4785C108.534 62.8594 108.67 63.2414 108.84 63.6092L114.288 61.0948ZM114.203 60.8747L113.771 59.2187L107.965 60.7333L108.397 62.3893L114.203 60.8747ZM110.868 56.976H106.524V62.976H110.868V56.976ZM103.625 59.203C103.493 59.699 103.361 60.2102 103.23 60.7364L109.051 62.1916C109.175 61.6938 109.299 61.213 109.423 60.749L103.625 59.203ZM103.23 60.7364C103.105 61.2342 102.981 61.715 102.857 62.179L108.655 63.725C108.787 63.229 108.919 62.7178 109.051 62.1916L103.23 60.7364ZM104.747 60.1268C104.685 60.149 104.599 60.1737 104.483 60.1954L105.589 66.0926C105.986 66.0183 106.379 65.915 106.765 65.7772L104.747 60.1268ZM104.263 60.2453C104.317 60.231 104.336 60.2307 104.312 60.2334C104.288 60.2359 104.235 60.24 104.148 60.24V66.24C104.662 66.24 105.236 66.1954 105.809 66.0427L104.263 60.2453ZM104.148 60.24C104.026 60.24 103.931 60.2349 103.86 60.2281C103.789 60.2213 103.749 60.2134 103.735 60.2103C103.721 60.2072 103.742 60.2107 103.789 60.2297C103.836 60.2488 103.915 60.2859 104.011 60.3512L100.637 65.3128C101.772 66.0841 103.101 66.24 104.148 66.24V60.24ZM104.124 60.432C104.273 60.5436 104.454 60.7315 104.586 61.0024C104.717 61.27 104.748 61.5092 104.748 61.656H98.7481C98.7481 63.0593 99.3556 64.3556 100.524 65.232L104.124 60.432ZM104.748 61.656C104.748 61.7217 104.738 61.7749 104.729 61.8082L98.9595 60.1598C98.822 60.6411 98.7481 61.1423 98.7481 61.656H104.748ZM104.729 61.8082C104.8 61.5584 104.878 61.2733 104.961 60.9555L99.1589 59.4285C99.0825 59.7187 99.0162 59.9616 98.9595 60.1598L104.729 61.8082ZM104.964 60.9449C105.063 60.5626 105.204 60.0657 105.39 59.446L99.6426 57.722C99.4445 58.3823 99.281 58.9574 99.1561 59.4391L104.964 60.9449ZM105.369 59.5113C105.577 58.8723 105.801 58.1853 106.04 57.4501L100.336 55.5899C100.096 56.3267 99.8713 57.0157 99.663 57.6567L105.369 59.5113ZM106.046 57.4321C106.278 56.7051 106.526 55.9609 106.79 55.1993L101.122 53.2327C100.842 54.0391 100.578 54.8309 100.33 55.6079L106.046 57.4321ZM106.79 55.1993C107.062 54.4167 107.317 53.6823 107.557 52.9961L101.891 51.0199C101.651 51.7097 101.394 52.4473 101.122 53.2327L106.79 55.1993ZM107.564 52.976C107.801 52.2795 108.013 51.6659 108.201 51.1345L102.543 49.1375C102.347 49.6941 102.127 50.3285 101.885 51.04L107.564 52.976ZM108.174 51.2074C108.382 50.665 108.539 50.2553 108.648 49.9753L103.056 47.8007C102.941 48.0967 102.779 48.519 102.57 49.0646L108.174 51.2074ZM105.886 51.0353C105.666 51.6942 105.414 52.435 105.129 53.2587L110.799 55.2213C111.09 54.381 111.35 53.6178 111.578 52.9327L105.886 51.0353ZM105.118 53.2913C104.826 54.1687 104.559 55.0616 104.32 55.9698L110.121 57.5022C110.329 56.7144 110.559 55.9433 110.81 55.1887L105.118 53.2913ZM107.22 59.736H110.196V53.736H107.22V59.736ZM113.1 55.9831C112.868 55.0893 112.628 54.218 112.378 53.3695L106.622 55.0625C106.852 55.846 107.076 56.6547 107.292 57.4889L113.1 55.9831ZM112.397 53.4361C112.169 52.5882 111.955 51.8227 111.755 51.1413L105.997 52.8267C106.181 53.4573 106.384 54.1798 106.603 54.9959L112.397 53.4361ZM108.876 48.984H108.732V54.984H108.876V48.984Z" transform="translate(2 118)" fill="white"/>
</svg>
