<svg width="151" height="193" viewBox="0 0 151 193" fill="none" xmlns="http://www.w3.org/2000/svg">
<rect x="2" y="2" width="147" height="189" rx="6" fill="white" stroke="#566871" stroke-width="4"/>
<rect width="52" height="52" rx="4" transform="translate(17 22)" fill="#2980B9"/>
<path d="M5.784 1.048C6.696 1.048 7.504 1.168 8.208 1.408C8.912 1.632 9.512 1.944 10.008 2.344C10.504 2.744 10.88 3.216 11.136 3.76C11.392 4.304 11.52 4.888 11.52 5.512C11.52 7.192 10.568 8.792 8.664 10.312L5.52 12.832H11.28C11.376 13.008 11.464 13.232 11.544 13.504C11.64 13.776 11.688 14.072 11.688 14.392C11.688 14.968 11.56 15.384 11.304 15.64C11.048 15.88 10.712 16 10.296 16H1.968C1.616 15.76 1.336 15.456 1.128 15.088C0.936 14.704 0.84 14.256 0.84 13.744C0.84 13.2 0.952 12.744 1.176 12.376C1.4 11.992 1.648 11.688 1.92 11.464L5.232 8.632C5.648 8.28 5.992 7.968 6.264 7.696C6.536 7.408 6.752 7.152 6.912 6.928C7.088 6.704 7.208 6.496 7.272 6.304C7.352 6.112 7.392 5.928 7.392 5.752C7.392 5.304 7.192 4.952 6.792 4.696C6.408 4.44 5.928 4.312 5.352 4.312C4.712 4.312 4.136 4.416 3.624 4.624C3.128 4.816 2.712 5.024 2.376 5.248C2.104 5.056 1.88 4.816 1.704 4.528C1.528 4.24 1.44 3.904 1.44 3.52C1.44 2.688 1.832 2.072 2.616 1.672C3.4 1.256 4.456 1.048 5.784 1.048Z" transform="translate(37 39)" fill="white"/>
<rect width="52" height="52" rx="4" transform="translate(82 22)" fill="#F1C40F"/>
<path d="M6.24316 21.228C6.24316 20.244 6.54316 19.44 7.14316 18.816C7.76716 18.168 8.61916 17.844 9.69916 17.844C10.7792 17.844 11.6192 18.168 12.2192 18.816C12.8432 19.44 13.1552 20.244 13.1552 21.228C13.1552 22.212 12.8432 23.028 12.2192 23.676C11.6192 24.3 10.7792 24.612 9.69916 24.612C8.61916 24.612 7.76716 24.3 7.14316 23.676C6.54316 23.028 6.24316 22.212 6.24316 21.228ZM7.43116 16.512C7.02316 16.296 6.63916 15.912 6.27916 15.36C5.91916 14.784 5.73916 14.112 5.73916 13.344C5.73916 12.6 5.93116 12.048 6.31516 11.688C6.72316 11.304 7.31116 11.016 8.07916 10.824L10.8872 10.14C12.0872 9.828 12.6872 9.252 12.6872 8.412C12.6872 7.956 12.4592 7.56 12.0032 7.224C11.5712 6.888 10.8152 6.72 9.73516 6.72C8.75116 6.72 7.82716 6.852 6.96316 7.116C6.09916 7.356 5.40316 7.644 4.87516 7.98C4.46716 7.668 4.11916 7.296 3.83116 6.864C3.54316 6.408 3.39916 5.868 3.39916 5.244C3.39916 4.62 3.57916 4.08 3.93916 3.624C4.29916 3.144 4.79116 2.76 5.41516 2.472C6.06316 2.16 6.81916 1.932 7.68316 1.788C8.57116 1.644 9.54316 1.572 10.5992 1.572C13.4312 1.572 15.5672 2.208 17.0072 3.48C18.4712 4.728 19.2032 6.372 19.2032 8.412C19.2032 12.252 16.4912 14.712 11.0672 15.792L7.43116 16.512Z" transform="translate(97 34)" fill="#F5F5F5"/>
<rect width="52" height="52" rx="4" transform="translate(17 80)" fill="#1ABC9C"/>
<path d="M10.272 1.408C10.544 1.584 10.784 1.832 10.992 2.152C11.216 2.456 11.328 2.84 11.328 3.304C11.328 3.56 11.304 3.824 11.256 4.096C11.208 4.352 11.128 4.608 11.016 4.864L6.024 16.168C5.8 16.184 5.584 16.192 5.376 16.192C5.184 16.192 5 16.192 4.824 16.192C4.104 16.192 3.52 16.056 3.072 15.784C2.624 15.512 2.4 15.04 2.4 14.368C2.4 14.032 2.48 13.672 2.64 13.288C2.8 12.888 3.016 12.416 3.288 11.872L6.792 4.696H0.912C0.816 4.52 0.72 4.288 0.624 4C0.528 3.712 0.48 3.408 0.48 3.088C0.48 2.48 0.616 2.048 0.888 1.792C1.16 1.536 1.504 1.408 1.92 1.408H10.272ZM21.2484 8.704C21.2484 7.296 21.0404 6.208 20.6244 5.44C20.2244 4.672 19.6484 4.288 18.8964 4.288C18.1444 4.288 17.5684 4.672 17.1684 5.44C16.7844 6.208 16.5924 7.296 16.5924 8.704C16.5924 10.112 16.7844 11.208 17.1684 11.992C17.5684 12.76 18.1444 13.144 18.8964 13.144C19.6484 13.144 20.2244 12.76 20.6244 11.992C21.0404 11.208 21.2484 10.112 21.2484 8.704ZM25.3524 8.704C25.3524 9.936 25.1924 11.032 24.8724 11.992C24.5524 12.952 24.1044 13.76 23.5284 14.416C22.9684 15.056 22.2884 15.544 21.4884 15.88C20.7044 16.216 19.8484 16.384 18.9204 16.384C17.9764 16.384 17.1044 16.216 16.3044 15.88C15.5204 15.544 14.8404 15.056 14.2644 14.416C13.7044 13.76 13.2644 12.952 12.9444 11.992C12.6404 11.032 12.4884 9.936 12.4884 8.704C12.4884 7.472 12.6404 6.384 12.9444 5.44C13.2644 4.48 13.7044 3.68 14.2644 3.04C14.8404 2.384 15.5204 1.888 16.3044 1.552C17.1044 1.216 17.9764 1.048 18.9204 1.048C19.8484 1.048 20.7044 1.216 21.4884 1.552C22.2884 1.888 22.9684 2.384 23.5284 3.04C24.1044 3.68 24.5524 4.48 24.8724 5.44C25.1924 6.384 25.3524 7.472 25.3524 8.704Z" transform="translate(30 97)" fill="white"/>
<rect width="52" height="52" rx="4" transform="translate(82 80)" fill="#E74C3C"/>
<path d="M3.72 17.296L1.32 18.04C1.08 17.88 0.84 17.656 0.6 17.368C0.36 17.08 0.24 16.68 0.24 16.168C0.24 15.208 0.824 14.536 1.992 14.152L4.68 13.24H5.568C6.256 13.24 6.8 13.44 7.2 13.84C7.6 14.24 7.8 14.784 7.8 15.472V27.976C7.624 28.008 7.36 28.048 7.008 28.096C6.672 28.16 6.328 28.192 5.976 28.192C5.624 28.192 5.304 28.168 5.016 28.12C4.744 28.072 4.512 27.976 4.32 27.832C4.128 27.688 3.976 27.496 3.864 27.256C3.768 27 3.72 26.672 3.72 26.272V17.296ZM10.6219 17.344C10.6219 16.704 10.7579 16.12 11.0299 15.592C11.3019 15.064 11.6779 14.608 12.1579 14.224C12.6379 13.84 13.2139 13.544 13.8859 13.336C14.5579 13.128 15.2939 13.024 16.0939 13.024C16.8939 13.024 17.6299 13.12 18.3019 13.312C18.9739 13.504 19.5499 13.776 20.0299 14.128C20.5099 14.48 20.8859 14.912 21.1579 15.424C21.4299 15.936 21.5659 16.512 21.5659 17.152C21.5659 17.856 21.4219 18.472 21.1339 19C20.8459 19.528 20.4459 19.968 19.9339 20.32C20.5419 20.736 21.0379 21.232 21.4219 21.808C21.8059 22.368 21.9979 23.128 21.9979 24.088C21.9979 24.728 21.8619 25.312 21.5899 25.84C21.3179 26.368 20.9259 26.824 20.4139 27.208C19.9019 27.592 19.2859 27.888 18.5659 28.096C17.8459 28.304 17.0379 28.408 16.1419 28.408C15.2459 28.408 14.4379 28.304 13.7179 28.096C12.9979 27.888 12.3819 27.592 11.8699 27.208C11.3739 26.824 10.9819 26.368 10.6939 25.84C10.4219 25.312 10.2859 24.728 10.2859 24.088C10.2859 23.224 10.4699 22.504 10.8379 21.928C11.2219 21.352 11.6699 20.904 12.1819 20.584C11.7499 20.232 11.3819 19.816 11.0779 19.336C10.7739 18.84 10.6219 18.176 10.6219 17.344ZM14.3899 23.728C14.3899 24.224 14.5499 24.616 14.8699 24.904C15.2059 25.192 15.6299 25.336 16.1419 25.336C16.6539 25.336 17.0699 25.192 17.3899 24.904C17.7259 24.6 17.8939 24.208 17.8939 23.728C17.8939 23.264 17.7499 22.88 17.4619 22.576C17.1899 22.256 16.8139 22.008 16.3339 21.832C15.6299 21.992 15.1259 22.24 14.8219 22.576C14.5339 22.896 14.3899 23.28 14.3899 23.728ZM17.5579 17.488C17.5579 17.056 17.4299 16.712 17.1739 16.456C16.9179 16.2 16.5579 16.072 16.0939 16.072C15.6299 16.072 15.2699 16.2 15.0139 16.456C14.7579 16.712 14.6299 17.048 14.6299 17.464C14.6299 17.88 14.7579 18.216 15.0139 18.472C15.2859 18.728 15.5979 18.936 15.9499 19.096C16.5099 18.968 16.9179 18.76 17.1739 18.472C17.4299 18.184 17.5579 17.856 17.5579 17.488Z" transform="translate(97 85)" fill="white"/>
<path d="M0.844711 10.612C0.760711 10.48 0.682711 10.3 0.610711 10.072C0.538711 9.844 0.502711 9.604 0.502711 9.352C0.502711 8.884 0.604711 8.548 0.808711 8.344C1.02471 8.14 1.30071 8.038 1.63671 8.038H9.48471C9.56871 8.17 9.64671 8.35 9.71871 8.578C9.79071 8.806 9.82671 9.046 9.82671 9.298C9.82671 9.766 9.71871 10.102 9.50271 10.306C9.29871 10.51 9.02871 10.612 8.69271 10.612H6.69471V18.928C6.56271 18.964 6.35271 19 6.06471 19.036C5.78871 19.072 5.51271 19.09 5.23671 19.09C4.96071 19.09 4.71471 19.066 4.49871 19.018C4.29471 18.982 4.12071 18.91 3.97671 18.802C3.83271 18.694 3.72471 18.544 3.65271 18.352C3.58071 18.16 3.54471 17.908 3.54471 17.596V10.612H0.844711ZM14.6704 19.288C13.9624 19.288 13.3024 19.192 12.6904 19C12.0904 18.796 11.5624 18.496 11.1064 18.1C10.6624 17.704 10.3084 17.206 10.0444 16.606C9.7924 16.006 9.6664 15.304 9.6664 14.5C9.6664 13.708 9.7924 13.03 10.0444 12.466C10.3084 11.89 10.6504 11.422 11.0704 11.062C11.4904 10.69 11.9704 10.42 12.5104 10.252C13.0504 10.072 13.6024 9.982 14.1664 9.982C14.8024 9.982 15.3784 10.078 15.8944 10.27C16.4224 10.462 16.8724 10.726 17.2444 11.062C17.6284 11.398 17.9224 11.8 18.1264 12.268C18.3424 12.736 18.4504 13.246 18.4504 13.798C18.4504 14.206 18.3364 14.518 18.1084 14.734C17.8804 14.95 17.5624 15.088 17.1544 15.148L12.7084 15.814C12.8404 16.21 13.1104 16.51 13.5184 16.714C13.9264 16.906 14.3944 17.002 14.9224 17.002C15.4144 17.002 15.8764 16.942 16.3084 16.822C16.7524 16.69 17.1124 16.54 17.3884 16.372C17.5804 16.492 17.7424 16.66 17.8744 16.876C18.0064 17.092 18.0724 17.32 18.0724 17.56C18.0724 18.1 17.8204 18.502 17.3164 18.766C16.9324 18.97 16.5004 19.108 16.0204 19.18C15.5404 19.252 15.0904 19.288 14.6704 19.288ZM14.1664 12.214C13.8784 12.214 13.6264 12.262 13.4104 12.358C13.2064 12.454 13.0384 12.58 12.9064 12.736C12.7744 12.88 12.6724 13.048 12.6004 13.24C12.5404 13.42 12.5044 13.606 12.4924 13.798L15.5704 13.294C15.5344 13.054 15.4024 12.814 15.1744 12.574C14.9464 12.334 14.6104 12.214 14.1664 12.214ZM19.9593 7.282C20.0793 7.246 20.2713 7.21 20.5353 7.174C20.7993 7.126 21.0693 7.102 21.3453 7.102C21.6093 7.102 21.8433 7.12 22.0473 7.156C22.2633 7.192 22.4433 7.264 22.5873 7.372C22.7313 7.48 22.8393 7.63 22.9113 7.822C22.9833 8.002 23.0193 8.242 23.0193 8.542V10.306C23.3193 10.186 23.6013 10.102 23.8653 10.054C24.1413 10.006 24.4413 9.982 24.7653 9.982C25.3413 9.982 25.8873 10.084 26.4033 10.288C26.9193 10.492 27.3753 10.792 27.7713 11.188C28.1673 11.572 28.4793 12.052 28.7073 12.628C28.9353 13.204 29.0493 13.87 29.0493 14.626C29.0493 15.406 28.9293 16.09 28.6893 16.678C28.4613 17.254 28.1373 17.734 27.7173 18.118C27.2973 18.502 26.7813 18.796 26.1693 19C25.5693 19.192 24.9033 19.288 24.1713 19.288C23.3793 19.288 22.7073 19.192 22.1553 19C21.6033 18.82 21.1353 18.592 20.7513 18.316C20.2233 17.944 19.9593 17.464 19.9593 16.876V7.282ZM24.1713 16.876C24.7233 16.876 25.1493 16.69 25.4493 16.318C25.7613 15.934 25.9173 15.37 25.9173 14.626C25.9173 13.87 25.7613 13.306 25.4493 12.934C25.1373 12.562 24.7173 12.376 24.1893 12.376C23.9493 12.376 23.7393 12.4 23.5593 12.448C23.3913 12.496 23.2053 12.568 23.0013 12.664V16.588C23.1333 16.672 23.2893 16.744 23.4693 16.804C23.6613 16.852 23.8953 16.876 24.1713 16.876ZM34.3196 17.056C34.5236 17.056 34.7456 17.038 34.9856 17.002C35.2376 16.954 35.4236 16.894 35.5436 16.822V15.382L34.2476 15.49C33.9116 15.514 33.6356 15.586 33.4196 15.706C33.2036 15.826 33.0956 16.006 33.0956 16.246C33.0956 16.486 33.1856 16.684 33.3656 16.84C33.5576 16.984 33.8756 17.056 34.3196 17.056ZM34.1756 9.982C34.8236 9.982 35.4116 10.048 35.9396 10.18C36.4796 10.312 36.9356 10.516 37.3076 10.792C37.6916 11.056 37.9856 11.398 38.1896 11.818C38.3936 12.226 38.4956 12.712 38.4956 13.276V17.308C38.4956 17.62 38.4056 17.878 38.2256 18.082C38.0576 18.274 37.8536 18.442 37.6136 18.586C36.8336 19.054 35.7356 19.288 34.3196 19.288C33.6836 19.288 33.1076 19.228 32.5916 19.108C32.0876 18.988 31.6496 18.808 31.2776 18.568C30.9176 18.328 30.6356 18.022 30.4316 17.65C30.2396 17.278 30.1436 16.846 30.1436 16.354C30.1436 15.526 30.3896 14.89 30.8816 14.446C31.3736 14.002 32.1356 13.726 33.1676 13.618L35.5256 13.366V13.24C35.5256 12.892 35.3696 12.646 35.0576 12.502C34.7576 12.346 34.3196 12.268 33.7436 12.268C33.2876 12.268 32.8436 12.316 32.4116 12.412C31.9796 12.508 31.5896 12.628 31.2416 12.772C31.0856 12.664 30.9536 12.502 30.8456 12.286C30.7376 12.058 30.6836 11.824 30.6836 11.584C30.6836 11.272 30.7556 11.026 30.8996 10.846C31.0556 10.654 31.2896 10.492 31.6016 10.36C31.9496 10.228 32.3576 10.132 32.8256 10.072C33.3056 10.012 33.7556 9.982 34.1756 9.982ZM48.9167 17.416C48.8567 17.98 48.6887 18.412 48.4127 18.712C48.1487 19.012 47.7587 19.162 47.2427 19.162C46.8587 19.162 46.5167 19.072 46.2167 18.892C45.9167 18.7 45.5927 18.382 45.2447 17.938L43.4627 15.706V18.982C43.3307 19.006 43.1327 19.036 42.8687 19.072C42.6167 19.12 42.3587 19.144 42.0947 19.144C41.8307 19.144 41.5907 19.126 41.3747 19.09C41.1707 19.054 40.9967 18.982 40.8527 18.874C40.7087 18.766 40.5947 18.622 40.5107 18.442C40.4387 18.25 40.4027 18.004 40.4027 17.704V7.282C40.5347 7.246 40.7267 7.21 40.9787 7.174C41.2427 7.126 41.5067 7.102 41.7707 7.102C42.0347 7.102 42.2687 7.12 42.4727 7.156C42.6887 7.192 42.8687 7.264 43.0127 7.372C43.1567 7.48 43.2647 7.63 43.3367 7.822C43.4207 8.002 43.4627 8.242 43.4627 8.542V13.294L46.5587 10.126C47.1827 10.126 47.6807 10.264 48.0527 10.54C48.4367 10.816 48.6287 11.164 48.6287 11.584C48.6287 11.764 48.5987 11.932 48.5387 12.088C48.4787 12.232 48.3827 12.382 48.2507 12.538C48.1307 12.694 47.9687 12.862 47.7647 13.042C47.5727 13.21 47.3447 13.408 47.0807 13.636L46.0367 14.536L48.9167 17.416ZM56.5106 8.416C56.7146 8.296 57.0206 8.182 57.4286 8.074C57.8486 7.966 58.2686 7.912 58.6886 7.912C59.2886 7.912 59.8166 8.002 60.2726 8.182C60.7406 8.35 61.0406 8.62 61.1726 8.992C61.3886 9.616 61.6226 10.342 61.8746 11.17C62.1266 11.998 62.3786 12.856 62.6306 13.744C62.8826 14.62 63.1286 15.49 63.3686 16.354C63.6086 17.206 63.8186 17.962 63.9986 18.622C63.8546 18.79 63.6386 18.922 63.3506 19.018C63.0626 19.126 62.7206 19.18 62.3246 19.18C62.0366 19.18 61.7906 19.156 61.5866 19.108C61.3946 19.06 61.2326 18.988 61.1006 18.892C60.9806 18.796 60.8786 18.67 60.7946 18.514C60.7226 18.358 60.6566 18.178 60.5966 17.974L60.2726 16.732H57.0146C56.9186 17.092 56.8226 17.464 56.7266 17.848C56.6306 18.232 56.5346 18.604 56.4386 18.964C56.2706 19.024 56.0906 19.072 55.8986 19.108C55.7186 19.156 55.4966 19.18 55.2326 19.18C54.6206 19.18 54.1646 19.078 53.8646 18.874C53.5766 18.658 53.4326 18.364 53.4326 17.992C53.4326 17.824 53.4566 17.656 53.5046 17.488C53.5526 17.32 53.6066 17.122 53.6666 16.894C53.7506 16.57 53.8646 16.168 54.0086 15.688C54.1646 15.208 54.3326 14.692 54.5126 14.14C54.6926 13.576 54.8846 13 55.0886 12.412C55.2926 11.824 55.4846 11.272 55.6646 10.756C55.8446 10.228 56.0066 9.76 56.1506 9.352C56.3066 8.944 56.4266 8.632 56.5106 8.416ZM58.6706 10.738C58.5026 11.242 58.3106 11.806 58.0946 12.43C57.8906 13.042 57.7046 13.666 57.5366 14.302H59.7686C59.6006 13.654 59.4266 13.024 59.2466 12.412C59.0786 11.788 58.9226 11.23 58.7786 10.738H58.6706ZM70.7837 13.456C70.7837 13.084 70.6757 12.814 70.4597 12.646C70.2557 12.466 69.9737 12.376 69.6137 12.376C69.3737 12.376 69.1337 12.406 68.8937 12.466C68.6657 12.526 68.4677 12.616 68.2997 12.736V18.982C68.1797 19.018 67.9877 19.054 67.7237 19.09C67.4717 19.126 67.2077 19.144 66.9317 19.144C66.6677 19.144 66.4277 19.126 66.2117 19.09C66.0077 19.054 65.8337 18.982 65.6897 18.874C65.5457 18.766 65.4317 18.622 65.3477 18.442C65.2757 18.25 65.2397 18.004 65.2397 17.704V12.304C65.2397 11.98 65.3057 11.716 65.4377 11.512C65.5817 11.308 65.7737 11.122 66.0137 10.954C66.4217 10.666 66.9317 10.432 67.5437 10.252C68.1677 10.072 68.8577 9.982 69.6137 9.982C70.9697 9.982 72.0137 10.282 72.7457 10.882C73.4777 11.47 73.8437 12.292 73.8437 13.348V18.982C73.7237 19.018 73.5317 19.054 73.2677 19.09C73.0157 19.126 72.7517 19.144 72.4757 19.144C72.2117 19.144 71.9717 19.126 71.7557 19.09C71.5517 19.054 71.3777 18.982 71.2337 18.874C71.0897 18.766 70.9757 18.622 70.8917 18.442C70.8197 18.25 70.7837 18.004 70.7837 17.704V13.456ZM79.9999 9.982C80.6839 9.982 81.3019 10.072 81.8539 10.252C82.4179 10.42 82.8919 10.642 83.2759 10.918C83.5159 11.086 83.7019 11.272 83.8339 11.476C83.9779 11.68 84.0499 11.944 84.0499 12.268V18.568C84.0499 19.204 83.9299 19.75 83.6899 20.206C83.4499 20.674 83.1199 21.058 82.6999 21.358C82.2919 21.67 81.8059 21.898 81.2419 22.042C80.6899 22.186 80.0959 22.258 79.4599 22.258C78.3679 22.258 77.5099 22.108 76.8859 21.808C76.2619 21.52 75.9499 21.046 75.9499 20.386C75.9499 20.11 76.0039 19.864 76.1119 19.648C76.2319 19.444 76.3639 19.288 76.5079 19.18C76.8559 19.372 77.2459 19.534 77.6779 19.666C78.1219 19.798 78.5779 19.864 79.0459 19.864C79.6939 19.864 80.2099 19.756 80.5939 19.54C80.9779 19.324 81.1699 18.976 81.1699 18.496V18.208C80.6779 18.424 80.0779 18.532 79.3699 18.532C78.8299 18.532 78.3139 18.454 77.8219 18.298C77.3419 18.13 76.9159 17.878 76.5439 17.542C76.1839 17.194 75.8899 16.75 75.6619 16.21C75.4459 15.67 75.3379 15.028 75.3379 14.284C75.3379 13.552 75.4519 12.916 75.6799 12.376C75.9199 11.836 76.2439 11.392 76.6519 11.044C77.0719 10.684 77.5639 10.42 78.1279 10.252C78.7039 10.072 79.3279 9.982 79.9999 9.982ZM81.1159 12.592C81.0319 12.544 80.9059 12.496 80.7379 12.448C80.5819 12.4 80.3839 12.376 80.1439 12.376C79.5559 12.376 79.1119 12.544 78.8119 12.88C78.5239 13.204 78.3799 13.672 78.3799 14.284C78.3799 14.98 78.5239 15.484 78.8119 15.796C79.1119 16.096 79.4899 16.246 79.9459 16.246C80.4379 16.246 80.8279 16.132 81.1159 15.904V12.592ZM94.4967 17.416C94.4367 17.98 94.2687 18.412 93.9927 18.712C93.7287 19.012 93.3387 19.162 92.8227 19.162C92.4387 19.162 92.0967 19.072 91.7967 18.892C91.4967 18.7 91.1727 18.382 90.8247 17.938L89.0427 15.706V18.982C88.9107 19.006 88.7127 19.036 88.4487 19.072C88.1967 19.12 87.9387 19.144 87.6747 19.144C87.4107 19.144 87.1707 19.126 86.9547 19.09C86.7507 19.054 86.5767 18.982 86.4327 18.874C86.2887 18.766 86.1747 18.622 86.0907 18.442C86.0187 18.25 85.9827 18.004 85.9827 17.704V7.282C86.1147 7.246 86.3067 7.21 86.5587 7.174C86.8227 7.126 87.0867 7.102 87.3507 7.102C87.6147 7.102 87.8487 7.12 88.0527 7.156C88.2687 7.192 88.4487 7.264 88.5927 7.372C88.7367 7.48 88.8447 7.63 88.9167 7.822C89.0007 8.002 89.0427 8.242 89.0427 8.542V13.294L92.1387 10.126C92.7627 10.126 93.2607 10.264 93.6327 10.54C94.0167 10.816 94.2087 11.164 94.2087 11.584C94.2087 11.764 94.1787 11.932 94.1187 12.088C94.0587 12.232 93.9627 12.382 93.8307 12.538C93.7107 12.694 93.5487 12.862 93.3447 13.042C93.1527 13.21 92.9247 13.408 92.6607 13.636L91.6167 14.536L94.4967 17.416ZM99.7103 17.056C99.9143 17.056 100.136 17.038 100.376 17.002C100.628 16.954 100.814 16.894 100.934 16.822V15.382L99.6383 15.49C99.3023 15.514 99.0263 15.586 98.8103 15.706C98.5943 15.826 98.4863 16.006 98.4863 16.246C98.4863 16.486 98.5763 16.684 98.7563 16.84C98.9483 16.984 99.2663 17.056 99.7103 17.056ZM99.5663 9.982C100.214 9.982 100.802 10.048 101.33 10.18C101.87 10.312 102.326 10.516 102.698 10.792C103.082 11.056 103.376 11.398 103.58 11.818C103.784 12.226 103.886 12.712 103.886 13.276V17.308C103.886 17.62 103.796 17.878 103.616 18.082C103.448 18.274 103.244 18.442 103.004 18.586C102.224 19.054 101.126 19.288 99.7103 19.288C99.0743 19.288 98.4983 19.228 97.9823 19.108C97.4783 18.988 97.0403 18.808 96.6683 18.568C96.3083 18.328 96.0263 18.022 95.8223 17.65C95.6303 17.278 95.5343 16.846 95.5343 16.354C95.5343 15.526 95.7803 14.89 96.2723 14.446C96.7643 14.002 97.5263 13.726 98.5583 13.618L100.916 13.366V13.24C100.916 12.892 100.76 12.646 100.448 12.502C100.148 12.346 99.7103 12.268 99.1343 12.268C98.6783 12.268 98.2343 12.316 97.8023 12.412C97.3703 12.508 96.9803 12.628 96.6323 12.772C96.4763 12.664 96.3443 12.502 96.2363 12.286C96.1283 12.058 96.0743 11.824 96.0743 11.584C96.0743 11.272 96.1463 11.026 96.2903 10.846C96.4463 10.654 96.6803 10.492 96.9923 10.36C97.3403 10.228 97.7483 10.132 98.2163 10.072C98.6963 10.012 99.1463 9.982 99.5663 9.982Z" transform="translate(24 142)" fill="#222222"/>
</svg>
