<svg width="151" height="193" viewBox="0 0 151 193" fill="none" xmlns="http://www.w3.org/2000/svg">
<rect x="2" y="2" width="147" height="189" rx="6" fill="white" stroke="#566871" stroke-width="4"/>
<rect width="52" height="52" rx="4" transform="translate(17 22)" fill="#FF5E91"/>
<path d="M12.648 13.888C12.568 14.64 12.344 15.216 11.976 15.616C11.624 16.016 11.104 16.216 10.416 16.216C9.904 16.216 9.448 16.096 9.048 15.856C8.648 15.6 8.216 15.176 7.752 14.584L5.376 11.608V15.976C5.2 16.008 4.936 16.048 4.584 16.096C4.248 16.16 3.904 16.192 3.552 16.192C3.2 16.192 2.88 16.168 2.592 16.12C2.32 16.072 2.088 15.976 1.896 15.832C1.704 15.688 1.552 15.496 1.44 15.256C1.344 15 1.296 14.672 1.296 14.272V0.375999C1.472 0.328 1.728 0.28 2.064 0.232C2.416 0.168 2.768 0.136 3.12 0.136C3.472 0.136 3.784 0.16 4.056 0.208C4.344 0.256001 4.584 0.352 4.776 0.495999C4.968 0.639999 5.112 0.84 5.208 1.096C5.32 1.336 5.376 1.656 5.376 2.056V8.392L9.504 4.168C10.336 4.168 11 4.352 11.496 4.72C12.008 5.088 12.264 5.552 12.264 6.112C12.264 6.352 12.224 6.576 12.144 6.784C12.064 6.976 11.936 7.176 11.76 7.384C11.6 7.592 11.384 7.816 11.112 8.056C10.856 8.28 10.552 8.544 10.2 8.848L8.808 10.048L12.648 13.888Z" transform="translate(36 39)" fill="white"/>
<rect width="52" height="52" rx="4" transform="translate(82 22)" fill="#FF945E"/>
<path d="M6.40797 18.408C6.67997 18.408 6.97597 18.384 7.29597 18.336C7.63197 18.272 7.87997 18.192 8.03997 18.096V16.176L6.31197 16.32C5.86397 16.352 5.49597 16.448 5.20797 16.608C4.91997 16.768 4.77597 17.008 4.77597 17.328C4.77597 17.648 4.89597 17.912 5.13597 18.12C5.39197 18.312 5.81597 18.408 6.40797 18.408ZM6.21597 8.976C7.07997 8.976 7.86397 9.064 8.56797 9.24C9.28797 9.416 9.89597 9.688 10.392 10.056C10.904 10.408 11.296 10.864 11.568 11.424C11.84 11.968 11.976 12.616 11.976 13.368V18.744C11.976 19.16 11.856 19.504 11.616 19.776C11.392 20.032 11.12 20.256 10.8 20.448C9.75997 21.072 8.29597 21.384 6.40797 21.384C5.55997 21.384 4.79197 21.304 4.10397 21.144C3.43197 20.984 2.84797 20.744 2.35197 20.424C1.87197 20.104 1.49597 19.696 1.22397 19.2C0.967969 18.704 0.839969 18.128 0.839969 17.472C0.839969 16.368 1.16797 15.52 1.82397 14.928C2.47997 14.336 3.49597 13.968 4.87197 13.824L8.01597 13.488V13.32C8.01597 12.856 7.80797 12.528 7.39197 12.336C6.99197 12.128 6.40797 12.024 5.63997 12.024C5.03197 12.024 4.43997 12.088 3.86397 12.216C3.28797 12.344 2.76797 12.504 2.30397 12.696C2.09597 12.552 1.91997 12.336 1.77597 12.048C1.63197 11.744 1.55997 11.432 1.55997 11.112C1.55997 10.696 1.65597 10.368 1.84797 10.128C2.05597 9.872 2.36797 9.656 2.78397 9.48C3.24797 9.304 3.79197 9.176 4.41597 9.096C5.05597 9.016 5.65597 8.976 6.21597 8.976ZM18.5507 16.992C18.5507 17.408 18.6787 17.704 18.9347 17.88C19.2067 18.056 19.5827 18.144 20.0627 18.144C20.3027 18.144 20.5507 18.128 20.8067 18.096C21.0627 18.048 21.2867 17.992 21.4787 17.928C21.6227 18.104 21.7427 18.304 21.8387 18.528C21.9507 18.736 22.0067 18.992 22.0067 19.296C22.0067 19.904 21.7747 20.4 21.3107 20.784C20.8627 21.168 20.0627 21.36 18.9107 21.36C17.5027 21.36 16.4147 21.04 15.6467 20.4C14.8947 19.76 14.5187 18.72 14.5187 17.28V7.008C14.6947 6.96 14.9427 6.912 15.2627 6.864C15.5987 6.8 15.9507 6.768 16.3187 6.768C17.0227 6.768 17.5667 6.896 17.9507 7.152C18.3507 7.392 18.5507 7.912 18.5507 8.712V10.248H21.6947C21.7907 10.424 21.8787 10.648 21.9587 10.92C22.0547 11.176 22.1027 11.464 22.1027 11.784C22.1027 12.344 21.9747 12.752 21.7187 13.008C21.4787 13.248 21.1507 13.368 20.7347 13.368H18.5507V16.992Z" transform="translate(96 34)" fill="#F5F5F5"/>
<rect width="52" height="52" rx="4" transform="translate(17 80)" fill="#5EC7FF"/>
<path d="M6.24 25.408C6.512 25.408 6.808 25.384 7.128 25.336C7.464 25.272 7.712 25.192 7.872 25.096V23.176L6.144 23.32C5.696 23.352 5.328 23.448 5.04 23.608C4.752 23.768 4.608 24.008 4.608 24.328C4.608 24.648 4.728 24.912 4.968 25.12C5.224 25.312 5.648 25.408 6.24 25.408ZM6.048 15.976C6.912 15.976 7.696 16.064 8.4 16.24C9.12 16.416 9.728 16.688 10.224 17.056C10.736 17.408 11.128 17.864 11.4 18.424C11.672 18.968 11.808 19.616 11.808 20.368V25.744C11.808 26.16 11.688 26.504 11.448 26.776C11.224 27.032 10.952 27.256 10.632 27.448C9.592 28.072 8.128 28.384 6.24 28.384C5.392 28.384 4.624 28.304 3.936 28.144C3.264 27.984 2.68 27.744 2.184 27.424C1.704 27.104 1.328 26.696 1.056 26.2C0.8 25.704 0.672 25.128 0.672 24.472C0.672 23.368 1 22.52 1.656 21.928C2.312 21.336 3.328 20.968 4.704 20.824L7.848 20.488V20.32C7.848 19.856 7.64 19.528 7.224 19.336C6.824 19.128 6.24 19.024 5.472 19.024C4.864 19.024 4.272 19.088 3.696 19.216C3.12 19.344 2.6 19.504 2.136 19.696C1.928 19.552 1.752 19.336 1.608 19.048C1.464 18.744 1.392 18.432 1.392 18.112C1.392 17.696 1.488 17.368 1.68 17.128C1.888 16.872 2.2 16.656 2.616 16.48C3.08 16.304 3.624 16.176 4.248 16.096C4.888 16.016 5.488 15.976 6.048 15.976Z" transform="translate(36 85)" fill="white"/>
<rect width="52" height="52" rx="4" transform="translate(82 80)" fill="#94FF5E"/>
<path d="M3.708 25.228C3.708 24.244 4.008 23.44 4.608 22.816C5.232 22.168 6.084 21.844 7.164 21.844C8.244 21.844 9.084 22.168 9.684 22.816C10.308 23.44 10.62 24.244 10.62 25.228C10.62 26.212 10.308 27.028 9.684 27.676C9.084 28.3 8.244 28.612 7.164 28.612C6.084 28.612 5.232 28.3 4.608 27.676C4.008 27.028 3.708 26.212 3.708 25.228ZM4.896 20.512C4.488 20.296 4.104 19.912 3.744 19.36C3.384 18.784 3.204 18.112 3.204 17.344C3.204 16.6 3.396 16.048 3.78 15.688C4.188 15.304 4.776 15.016 5.544 14.824L8.352 14.14C9.552 13.828 10.152 13.252 10.152 12.412C10.152 11.956 9.924 11.56 9.468 11.224C9.036 10.888 8.28 10.72 7.2 10.72C6.216 10.72 5.292 10.852 4.428 11.116C3.564 11.356 2.868 11.644 2.34 11.98C1.932 11.668 1.584 11.296 1.296 10.864C1.008 10.408 0.864 9.868 0.864 9.244C0.864 8.62 1.044 8.08 1.404 7.624C1.764 7.144 2.256 6.76 2.88 6.472C3.528 6.16 4.284 5.932 5.148 5.788C6.036 5.644 7.008 5.572 8.064 5.572C10.896 5.572 13.032 6.208 14.472 7.48C15.936 8.728 16.668 10.372 16.668 12.412C16.668 16.252 13.956 18.712 8.532 19.792L4.896 20.512Z" transform="translate(99 88)" fill="white"/>
<path d="M0.705063 10.612C0.621062 10.48 0.543062 10.3 0.471063 10.072C0.399062 9.844 0.363062 9.604 0.363062 9.352C0.363062 8.884 0.465062 8.548 0.669063 8.344C0.885062 8.14 1.16106 8.038 1.49706 8.038H9.34506C9.42906 8.17 9.50706 8.35 9.57906 8.578C9.65106 8.806 9.68706 9.046 9.68706 9.298C9.68706 9.766 9.57906 10.102 9.36306 10.306C9.15906 10.51 8.88906 10.612 8.55306 10.612H6.55506V18.928C6.42306 18.964 6.21306 19 5.92506 19.036C5.64906 19.072 5.37306 19.09 5.09706 19.09C4.82106 19.09 4.57506 19.066 4.35906 19.018C4.15506 18.982 3.98106 18.91 3.83706 18.802C3.69306 18.694 3.58506 18.544 3.51306 18.352C3.44106 18.16 3.40506 17.908 3.40506 17.596V10.612H0.705063ZM14.5307 19.288C13.8227 19.288 13.1628 19.192 12.5508 19C11.9508 18.796 11.4228 18.496 10.9668 18.1C10.5228 17.704 10.1688 17.206 9.90475 16.606C9.65275 16.006 9.52675 15.304 9.52675 14.5C9.52675 13.708 9.65275 13.03 9.90475 12.466C10.1688 11.89 10.5107 11.422 10.9307 11.062C11.3507 10.69 11.8307 10.42 12.3707 10.252C12.9107 10.072 13.4627 9.982 14.0267 9.982C14.6627 9.982 15.2387 10.078 15.7548 10.27C16.2828 10.462 16.7327 10.726 17.1047 11.062C17.4887 11.398 17.7827 11.8 17.9867 12.268C18.2027 12.736 18.3107 13.246 18.3107 13.798C18.3107 14.206 18.1967 14.518 17.9688 14.734C17.7408 14.95 17.4228 15.088 17.0147 15.148L12.5688 15.814C12.7007 16.21 12.9707 16.51 13.3788 16.714C13.7868 16.906 14.2548 17.002 14.7828 17.002C15.2747 17.002 15.7367 16.942 16.1688 16.822C16.6128 16.69 16.9728 16.54 17.2488 16.372C17.4408 16.492 17.6028 16.66 17.7347 16.876C17.8667 17.092 17.9327 17.32 17.9327 17.56C17.9327 18.1 17.6807 18.502 17.1768 18.766C16.7927 18.97 16.3607 19.108 15.8808 19.18C15.4008 19.252 14.9508 19.288 14.5307 19.288ZM14.0267 12.214C13.7387 12.214 13.4867 12.262 13.2707 12.358C13.0667 12.454 12.8988 12.58 12.7667 12.736C12.6348 12.88 12.5328 13.048 12.4608 13.24C12.4007 13.42 12.3647 13.606 12.3527 13.798L15.4307 13.294C15.3948 13.054 15.2628 12.814 15.0348 12.574C14.8067 12.334 14.4707 12.214 14.0267 12.214ZM19.8197 7.282C19.9397 7.246 20.1317 7.21 20.3957 7.174C20.6597 7.126 20.9297 7.102 21.2057 7.102C21.4697 7.102 21.7037 7.12 21.9077 7.156C22.1237 7.192 22.3037 7.264 22.4477 7.372C22.5917 7.48 22.6997 7.63 22.7717 7.822C22.8437 8.002 22.8797 8.242 22.8797 8.542V10.306C23.1797 10.186 23.4617 10.102 23.7257 10.054C24.0017 10.006 24.3017 9.982 24.6257 9.982C25.2017 9.982 25.7477 10.084 26.2637 10.288C26.7797 10.492 27.2357 10.792 27.6317 11.188C28.0277 11.572 28.3397 12.052 28.5677 12.628C28.7957 13.204 28.9097 13.87 28.9097 14.626C28.9097 15.406 28.7897 16.09 28.5497 16.678C28.3217 17.254 27.9977 17.734 27.5777 18.118C27.1577 18.502 26.6417 18.796 26.0297 19C25.4297 19.192 24.7637 19.288 24.0317 19.288C23.2397 19.288 22.5677 19.192 22.0157 19C21.4637 18.82 20.9957 18.592 20.6117 18.316C20.0837 17.944 19.8197 17.464 19.8197 16.876V7.282ZM24.0317 16.876C24.5837 16.876 25.0097 16.69 25.3097 16.318C25.6217 15.934 25.7777 15.37 25.7777 14.626C25.7777 13.87 25.6217 13.306 25.3097 12.934C24.9977 12.562 24.5777 12.376 24.0497 12.376C23.8097 12.376 23.5997 12.4 23.4197 12.448C23.2517 12.496 23.0657 12.568 22.8617 12.664V16.588C22.9937 16.672 23.1497 16.744 23.3297 16.804C23.5217 16.852 23.7557 16.876 24.0317 16.876ZM34.18 17.056C34.384 17.056 34.606 17.038 34.846 17.002C35.098 16.954 35.284 16.894 35.404 16.822V15.382L34.108 15.49C33.772 15.514 33.496 15.586 33.28 15.706C33.064 15.826 32.956 16.006 32.956 16.246C32.956 16.486 33.046 16.684 33.226 16.84C33.418 16.984 33.736 17.056 34.18 17.056ZM34.036 9.982C34.684 9.982 35.272 10.048 35.8 10.18C36.34 10.312 36.796 10.516 37.168 10.792C37.552 11.056 37.846 11.398 38.05 11.818C38.254 12.226 38.356 12.712 38.356 13.276V17.308C38.356 17.62 38.266 17.878 38.086 18.082C37.918 18.274 37.714 18.442 37.474 18.586C36.694 19.054 35.596 19.288 34.18 19.288C33.544 19.288 32.968 19.228 32.452 19.108C31.948 18.988 31.51 18.808 31.138 18.568C30.778 18.328 30.496 18.022 30.292 17.65C30.1 17.278 30.004 16.846 30.004 16.354C30.004 15.526 30.25 14.89 30.742 14.446C31.234 14.002 31.996 13.726 33.028 13.618L35.386 13.366V13.24C35.386 12.892 35.23 12.646 34.918 12.502C34.618 12.346 34.18 12.268 33.604 12.268C33.148 12.268 32.704 12.316 32.272 12.412C31.84 12.508 31.45 12.628 31.102 12.772C30.946 12.664 30.814 12.502 30.706 12.286C30.598 12.058 30.544 11.824 30.544 11.584C30.544 11.272 30.616 11.026 30.76 10.846C30.916 10.654 31.15 10.492 31.462 10.36C31.81 10.228 32.218 10.132 32.686 10.072C33.166 10.012 33.616 9.982 34.036 9.982ZM48.777 17.416C48.717 17.98 48.549 18.412 48.273 18.712C48.009 19.012 47.619 19.162 47.103 19.162C46.719 19.162 46.377 19.072 46.077 18.892C45.777 18.7 45.453 18.382 45.105 17.938L43.323 15.706V18.982C43.191 19.006 42.993 19.036 42.729 19.072C42.477 19.12 42.219 19.144 41.955 19.144C41.691 19.144 41.451 19.126 41.235 19.09C41.031 19.054 40.857 18.982 40.713 18.874C40.569 18.766 40.455 18.622 40.371 18.442C40.299 18.25 40.263 18.004 40.263 17.704V7.282C40.395 7.246 40.587 7.21 40.839 7.174C41.103 7.126 41.367 7.102 41.631 7.102C41.895 7.102 42.129 7.12 42.333 7.156C42.549 7.192 42.729 7.264 42.873 7.372C43.017 7.48 43.125 7.63 43.197 7.822C43.281 8.002 43.323 8.242 43.323 8.542V13.294L46.419 10.126C47.043 10.126 47.541 10.264 47.913 10.54C48.297 10.816 48.489 11.164 48.489 11.584C48.489 11.764 48.459 11.932 48.399 12.088C48.339 12.232 48.243 12.382 48.111 12.538C47.991 12.694 47.829 12.862 47.625 13.042C47.433 13.21 47.205 13.408 46.941 13.636L45.897 14.536L48.777 17.416ZM57.1089 16.75C57.2769 16.798 57.4929 16.834 57.7569 16.858C58.0209 16.87 58.2729 16.876 58.5129 16.876C58.9929 16.876 59.3889 16.78 59.7009 16.588C60.0249 16.384 60.1869 16.072 60.1869 15.652C60.1869 15.256 60.0549 14.974 59.7909 14.806C59.5269 14.638 59.1249 14.554 58.5849 14.554H57.1089V16.75ZM57.1089 12.358H58.4229C58.9389 12.358 59.3109 12.262 59.5389 12.07C59.7789 11.878 59.8989 11.596 59.8989 11.224C59.8989 10.9 59.7609 10.642 59.4849 10.45C59.2209 10.258 58.8189 10.162 58.2789 10.162C58.0989 10.162 57.8889 10.168 57.6489 10.18C57.4209 10.192 57.2409 10.21 57.1089 10.234V12.358ZM58.2789 19.288C58.0749 19.288 57.8349 19.282 57.5589 19.27C57.2829 19.258 56.9949 19.234 56.6949 19.198C56.4069 19.162 56.1189 19.114 55.8309 19.054C55.5429 19.006 55.2789 18.934 55.0389 18.838C54.3789 18.586 54.0489 18.148 54.0489 17.524V9.118C54.0489 8.866 54.1149 8.674 54.2469 8.542C54.3909 8.398 54.5829 8.284 54.8229 8.2C55.2309 8.056 55.7409 7.954 56.3529 7.894C56.9649 7.822 57.5949 7.786 58.2429 7.786C59.7789 7.786 60.9609 8.044 61.7889 8.56C62.6169 9.076 63.0309 9.874 63.0309 10.954C63.0309 11.494 62.8749 11.962 62.5629 12.358C62.2509 12.742 61.8309 13.024 61.3029 13.204C61.9029 13.372 62.4009 13.678 62.7969 14.122C63.2049 14.566 63.4089 15.124 63.4089 15.796C63.4089 16.984 62.9649 17.866 62.0769 18.442C61.2009 19.006 59.9349 19.288 58.2789 19.288ZM68.7034 17.056C68.9074 17.056 69.1294 17.038 69.3694 17.002C69.6214 16.954 69.8074 16.894 69.9274 16.822V15.382L68.6314 15.49C68.2954 15.514 68.0194 15.586 67.8034 15.706C67.5874 15.826 67.4794 16.006 67.4794 16.246C67.4794 16.486 67.5694 16.684 67.7494 16.84C67.9414 16.984 68.2594 17.056 68.7034 17.056ZM68.5594 9.982C69.2074 9.982 69.7954 10.048 70.3234 10.18C70.8634 10.312 71.3194 10.516 71.6914 10.792C72.0754 11.056 72.3694 11.398 72.5734 11.818C72.7774 12.226 72.8794 12.712 72.8794 13.276V17.308C72.8794 17.62 72.7894 17.878 72.6094 18.082C72.4414 18.274 72.2374 18.442 71.9974 18.586C71.2174 19.054 70.1194 19.288 68.7034 19.288C68.0674 19.288 67.4914 19.228 66.9754 19.108C66.4714 18.988 66.0334 18.808 65.6614 18.568C65.3014 18.328 65.0194 18.022 64.8154 17.65C64.6234 17.278 64.5274 16.846 64.5274 16.354C64.5274 15.526 64.7734 14.89 65.2654 14.446C65.7574 14.002 66.5194 13.726 67.5514 13.618L69.9094 13.366V13.24C69.9094 12.892 69.7534 12.646 69.4414 12.502C69.1414 12.346 68.7034 12.268 68.1274 12.268C67.6714 12.268 67.2274 12.316 66.7954 12.412C66.3634 12.508 65.9734 12.628 65.6254 12.772C65.4694 12.664 65.3374 12.502 65.2294 12.286C65.1214 12.058 65.0674 11.824 65.0674 11.584C65.0674 11.272 65.1394 11.026 65.2834 10.846C65.4394 10.654 65.6734 10.492 65.9854 10.36C66.3334 10.228 66.7414 10.132 67.2094 10.072C67.6894 10.012 68.1394 9.982 68.5594 9.982ZM83.3905 18.982C83.2705 19.018 83.0785 19.054 82.8145 19.09C82.5625 19.126 82.2985 19.144 82.0225 19.144C81.7585 19.144 81.5185 19.126 81.3025 19.09C81.0985 19.054 80.9245 18.982 80.7805 18.874C80.6365 18.766 80.5225 18.622 80.4385 18.442C80.3665 18.25 80.3305 18.004 80.3305 17.704V13.708C80.3305 13.216 80.2045 12.874 79.9525 12.682C79.7125 12.478 79.4125 12.376 79.0525 12.376C78.8125 12.376 78.5845 12.406 78.3685 12.466C78.1525 12.526 77.9785 12.598 77.8465 12.682V18.982C77.7265 19.018 77.5345 19.054 77.2705 19.09C77.0185 19.126 76.7545 19.144 76.4785 19.144C76.2145 19.144 75.9745 19.126 75.7585 19.09C75.5545 19.054 75.3805 18.982 75.2365 18.874C75.0925 18.766 74.9785 18.622 74.8945 18.442C74.8225 18.25 74.7865 18.004 74.7865 17.704V7.264C74.9185 7.24 75.1105 7.21 75.3625 7.174C75.6265 7.126 75.8905 7.102 76.1545 7.102C76.4185 7.102 76.6525 7.12 76.8565 7.156C77.0725 7.192 77.2525 7.264 77.3965 7.372C77.5405 7.48 77.6485 7.63 77.7205 7.822C77.8045 8.002 77.8465 8.242 77.8465 8.542V10.306C78.0025 10.246 78.2365 10.18 78.5485 10.108C78.8725 10.024 79.2265 9.982 79.6105 9.982C80.7985 9.982 81.7225 10.282 82.3825 10.882C83.0545 11.47 83.3905 12.352 83.3905 13.528V18.982ZM89.0237 17.056C89.2278 17.056 89.4498 17.038 89.6897 17.002C89.9417 16.954 90.1277 16.894 90.2478 16.822V15.382L88.9518 15.49C88.6158 15.514 88.3397 15.586 88.1237 15.706C87.9077 15.826 87.7998 16.006 87.7998 16.246C87.7998 16.486 87.8898 16.684 88.0698 16.84C88.2618 16.984 88.5798 17.056 89.0237 17.056ZM88.8798 9.982C89.5277 9.982 90.1157 10.048 90.6437 10.18C91.1838 10.312 91.6398 10.516 92.0117 10.792C92.3958 11.056 92.6898 11.398 92.8937 11.818C93.0978 12.226 93.1998 12.712 93.1998 13.276V17.308C93.1998 17.62 93.1098 17.878 92.9297 18.082C92.7617 18.274 92.5577 18.442 92.3177 18.586C91.5377 19.054 90.4397 19.288 89.0237 19.288C88.3877 19.288 87.8118 19.228 87.2958 19.108C86.7918 18.988 86.3538 18.808 85.9817 18.568C85.6217 18.328 85.3398 18.022 85.1357 17.65C84.9438 17.278 84.8478 16.846 84.8478 16.354C84.8478 15.526 85.0938 14.89 85.5857 14.446C86.0777 14.002 86.8397 13.726 87.8717 13.618L90.2297 13.366V13.24C90.2297 12.892 90.0737 12.646 89.7617 12.502C89.4617 12.346 89.0237 12.268 88.4478 12.268C87.9917 12.268 87.5477 12.316 87.1157 12.412C86.6838 12.508 86.2938 12.628 85.9458 12.772C85.7897 12.664 85.6577 12.502 85.5498 12.286C85.4417 12.058 85.3877 11.824 85.3877 11.584C85.3877 11.272 85.4597 11.026 85.6038 10.846C85.7597 10.654 85.9937 10.492 86.3057 10.36C86.6537 10.228 87.0617 10.132 87.5298 10.072C88.0097 10.012 88.4597 9.982 88.8798 9.982ZM102.451 16.39C102.451 17.302 102.109 18.016 101.425 18.532C100.741 19.048 99.7328 19.306 98.4008 19.306C97.8968 19.306 97.4288 19.27 96.9968 19.198C96.5648 19.126 96.1928 19.018 95.8808 18.874C95.5808 18.718 95.3408 18.526 95.1608 18.298C94.9928 18.07 94.9088 17.8 94.9088 17.488C94.9088 17.2 94.9688 16.96 95.0888 16.768C95.2088 16.564 95.3528 16.396 95.5208 16.264C95.8688 16.456 96.2648 16.63 96.7088 16.786C97.1648 16.93 97.6868 17.002 98.2748 17.002C98.6468 17.002 98.9288 16.948 99.1208 16.84C99.3248 16.732 99.4268 16.588 99.4268 16.408C99.4268 16.24 99.3548 16.108 99.2108 16.012C99.0668 15.916 98.8268 15.838 98.4908 15.778L97.9508 15.67C96.9068 15.466 96.1268 15.148 95.6108 14.716C95.1068 14.272 94.8548 13.642 94.8548 12.826C94.8548 12.382 94.9508 11.98 95.1428 11.62C95.3348 11.26 95.6048 10.96 95.9528 10.72C96.3008 10.48 96.7148 10.294 97.1948 10.162C97.6868 10.03 98.2268 9.964 98.8148 9.964C99.2588 9.964 99.6728 10 100.057 10.072C100.453 10.132 100.795 10.228 101.083 10.36C101.371 10.492 101.599 10.666 101.767 10.882C101.935 11.086 102.019 11.332 102.019 11.62C102.019 11.896 101.965 12.136 101.857 12.34C101.761 12.532 101.635 12.694 101.479 12.826C101.383 12.766 101.239 12.706 101.047 12.646C100.855 12.574 100.645 12.514 100.417 12.466C100.189 12.406 99.9548 12.358 99.7148 12.322C99.4868 12.286 99.2768 12.268 99.0848 12.268C98.6888 12.268 98.3828 12.316 98.1668 12.412C97.9508 12.496 97.8428 12.634 97.8428 12.826C97.8428 12.958 97.9028 13.066 98.0228 13.15C98.1428 13.234 98.3708 13.312 98.7068 13.384L99.2648 13.51C100.417 13.774 101.233 14.14 101.713 14.608C102.205 15.064 102.451 15.658 102.451 16.39ZM107.85 17.056C108.054 17.056 108.276 17.038 108.516 17.002C108.768 16.954 108.954 16.894 109.074 16.822V15.382L107.778 15.49C107.442 15.514 107.166 15.586 106.95 15.706C106.734 15.826 106.626 16.006 106.626 16.246C106.626 16.486 106.716 16.684 106.896 16.84C107.088 16.984 107.406 17.056 107.85 17.056ZM107.706 9.982C108.354 9.982 108.942 10.048 109.47 10.18C110.01 10.312 110.466 10.516 110.838 10.792C111.222 11.056 111.516 11.398 111.72 11.818C111.924 12.226 112.026 12.712 112.026 13.276V17.308C112.026 17.62 111.936 17.878 111.756 18.082C111.588 18.274 111.384 18.442 111.144 18.586C110.364 19.054 109.266 19.288 107.85 19.288C107.214 19.288 106.638 19.228 106.122 19.108C105.618 18.988 105.18 18.808 104.808 18.568C104.448 18.328 104.166 18.022 103.962 17.65C103.77 17.278 103.674 16.846 103.674 16.354C103.674 15.526 103.92 14.89 104.412 14.446C104.904 14.002 105.666 13.726 106.698 13.618L109.056 13.366V13.24C109.056 12.892 108.9 12.646 108.588 12.502C108.288 12.346 107.85 12.268 107.274 12.268C106.818 12.268 106.374 12.316 105.942 12.412C105.51 12.508 105.12 12.628 104.772 12.772C104.616 12.664 104.484 12.502 104.376 12.286C104.268 12.058 104.214 11.824 104.214 11.584C104.214 11.272 104.286 11.026 104.43 10.846C104.586 10.654 104.82 10.492 105.132 10.36C105.48 10.228 105.888 10.132 106.356 10.072C106.836 10.012 107.286 9.982 107.706 9.982Z" transform="translate(20 142)" fill="#222222"/>
</svg>
