<svg xmlns="http://www.w3.org/2000/svg" viewBox="0 0 217.489 175">
  <defs>
    <style>
      .cls-1 {
        fill: #3969ee;
      }

      .cls-2 {
        fill: #f9e0a6;
      }

      .cls-3 {
        fill: #d3a06c;
      }

      .cls-4 {
        fill: #eabd8c;
      }

      .cls-5 {
        fill: #b27946;
      }

      .cls-6 {
        fill: #fb5968;
      }

      .cls-7 {
        fill: #cd2c5a;
      }

      .cls-8 {
        fill: #707070;
        font-size: 20px;
        font-family: ArialMT, Arial;
      }

      .cls-9 {
        fill: #a1513d;
      }

      .cls-10 {
        fill: #884130;
      }

      .cls-11 {
        fill: #fb403f;
      }

      .cls-12 {
        fill: #f0eeee;
      }

      .cls-13 {
        fill: #d9d4d4;
      }

      .cls-14 {
        fill: #696970;
      }

      .cls-15 {
        fill: #484655;
      }

      .cls-16 {
        fill: #b45f4a;
      }
    </style>
  </defs>
  <g id="Group_26" data-name="Group 26" transform="translate(-39 -390)">
    <circle id="Ellipse_3" data-name="Ellipse 3" class="cls-1" cx="87.5" cy="87.5" r="87.5" transform="translate(62 390)"/>
    <g id="athlete" transform="translate(-41 407.171)">
      <g id="Group_1" data-name="Group 1" transform="translate(82.4 72.014)">
        <rect id="Rectangle_1" data-name="Rectangle 1" class="cls-2" width="28.806" height="31.206" transform="translate(33.607)"/>
        <rect id="Rectangle_2" data-name="Rectangle 2" class="cls-2" width="96.019" height="21.604" transform="translate(0 52.81)"/>
      </g>
      <path id="Path_1" data-name="Path 1" class="cls-3" d="M210.895,28.164A28.805,28.805,0,0,0,193.611,22.4l.59-.886A22.13,22.13,0,0,1,205.614,12.8L201.4,11.394A25.92,25.92,0,0,0,181.609,12.8l-3.452-1.726A29.13,29.13,0,0,0,136,37.13V60.81h67.213V41.731a10.7,10.7,0,0,1,4.765-8.9l4.837-3.226Z" transform="translate(-39.197 -5.6)"/>
      <path id="Path_2" data-name="Path 2" class="cls-4" d="M200,252.907a28.57,28.57,0,0,0,28.806,0V240H200Z" transform="translate(-83.993 -167.986)"/>
      <path id="Path_3" data-name="Path 3" class="cls-2" d="M192,162.41h0a24,24,0,0,1-24-24V112h48.009v26.405A24,24,0,0,1,192,162.41Z" transform="translate(-61.595 -78.393)"/>
      <path id="Path_4" data-name="Path 4" class="cls-3" d="M168,104.8h.406a50.54,50.54,0,0,0,26-7.2h0a20.351,20.351,0,0,1-2.146,9.1L192,107.2h0a70.659,70.659,0,0,0,22.5-8.7l1.507-.9V88H168Z" transform="translate(-61.595 -61.595)"/>
      <path id="Path_5" data-name="Path 5" class="cls-5" d="M292.8,34.42c7.2,2.4,7.2,12,7.2,12v19.2h9.6V46.548a10.7,10.7,0,0,1,4.765-8.9l4.837-3.226-1.92-1.44A28.805,28.805,0,0,0,300,27.219l.59-.886A22.13,22.13,0,0,1,312,17.617l-4.218-1.407A25.92,25.92,0,0,0,288,17.617v2.4C292.8,24.819,292.8,34.42,292.8,34.42Z" transform="translate(-145.588 -10.416)"/>
      <path id="Path_6" data-name="Path 6" class="cls-2" d="M145.6,152a9.6,9.6,0,0,0,0,19.2h48.009a9.6,9.6,0,0,0,0-19.2Z" transform="translate(-39.197 -106.391)"/>
      <rect id="Rectangle_3" data-name="Rectangle 3" class="cls-4" width="96.019" height="9.602" transform="translate(82.4 124.824)"/>
      <path id="Path_7" data-name="Path 7" class="cls-6" d="M173.572,302.618,150.412,296s-2.4,9.6-14.4,9.6-14.4-9.6-14.4-9.6l-23.16,6.618A14.4,14.4,0,0,0,88,316.466v17.941h16.8v19.2h62.412v-19.2h16.8V316.466A14.4,14.4,0,0,0,173.572,302.618Z" transform="translate(-5.6 -207.183)"/>
      <path id="Path_8" data-name="Path 8" class="cls-7" d="M313.3,302.618,290.143,296a12.917,12.917,0,0,1-2.511,4.566l18.148,8.375a14.406,14.406,0,0,1,8.368,13.078v12.389h9.6V316.466A14.4,14.4,0,0,0,313.3,302.618Z" transform="translate(-145.33 -207.183)"/>
      <path id="Path_9" data-name="Path 9" d="M168.632,93.126l-21.419-6.119V80.363a26.449,26.449,0,0,0,8.615-13.294,11.976,11.976,0,0,0,10.588-11.858V36.132a8.3,8.3,0,0,1,3.694-6.906l7.66-5.106-4.633-3.476a31.434,31.434,0,0,0-14.153-5.9,19.808,19.808,0,0,1,8.188-5.267L174.007,7.2,162.955,3.517A28.154,28.154,0,0,0,142.439,4.53l-2.4-1.2A31.531,31.531,0,0,0,94.4,31.53V55.211a11.976,11.976,0,0,0,10.588,11.858,26.449,26.449,0,0,0,8.615,13.294v6.645L92.187,93.126A16.871,16.871,0,0,0,80,109.281v39.548H180.82V109.281A16.871,16.871,0,0,0,168.632,93.126ZM156.714,62c.05-.66.1-1.318.1-1.99V48.451a7.157,7.157,0,0,1-.1,13.551ZM125.933,4.8a26.868,26.868,0,0,1,11.954,2.823l4.525,2.261,1.073-.538a23.335,23.335,0,0,1,16.539-1.7,24.573,24.573,0,0,0-7.017,6.937L149.926,19.2h4.489a26.573,26.573,0,0,1,15.032,4.7l-2,1.332a13.1,13.1,0,0,0-5.833,10.9v9.537a11.887,11.887,0,0,0-4.8-2.218V31.768l-5.142,3.085a67.981,67.981,0,0,1-17.331,7.369,22.866,22.866,0,0,0,.869-6.215V31.768l-3.637,2.182a48.142,48.142,0,0,1-22.768,6.817v-4.76H104v7.444a11.919,11.919,0,0,0-4.8,2.218V31.53A26.759,26.759,0,0,1,125.933,4.8ZM99.2,55.211a7.192,7.192,0,0,1,4.8-6.76V60.012c0,.672.05,1.33.1,1.99A7.189,7.189,0,0,1,99.2,55.211Zm9.6,4.8V45.57a52.985,52.985,0,0,0,21.076-5.255,17.929,17.929,0,0,1-1.366,3.711l-2.448,4.9,4.813-.963A72.889,72.889,0,0,0,152.014,40.2V60.012a21.6,21.6,0,1,1-43.208,0Zm21.6,26.405a26.233,26.233,0,0,0,12-2.914v4.964c-.41,1.246-2.931,7.552-12,7.552-9.045,0-11.57-6.246-12-7.557V83.5A26.233,26.233,0,0,0,130.41,86.417Zm-36.9,11.328,21.052-6.018c1.966,4,6.786,9.093,15.853,9.093s13.887-5.094,15.85-9.093l21.055,6.018a12.047,12.047,0,0,1,8.7,11.537v15.543h-12v-14.4h-4.8v33.607H101.6V110.422H96.8v14.4h-12V109.281A12.047,12.047,0,0,1,93.505,97.745Zm-8.7,31.881h12v14.4h-12Zm79.215,14.4v-14.4h12v14.4Z" transform="translate(0 0)"/>
      <path id="Path_11" data-name="Path 11" d="M170.4,384.8h4.8V368H168v4.8h2.4Z" transform="translate(-61.595 -257.578)"/>
      <path id="Path_12" data-name="Path 12" d="M210.4,384.8h4.8V368H208v4.8h2.4Z" transform="translate(-89.593 -257.578)"/>
      <text id="_" data-name="?" class="cls-8" transform="translate(249 58.829)"><tspan x="0" y="0">?</tspan></text>
    </g>
    <g id="basketball-player" transform="translate(67.971 404.084)">
      <path id="Path_13" data-name="Path 13" class="cls-9" d="M181.478,296.129h-3.212v-28.4H153.283v28.4h-3.212A22.361,22.361,0,0,0,127.71,318.49v19.492h76.129V318.489A22.36,22.36,0,0,0,181.478,296.129Z" transform="translate(-26.501 -188.292)"/>
      <path id="Path_14" data-name="Path 14" class="cls-10" d="M293.009,363.444h-6.715A22.361,22.361,0,0,1,308.655,385.8V405.3h6.715V385.8A22.36,22.36,0,0,0,293.009,363.444Z" transform="translate(-138.032 -255.607)"/>
      <path id="Path_15" data-name="Path 15" class="cls-11" d="M210.132,406.335H143.189l2.589-3.265a14.311,14.311,0,0,0,3.1-8.893V368.021a22.289,22.289,0,0,1,7.646-3.1,30.551,30.551,0,0,0,20.138,26.11A30.551,30.551,0,0,0,196.8,364.92a22.289,22.289,0,0,1,7.646,3.1v26.156a14.31,14.31,0,0,0,3.1,8.893Z" transform="translate(-37.387 -256.645)"/>
      <g id="Group_2" data-name="Group 2" transform="translate(111.49 108.274)">
        <path id="Path_16" data-name="Path 16" class="cls-12" d="M323.278,380.206V368.021a22.289,22.289,0,0,0-7.646-3.1,30.313,30.313,0,0,1-3.475,11.725A72.474,72.474,0,0,1,323.278,380.206Z" transform="translate(-267.71 -364.92)"/>
        <path id="Path_17" data-name="Path 17" class="cls-12" d="M173.481,376.644a30.313,30.313,0,0,1-3.475-11.725,22.289,22.289,0,0,0-7.646,3.1v12.186A72.54,72.54,0,0,1,173.481,376.644Z" transform="translate(-162.359 -364.919)"/>
      </g>
      <path id="Path_18" data-name="Path 18" class="cls-13" d="M330.171,367.64c-.188-.112-.379-.221-.571-.328-.121-.067-.242-.135-.364-.2-.186-.1-.374-.195-.564-.289-.129-.064-.258-.129-.389-.191-.19-.09-.382-.175-.575-.26-.132-.058-.263-.117-.4-.172-.2-.083-.4-.161-.606-.239-.128-.049-.255-.1-.385-.147-.219-.079-.441-.152-.663-.225-.116-.038-.231-.078-.348-.114-.253-.078-.51-.149-.767-.218-.088-.024-.175-.05-.264-.073q-.5-.126-1-.231l-.05-.011-.069-.012c-.069.8-.17,1.588-.3,2.368a22.462,22.462,0,0,1,7.945,7.445v-6.706c-.1-.067-.207-.135-.312-.2S330.279,367.7,330.171,367.64Z" transform="translate(-163.748 -256.652)"/>
      <path id="Path_19" data-name="Path 19" class="cls-14" d="M117.757,48.518v26.3h82.035v-26.3A41.018,41.018,0,0,0,158.775,7.5h0A41.018,41.018,0,0,0,117.757,48.518Z" transform="translate(-19.501 -5.275)"/>
      <path id="Path_20" data-name="Path 20" class="cls-15" d="M247.735,7.5h0c-1.175,0-2.337.052-3.486.149A41.019,41.019,0,0,1,281.78,48.518v26.3h6.973v-26.3A41.018,41.018,0,0,0,247.735,7.5Z" transform="translate(-108.462 -5.275)"/>
      <path id="Path_21" data-name="Path 21" class="cls-9" d="M105.931,220.99H120.58v16.8H105.931a8.4,8.4,0,1,1,0-16.8Z" transform="translate(-5.277 -155.42)"/>
      <path id="Path_22" data-name="Path 22" class="cls-10" d="M351.439,220.99H336.791v16.8h14.648a8.4,8.4,0,0,0,0-16.8Z" transform="translate(-173.546 -155.42)"/>
      <path id="Path_23" data-name="Path 23" class="cls-16" d="M204.186,105.915a13.153,13.153,0,0,0-14.328-1.489,32.237,32.237,0,0,1-25.417,0,13.152,13.152,0,0,0-14.328,1.489,17.306,17.306,0,0,0-6.229,13.314v21.634a33.265,33.265,0,0,0,33.265,33.265h0a33.265,33.265,0,0,0,33.265-33.265V119.229A17.306,17.306,0,0,0,204.186,105.915Z" transform="translate(-37.876 -72.421)"/>
      <path id="Path_24" data-name="Path 24" class="cls-9" d="M278.806,111.61c-.226-.189-.458-.368-.695-.539V150.02a29.8,29.8,0,0,1-28.126,29.756h0q.436.023.875.035h.015q.446.012.894.012h0c.383,0,.764-.009,1.144-.022l.285-.011q1.137-.048,2.252-.171l.278-.032c.371-.044.741-.092,1.108-.148l.015,0q.387-.059.771-.128l.261-.049c.174-.032.347-.065.52-.1l.306-.065c.156-.033.312-.066.468-.1l.322-.076c.149-.036.3-.072.446-.109l.328-.085q.218-.057.434-.117l.328-.093q.217-.063.432-.128l.319-.1c.147-.046.293-.094.44-.143l.3-.1c.153-.052.3-.107.457-.161.093-.033.186-.066.279-.1.174-.064.346-.131.519-.2l.207-.079q.36-.142.717-.293l.146-.063c.188-.081.376-.162.563-.246.085-.038.17-.078.254-.117.149-.069.3-.137.446-.208.094-.045.188-.092.282-.138.138-.068.275-.135.411-.2l.289-.149c.132-.069.264-.138.4-.209l.29-.158q.194-.107.387-.216l.286-.164c.128-.074.256-.15.383-.227l.278-.168c.13-.08.259-.161.388-.242.087-.055.175-.11.262-.166.138-.089.275-.18.412-.271.076-.05.152-.1.228-.151.169-.115.336-.231.5-.349l.126-.088q.311-.222.617-.45l.175-.134c.145-.109.289-.219.432-.331.077-.06.152-.121.228-.182.123-.1.247-.2.368-.3.081-.067.162-.134.242-.2.115-.1.23-.193.343-.29l.245-.213q.166-.146.33-.293l.243-.221q.162-.148.321-.3l.238-.226q.16-.154.318-.311c.076-.075.152-.149.227-.225.109-.109.216-.22.323-.331.07-.072.141-.144.21-.217.116-.122.23-.246.344-.369.058-.064.118-.126.176-.19q.512-.565,1-1.152c.054-.065.107-.131.16-.2.107-.132.215-.264.32-.4.062-.079.123-.158.184-.237.095-.123.19-.245.283-.369.064-.085.127-.171.19-.256q.133-.18.263-.361l.189-.267q.127-.181.252-.363.093-.135.184-.272.123-.184.244-.371.089-.137.177-.274.121-.19.238-.382c.056-.09.112-.181.167-.272.082-.135.161-.271.241-.408.05-.085.1-.169.148-.253.091-.159.18-.319.268-.479.035-.064.072-.127.107-.192q.183-.338.359-.68c.023-.045.045-.091.068-.136.093-.184.185-.368.275-.553.041-.084.08-.168.119-.253.07-.149.141-.3.209-.447.043-.095.085-.19.127-.286.062-.141.125-.281.185-.423.043-.1.085-.2.126-.3.058-.139.115-.278.171-.418q.061-.154.122-.309.081-.209.159-.419c.039-.1.078-.209.115-.315q.077-.212.15-.426c.036-.1.072-.208.107-.312.049-.147.1-.295.144-.443.032-.1.065-.2.1-.3.049-.159.1-.319.142-.479.026-.091.054-.181.08-.272.057-.2.111-.4.163-.6.014-.052.028-.1.042-.155q.1-.381.187-.765c.017-.072.032-.145.048-.218.041-.184.082-.369.121-.554.02-.1.039-.2.058-.3.032-.161.063-.322.093-.483.02-.108.038-.217.056-.325q.04-.231.077-.462c.017-.112.034-.225.05-.337.022-.152.044-.3.064-.458q.023-.171.043-.343.028-.23.053-.461c.012-.114.024-.228.035-.342.015-.156.029-.313.042-.47.009-.112.019-.225.027-.337.012-.164.022-.328.031-.493.006-.106.013-.212.018-.319.009-.182.015-.365.021-.548,0-.09.007-.179.009-.269q.01-.409.01-.821V124.924A17.3,17.3,0,0,0,278.806,111.61Z" transform="translate(-112.496 -78.115)"/>
      <path id="Path_25" data-name="Path 25" d="M164.37,93.538a35.365,35.365,0,0,0,6.51-8.947h7.013A10.623,10.623,0,0,0,182.516,64.4V43.242A43.228,43.228,0,0,0,108.7,12.665a2.225,2.225,0,1,0,3.147,3.147,38.791,38.791,0,0,1,66.221,27.43V63.35c-.058,0-.115-.006-.172-.006h-3.13V46.809a19.527,19.527,0,0,0-7.025-15.02,15.375,15.375,0,0,0-16.749-1.774,30.054,30.054,0,0,1-23.428,0,15.374,15.374,0,0,0-16.749,1.773,19.526,19.526,0,0,0-7.027,15.021V63.344h-3.13c-.058,0-.115.005-.172.006V43.242a38.648,38.648,0,0,1,6.031-20.783,2.225,2.225,0,1,0-3.755-2.389,43.1,43.1,0,0,0-6.727,23.172V64.4a10.623,10.623,0,0,0,4.623,20.188h7.013a35.371,35.371,0,0,0,16.89,16.153v4.866h-.988a24.6,24.6,0,0,0-4.748.464c-.042.006-.083.01-.125.018-.425.085-.845.185-1.262.292l-.012,0a24.439,24.439,0,0,0-7.134,3.114,2.256,2.256,0,0,0-.218.161A24.582,24.582,0,0,0,98.984,130.2v19.491a2.225,2.225,0,0,0,2.225,2.225h76.129a2.225,2.225,0,0,0,2.225-2.225V130.2c0-.519-.017-1.049-.052-1.619a2.225,2.225,0,1,0-4.442.271c.029.479.043.92.043,1.348v17.266h-1.292l-1.921-2.422a12.132,12.132,0,0,1-2.617-7.51V116.009a20.3,20.3,0,0,1,3.71,5.186,2.226,2.226,0,0,0,3.98-1.992,24.467,24.467,0,0,0-21.994-13.593h-.988v-4.866A35.292,35.292,0,0,0,164.37,93.538Zm13.523-25.743a6.173,6.173,0,1,1,0,12.346h-5.1c.005-.015.01-.031.015-.046q.194-.556.367-1.118c.027-.088.054-.177.08-.265q.153-.5.29-1.013c.014-.052.029-.1.043-.155.1-.377.192-.757.279-1.137.021-.093.042-.187.063-.281q.116-.527.217-1.057c.008-.04.016-.081.024-.121.071-.386.135-.773.193-1.162.015-.1.028-.191.042-.287.053-.373.1-.746.143-1.121,0-.023.006-.046.008-.069.042-.394.076-.79.106-1.186.007-.1.014-.193.02-.29.026-.4.049-.8.062-1.2.015-.377.023-.766.023-1.188v-.649h3.131ZM100.654,80.141a6.173,6.173,0,1,1,0-12.346h3.13v.649c0,.422.007.811.022,1.17.013.4.035.8.062,1.2.007.1.013.2.02.3.029.4.063.792.105,1.186,0,.025.006.051.009.076.041.373.089.745.142,1.116.014.1.028.195.042.292.058.389.122.776.193,1.162.007.041.016.081.024.122.067.354.14.707.217,1.058.021.094.041.187.063.281.087.381.18.761.279,1.138.014.052.029.1.043.156q.137.507.289,1.009c.027.09.054.18.082.27q.174.558.365,1.111c.006.017.011.034.017.051h-5.1Zm10.423,1.293a30.815,30.815,0,0,1-2.823-11.981c-.013-.316-.019-.646-.019-1.008V46.809A15.087,15.087,0,0,1,113.666,35.2a10.544,10.544,0,0,1,6.79-2.424A11.467,11.467,0,0,1,125.572,34a34.415,34.415,0,0,0,27.4,0A10.927,10.927,0,0,1,164.883,35.2a15.088,15.088,0,0,1,5.429,11.606V68.444c0,.362-.007.691-.02,1.026q-.038,1.173-.162,2.331a30.69,30.69,0,0,1-2.345,8.925q-.154.356-.316.708h0a31.123,31.123,0,0,1-16.54,15.784l-.028.011h0a31.044,31.044,0,0,1-39.822-15.8Zm2.638,31.214a20.017,20.017,0,0,1,3.533-1.564,32.281,32.281,0,0,0,2.179,7.427c-1.922.525-3.831,1.129-5.713,1.808ZM103.434,130.2a20.072,20.072,0,0,1,5.83-14.155v21.489a12.134,12.134,0,0,1-2.617,7.51l-1.921,2.422h-1.292V130.2Zm6.966,17.265a16.606,16.606,0,0,0,3.316-9.932V125.069a70.576,70.576,0,0,1,7.806-2.508,32.8,32.8,0,0,0,17,13.919,2.225,2.225,0,0,0,1.5,0,32.8,32.8,0,0,0,17-13.92,70.679,70.679,0,0,1,7.806,2.508v12.462a16.608,16.608,0,0,0,3.316,9.932H110.4Zm52.519-35.774c.06.026.122.049.182.075.145.064.288.136.432.2.439.207.874.424,1.3.663v7.685q-2.823-1.018-5.713-1.808a32.286,32.286,0,0,0,2.181-7.437C161.849,111.254,162.388,111.462,162.919,111.69Zm-7.941-1.63c.66,0,1.313.034,1.959.1a28.366,28.366,0,0,1-17.664,21.853,28.366,28.366,0,0,1-17.664-21.852c.645-.063,1.3-.1,1.959-.1h3.213a2.225,2.225,0,0,0,2.225-2.225v-5.413a35.648,35.648,0,0,0,20.532,0v5.412a2.225,2.225,0,0,0,2.225,2.225h3.213Z"/>
    </g>
  </g>
</svg>
