<svg xmlns="http://www.w3.org/2000/svg" viewBox="0 0 816 817.007">
  <defs>
    <style>
      .cls-1 {
        fill: #87d7f5;
      }

      .cls-2 {
        fill: #baeaf7;
      }

      .cls-3 {
        fill: #9d9d9e;
      }

      .cls-4 {
        fill: #888889;
      }

      .cls-5 {
        fill: #cacacc;
      }

      .cls-6 {
        fill: #b9b9ba;
      }

      .cls-7 {
        fill: #77c680;
      }

      .cls-8 {
        fill: #79797a;
      }

      .cls-9 {
        fill: #e44848;
        stroke: #707070;
      }

      .cls-10 {
        fill: #ceaa80;
      }

      .cls-11 {
        fill: #e83862;
      }

      .cls-12 {
        fill: #f9dbb7;
      }

      .cls-13 {
        fill: #fff;
      }

      .cls-14, .cls-21 {
        fill: #4d4d4d;
      }

      .cls-14, .cls-23 {
        opacity: 0.29;
      }

      .cls-15 {
        fill: #f9c83e;
      }

      .cls-16 {
        fill: #0071bc;
      }

      .cls-17 {
        fill: #eab83b;
      }

      .cls-18 {
        fill: #2588bf;
      }

      .cls-19 {
        fill: #d63261;
      }

      .cls-20 {
        fill: #e5b53c;
      }

      .cls-22 {
        fill: #e6e6e6;
      }

      .cls-24 {
        fill: #39b54a;
      }

      .cls-25 {
        stroke: none;
      }

      .cls-26 {
        fill: none;
      }
    </style>
  </defs>
  <g id="Group_20" data-name="Group 20" transform="translate(-141 405)">
    <g id="borobudur" transform="translate(141 -405)">
      <circle id="Ellipse_1" data-name="Ellipse 1" class="cls-1" cx="407.755" cy="407.755" r="407.755"/>
      <g id="Group_1" data-name="Group 1" transform="translate(1.902 156.141)">
        <path id="Path_1" data-name="Path 1" class="cls-2" d="M178.744,140.472H147.121a21.221,21.221,0,1,1,0-42.442h31.623a21.221,21.221,0,1,1,0,42.442Z" transform="translate(72.731 -98.03)"/>
        <path id="Path_2" data-name="Path 2" class="cls-2" d="M236.07,182.913H139.182a21.221,21.221,0,0,1,0-42.442h8.937a21.221,21.221,0,1,0,0-42.442H86.16A405.765,405.765,0,0,0,1.194,310.238H137.871a21.221,21.221,0,0,0,0-42.442h-28.2a21.221,21.221,0,0,1,0-42.442H236.07a21.221,21.221,0,1,0,0-42.442Z" transform="translate(-1.194 -98.03)"/>
        <path id="Path_3" data-name="Path 3" class="cls-2" d="M604.1,262.628H438.154a21.221,21.221,0,0,0,0,42.442h74.629a21.221,21.221,0,0,1,0,42.442H377.628a21.221,21.221,0,1,0,0,42.442h61.09a21.221,21.221,0,1,1,0,42.442H404.705a21.221,21.221,0,0,0,0,42.442H538.028A405.608,405.608,0,0,0,604.1,262.628Z" transform="translate(209.373 -0.458)"/>
      </g>
      <path id="Path_4" data-name="Path 4" class="cls-3" d="M291.168,15.985A17.229,17.229,0,0,0,273.983,0h-9.952a17.229,17.229,0,0,0-17.185,15.985L234.058,192.647h69.9Z" transform="translate(138.748)"/>
      <path id="Path_5" data-name="Path 5" class="cls-4" d="M273.1,0h-9.069a17.23,17.23,0,0,0-17.185,15.985L234.059,192.648h34.119l2.563-177.48C270.845,8.012,271.807,2.147,273.1,0Z" transform="translate(138.748)"/>
      <path id="Path_6" data-name="Path 6" class="cls-5" d="M345.039,104.494H222.826a13.945,13.945,0,0,0-13.945,13.945v38.477h150.1V118.439A13.945,13.945,0,0,0,345.039,104.494Z" transform="translate(123.823 61.943)"/>
      <g id="Group_2" data-name="Group 2" transform="translate(314.975 166.437)">
        <path id="Path_7" data-name="Path 7" class="cls-6" d="M297.877,104.494H222.826a13.945,13.945,0,0,0-13.945,13.945v38.479h75.051V118.439A13.944,13.944,0,0,1,297.877,104.494Z" transform="translate(-191.152 -104.494)"/>
        <path id="Path_8" data-name="Path 8" class="cls-6" d="M229.607,164.644H351.451a109.944,109.944,0,0,1,31.859,4.715V155.3A19.17,19.17,0,0,0,364.2,136.187H216.864A19.17,19.17,0,0,0,197.75,155.3v14.058A109.94,109.94,0,0,1,229.607,164.644Z" transform="translate(-197.75 -85.707)"/>
      </g>
      <path id="Path_9" data-name="Path 9" class="cls-3" d="M272.412,164.644V155.3a19.17,19.17,0,0,1,19.114-19.114H216.864A19.17,19.17,0,0,0,197.75,155.3v14.058a110,110,0,0,1,31.859-4.715Z" transform="translate(117.225 80.731)"/>
      <path id="Path_10" data-name="Path 10" class="cls-7" d="M745.932,414.909a65.64,65.64,0,0,0-24.674,1.513,2.446,2.446,0,0,1-3-1.806,108.26,108.26,0,0,0-199.825-27.738,4.749,4.749,0,0,1-5.869,2.091,82.077,82.077,0,0,0-29.7-5.538c-1.2,0-2.384.04-3.571.091a89.2,89.2,0,0,0-130.472,39.95,2.044,2.044,0,0,1-2.977.93,66.82,66.82,0,0,0-51.638-7.977,2.447,2.447,0,0,1-3-1.806A108.26,108.26,0,0,0,91.371,386.88a4.749,4.749,0,0,1-5.869,2.091,82.4,82.4,0,0,0-59.916.2,408.309,408.309,0,0,0,60.789,91.347H698.793A408.931,408.931,0,0,0,745.932,414.909Z" transform="translate(15.167 196.466)"/>
      <path id="Path_11" data-name="Path 11" class="cls-5" d="M93.655,453.94a407.757,407.757,0,0,0,517.164,0Z" transform="translate(55.518 269.092)"/>
      <g id="Group_3" data-name="Group 3" transform="translate(149.173 723.032)">
        <path id="Path_12" data-name="Path 12" class="cls-6" d="M205.265,453.94H93.655a407.457,407.457,0,0,0,111.61,65.171V453.94Z" transform="translate(-93.655 -453.94)"/>
        <path id="Path_13" data-name="Path 13" class="cls-6" d="M198.081,535.913a410.342,410.342,0,0,0,184.5,0V453.94h-184.5Z" transform="translate(-31.752 -453.94)"/>
      </g>
      <path id="Path_14" data-name="Path 14" class="cls-3" d="M652.187,440.084h0a8.111,8.111,0,0,1-8.111,8.11H82.838a8.111,8.111,0,0,1-8.111-8.11h0a44.312,44.312,0,0,1,44.311-44.312H607.878A44.312,44.312,0,0,1,652.187,440.084Z" transform="translate(44.298 234.611)"/>
      <path id="Path_15" data-name="Path 15" class="cls-4" d="M216.486,440.084A44.312,44.312,0,0,1,260.8,395.773H119.038a44.312,44.312,0,0,0-44.311,44.312,8.111,8.111,0,0,0,8.111,8.11H224.6A8.111,8.111,0,0,1,216.486,440.084Z" transform="translate(44.298 234.611)"/>
      <path id="Path_16" data-name="Path 16" class="cls-3" d="M516.675,361.625V262.958c0-61-49.909-110.906-110.906-110.906H283.925c-61,0-110.906,49.907-110.906,110.906v98.667c0,98.667-66.9,126.2-66.9,126.2H583.57S516.675,460.292,516.675,361.625Z" transform="translate(62.909 90.135)"/>
      <path id="Path_17" data-name="Path 17" class="cls-4" d="M261.325,375.035V261.2a111.955,111.955,0,0,1,87.4-109.152h-64.8c-61,0-110.906,49.907-110.906,110.906v98.667c0,98.667-66.9,126.2-66.9,126.2H215.958C235.516,470.857,261.325,436.773,261.325,375.035Z" transform="translate(62.908 90.135)"/>
      <path id="Path_18" data-name="Path 18" class="cls-6" d="M67.82,425.028a13.909,13.909,0,0,0-3.772.53A410.069,410.069,0,0,0,119.17,477.45H620.4a410.159,410.159,0,0,0,55.122-51.892,13.9,13.9,0,0,0-3.772-.53Z" transform="translate(37.967 251.953)"/>
      <path id="Path_19" data-name="Path 19" class="cls-3" d="M222.816,425.028h-155a13.9,13.9,0,0,0-3.772.53A410.069,410.069,0,0,0,119.17,477.45H222.814V425.028Z" transform="translate(37.967 251.953)"/>
      <path id="Path_20" data-name="Path 20" class="cls-5" d="M438.985,425.028H256V477.45H438.985Z" transform="translate(151.755 251.953)"/>
      <path id="Path_21" data-name="Path 21" class="cls-6" d="M186.8,425.028H67.82a13.909,13.909,0,0,0-3.772.53A410.069,410.069,0,0,0,119.17,477.45H186.8V425.028Z" transform="translate(37.967 251.953)"/>
      <path id="Path_22" data-name="Path 22" class="cls-8" d="M213.263,278.961,194.9,297.32a9.273,9.273,0,0,1-13.077,0l-18.359-18.359a9.273,9.273,0,0,1,0-13.077l18.359-18.359a9.273,9.273,0,0,1,13.077,0l18.359,18.359A9.276,9.276,0,0,1,213.263,278.961Z" transform="translate(95.304 145.132)"/>
      <g id="Group_4" data-name="Group 4" transform="translate(296.123 305.423)">
        <path id="Path_23" data-name="Path 23" class="cls-4" d="M265.151,278.961,246.792,297.32a9.273,9.273,0,0,1-13.077,0l-18.359-18.359a9.273,9.273,0,0,1,0-13.077l18.359-18.359a9.273,9.273,0,0,1,13.077,0l18.359,18.359A9.273,9.273,0,0,1,265.151,278.961Z" transform="translate(-170.06 -160.291)"/>
        <path id="Path_24" data-name="Path 24" class="cls-4" d="M317.073,278.961,298.714,297.32a9.273,9.273,0,0,1-13.077,0l-18.359-18.359a9.273,9.273,0,0,1,0-13.077l18.359-18.359a9.273,9.273,0,0,1,13.077,0l18.359,18.359A9.273,9.273,0,0,1,317.073,278.961Z" transform="translate(-139.281 -160.291)"/>
        <path id="Path_25" data-name="Path 25" class="cls-4" d="M369.119,278.961,350.76,297.32a9.273,9.273,0,0,1-13.077,0l-18.359-18.359a9.273,9.273,0,0,1,0-13.077l18.359-18.359a9.273,9.273,0,0,1,13.077,0l18.359,18.359A9.273,9.273,0,0,1,369.119,278.961Z" transform="translate(-108.429 -160.291)"/>
        <path id="Path_26" data-name="Path 26" class="cls-4" d="M238.406,225.886l-18.359,18.359a9.273,9.273,0,0,1-13.077,0l-18.359-18.359a9.273,9.273,0,0,1,0-13.077l18.359-18.359a9.273,9.273,0,0,1,13.077,0l18.359,18.359A9.273,9.273,0,0,1,238.406,225.886Z" transform="translate(-185.915 -191.753)"/>
      </g>
      <path id="Path_27" data-name="Path 27" class="cls-8" d="M220.047,194.451a9.273,9.273,0,0,0-13.077,0l-18.359,18.359a9.273,9.273,0,0,0,0,13.077l18.359,18.359a9.2,9.2,0,0,0,7.055,2.649V237.67a111.352,111.352,0,0,1,7.927-41.314Z" transform="translate(110.209 113.67)"/>
      <g id="Group_5" data-name="Group 5" transform="translate(378.824 305.423)">
        <path id="Path_28" data-name="Path 28" class="cls-4" d="M290.328,225.886l-18.359,18.359a9.273,9.273,0,0,1-13.077,0l-18.359-18.359a9.273,9.273,0,0,1,0-13.077l18.359-18.359a9.273,9.273,0,0,1,13.077,0l18.359,18.359A9.273,9.273,0,0,1,290.328,225.886Z" transform="translate(-237.836 -191.753)"/>
        <path id="Path_29" data-name="Path 29" class="cls-4" d="M342.374,225.886l-18.359,18.359a9.273,9.273,0,0,1-13.077,0L292.58,225.886a9.273,9.273,0,0,1,0-13.077l18.359-18.359a9.273,9.273,0,0,1,13.077,0l18.359,18.359A9.273,9.273,0,0,1,342.374,225.886Z" transform="translate(-206.984 -191.753)"/>
      </g>
      <path id="Path_30" data-name="Path 30" class="cls-8" d="M148.121,245.08a9.248,9.248,0,0,0,10.927-1.548l18.359-18.359a9.273,9.273,0,0,0,0-13.077l-18.359-18.359a8.99,8.99,0,0,0-.956-.779,109.836,109.836,0,0,0-9.971,45.751Z" transform="translate(87.805 114.385)"/>
      <g id="Group_6" data-name="Group 6" transform="translate(296.123 306.015)">
        <path id="Path_31" data-name="Path 31" class="cls-4" d="M376.892,239.2a109.854,109.854,0,0,0-10.575-47.078,9.118,9.118,0,0,0-3.334,2.106l-18.359,18.359a9.273,9.273,0,0,0,0,13.077l18.359,18.359a9.275,9.275,0,0,0,13.078,0l.83-.83Z" transform="translate(-93.431 -192.125)"/>
        <path id="Path_32" data-name="Path 32" class="cls-4" d="M238.406,331.973l-18.359,18.359a9.273,9.273,0,0,1-13.077,0l-18.359-18.359a9.273,9.273,0,0,1,0-13.077l18.359-18.359a9.273,9.273,0,0,1,13.077,0L238.406,318.9A9.273,9.273,0,0,1,238.406,331.973Z" transform="translate(-185.915 -129.458)"/>
      </g>
      <path id="Path_33" data-name="Path 33" class="cls-8" d="M206.97,300.529l-18.359,18.359a9.273,9.273,0,0,0,0,13.077L204.5,347.85a169.826,169.826,0,0,0,9.311-49.99A9.2,9.2,0,0,0,206.97,300.529Z" transform="translate(110.209 176.566)"/>
      <path id="Path_34" data-name="Path 34" class="cls-4" d="M290.328,331.973l-18.359,18.359a9.273,9.273,0,0,1-13.077,0l-18.358-18.359a9.273,9.273,0,0,1,0-13.077l18.359-18.359a9.273,9.273,0,0,1,13.077,0L290.328,318.9A9.273,9.273,0,0,1,290.328,331.973Z" transform="translate(140.988 176.558)"/>
      <path id="Path_35" data-name="Path 35" class="cls-8" d="M164.147,300.538a9.273,9.273,0,0,0-13.077,0l-.154.154a155.422,155.422,0,0,1-10.21,39.275l10.364,10.364a9.273,9.273,0,0,0,13.077,0l18.359-18.359a9.273,9.273,0,0,0,0-13.077Z" transform="translate(83.409 176.558)"/>
      <g id="Group_7" data-name="Group 7" transform="translate(461.723 474.396)">
        <path id="Path_36" data-name="Path 36" class="cls-4" d="M342.374,331.973l-18.359,18.359a9.273,9.273,0,0,1-13.077,0L292.58,331.973a9.273,9.273,0,0,1,0-13.077l18.359-18.359a9.273,9.273,0,0,1,13.077,0L342.374,318.9A9.273,9.273,0,0,1,342.374,331.973Z" transform="translate(-289.883 -297.839)"/>
        <path id="Path_37" data-name="Path 37" class="cls-4" d="M378.866,303.342l-2.8-2.8a9.275,9.275,0,0,0-13.078,0L344.624,318.9a9.273,9.273,0,0,0,0,13.077l18.359,18.359a9.275,9.275,0,0,0,13.078,0l11.99-11.99A155.169,155.169,0,0,1,378.866,303.342Z" transform="translate(-259.031 -297.84)"/>
      </g>
      <path id="Path_38" data-name="Path 38" class="cls-5" d="M604.727,415.283H109.837a26.288,26.288,0,0,1-26.211-26.211h0a26.288,26.288,0,0,1,26.211-26.211h494.89a26.288,26.288,0,0,1,26.211,26.211h0A26.288,26.288,0,0,1,604.727,415.283Z" transform="translate(49.573 215.101)"/>
      <path id="Path_39" data-name="Path 39" class="cls-6" d="M206.525,389.072h0a27.218,27.218,0,0,1,20.251-26.211H109.836a26.288,26.288,0,0,0-26.211,26.211h0a26.288,26.288,0,0,0,26.211,26.211h116.94A27.218,27.218,0,0,1,206.525,389.072Z" transform="translate(49.572 215.101)"/>
    </g>
    <g id="Ellipse_2" data-name="Ellipse 2" class="cls-9" transform="translate(742 -363)">
      <circle class="cls-25" cx="107.5" cy="107.5" r="107.5"/>
      <circle class="cls-26" cx="107.5" cy="107.5" r="107"/>
    </g>
    <g id="indonesian" transform="translate(130.376 -65)">
      <g id="Group_8" data-name="Group 8">
        <circle id="Ellipse_3" data-name="Ellipse 3" class="cls-10" cx="14.791" cy="14.791" r="14.791" transform="translate(166.578 90.592)"/>
        <circle id="Ellipse_4" data-name="Ellipse 4" class="cls-10" cx="14.791" cy="14.791" r="14.791" transform="translate(279.524 90.592)"/>
      </g>
      <g id="Group_9" data-name="Group 9">
        <circle id="Ellipse_5" data-name="Ellipse 5" class="cls-11" cx="13.294" cy="13.294" r="13.294" transform="translate(163.548 112.998)"/>
        <circle id="Ellipse_6" data-name="Ellipse 6" class="cls-11" cx="13.294" cy="13.294" r="13.294" transform="translate(285.549 112.998)"/>
      </g>
      <g id="Group_10" data-name="Group 10">
        <circle id="Ellipse_7" data-name="Ellipse 7" class="cls-11" cx="13.294" cy="13.294" r="13.294" transform="translate(163.548 129.611)"/>
        <circle id="Ellipse_8" data-name="Ellipse 8" class="cls-11" cx="13.294" cy="13.294" r="13.294" transform="translate(285.549 129.611)"/>
      </g>
      <path id="Path_40" data-name="Path 40" class="cls-12" d="M298.717,115.973c0,30.51-22.46,48.31-51.75,51.33a85.254,85.254,0,0,1-9.12.47,88.283,88.283,0,0,1-9.13-.47c-1.49-.15-2.97-.34-4.42-.57-27.1-4.29-47.33-21.8-47.33-50.76,0-18.37,8.13-38.44,20.98-52.87,10.69-12,24.65-20.11,39.9-20.11C271.467,42.993,298.717,82.353,298.717,115.973Z"/>
      <path id="Path_41" data-name="Path 41" class="cls-13" d="M249.8,114.089c0,9.7-5.352,17.558-11.954,17.558s-11.954-7.861-11.954-17.558Z"/>
      <g id="Group_11" data-name="Group 11">
        <path id="Path_42" data-name="Path 42" d="M217.495,107.551a6.493,6.493,0,0,1-.778-.17,5.567,5.567,0,0,0-.829-.189c-.3-.06-.6-.132-.969-.186-.345-.076-.715-.135-1.1-.184-.368-.083-.776-.08-1.158-.155-.4-.009-.794-.077-1.2-.08-.4-.034-.808-.022-1.213-.038-.4.017-.811.008-1.212.041-.406.007-.8.069-1.2.082-.382.074-.79.072-1.157.155-.382.048-.752.107-1.1.183-.36.049-.682.133-.987.2s-.594.111-.817.178c-.461.116-.775.164-.775.164a4.862,4.862,0,0,1,.251-.763,3.949,3.949,0,0,1,.416-.818,5.416,5.416,0,0,1,.719-.948c.148-.162.311-.322.481-.492.18-.151.376-.3.578-.453a8.268,8.268,0,0,1,1.382-.808,8.413,8.413,0,0,1,1.642-.52,9.434,9.434,0,0,1,1.776-.2,9.53,9.53,0,0,1,1.776.2,8.474,8.474,0,0,1,1.641.521,8.127,8.127,0,0,1,1.381.809c.2.156.4.3.578.452.17.169.334.329.481.491a5.76,5.76,0,0,1,.737.96,3.268,3.268,0,0,1,.4.807A7.091,7.091,0,0,1,217.495,107.551Z"/>
        <path id="Path_43" data-name="Path 43" d="M272.686,107.551a6.493,6.493,0,0,1-.778-.17,5.567,5.567,0,0,0-.829-.189c-.3-.06-.6-.132-.969-.186-.345-.076-.715-.135-1.1-.184-.368-.082-.776-.08-1.158-.155-.4-.009-.794-.077-1.2-.08-.4-.034-.808-.022-1.213-.038-.4.017-.811.008-1.212.041-.406.007-.8.069-1.2.082-.382.074-.79.072-1.157.155-.382.048-.752.107-1.1.183-.36.049-.682.134-.987.2s-.594.111-.817.178c-.461.116-.775.164-.775.164a4.86,4.86,0,0,1,.251-.763,3.921,3.921,0,0,1,.416-.817,5.417,5.417,0,0,1,.719-.948c.148-.162.311-.322.481-.492.18-.151.376-.3.578-.453a8.268,8.268,0,0,1,1.382-.808,8.413,8.413,0,0,1,1.642-.52,9.434,9.434,0,0,1,1.776-.2,9.53,9.53,0,0,1,1.776.2,8.473,8.473,0,0,1,1.641.521,8.128,8.128,0,0,1,1.381.809c.2.156.4.3.578.452.17.169.334.329.481.491a5.758,5.758,0,0,1,.737.96,3.267,3.267,0,0,1,.4.807A6.988,6.988,0,0,1,272.686,107.551Z"/>
      </g>
      <path id="Path_44" data-name="Path 44" class="cls-12" d="M340.044,277.78a102.789,102.789,0,0,1-2.67,24.97,2.426,2.426,0,0,1-4.79-.55v-.22a94.7,94.7,0,0,0-48.42-82.65l-.9,4.945c0,11.74-7.756,21.4-19.026,23.076v11.12a27.023,27.023,0,0,0,8.84,19.99,44.031,44.031,0,0,1,14.45,32.63s4.06,66.07-21.89,139.79c-.08.22-.15.43-.23.65-1.42,4.01-2.93,8.05-4.54,12.09q-1.92,4.9-4.06,9.82a3.72,3.72,0,0,1-7.08-.87c-.44-2.63-.92-5.63-1.43-8.95-.57-3.67-1.17-7.73-1.77-12.09-.03-.21-.06-.43-.09-.65-4.41-31.91-9.13-79.45-3.6-109.9h-9.98c5.53,30.45.81,77.99-3.61,109.9-.03.22-.06.44-.09.65-.6,4.36-1.2,8.421-1.77,12.09-.51,3.32-.99,6.32-1.43,8.95a3.713,3.713,0,0,1-7.07.87q-2.13-4.92-4.06-9.82c-1.61-4.04-3.12-8.08-4.54-12.09-.08-.22-.15-.43-.23-.65-25.95-73.72-21.9-139.79-21.9-139.79a44.031,44.031,0,0,1,14.45-32.63,27,27,0,0,0,8.85-19.99v-11.12c-11.28-1.68-19.111-11.19-19.111-22.93l-.819-5.1a94.721,94.721,0,0,0-48.43,82.66v.22a2.42,2.42,0,0,1-4.77.61,102.342,102.342,0,0,1,68.03-120.69q3.06-.99,6.21-1.79c1.54-.39,3.09-.75,4.65-1.07a14.609,14.609,0,0,0,11.37-11.32l.13-.64a88.283,88.283,0,0,0,9.13.47,85.253,85.253,0,0,0,9.12-.47l.16.76a14.619,14.619,0,0,0,11.25,11.3q2.52.54,4.99,1.22,3.135.84,6.19,1.89C309.4,196.07,339.374,234.3,340.044,277.78Z"/>
      <path id="Path_45" data-name="Path 45" class="cls-14" d="M250.945,175.2a37.417,37.417,0,0,1-26.21-.02,14.471,14.471,0,0,0,3.88-7.24l.13-.64a88.283,88.283,0,0,0,9.13.47,85.253,85.253,0,0,0,9.12-.47l.16.76A14.459,14.459,0,0,0,250.945,175.2Z"/>
      <path id="Path_46" data-name="Path 46" class="cls-15" d="M296.474,66.91a57.749,57.749,0,0,1-6.32,26.35,129.4,129.4,0,0,0-103.37,0,57.749,57.749,0,0,1-6.32-26.35c0-.66.01-1.32.04-1.98a58,58,0,0,1,115.93,0C296.464,65.59,296.474,66.25,296.474,66.91Z"/>
      <path id="Path_47" data-name="Path 47" class="cls-11" d="M296.061,51.629h0a2.5,2.5,0,0,0-2.6-2.4l-33.422,1.323a2.5,2.5,0,0,1-1.281-4.7L284.946,31.8a2.5,2.5,0,0,0,1.02-3.385h0a2.5,2.5,0,0,0-3.385-1.02l-30.93,16.6a2.5,2.5,0,0,1-3.4-3.363l16.3-31.091A2.5,2.5,0,0,0,263.5,6.165h0a2.5,2.5,0,0,0-3.375,1.053l-14.447,27.55a2.5,2.5,0,0,1-4.714-1.161V2.5a2.5,2.5,0,0,0-2.5-2.5h0a2.5,2.5,0,0,0-2.5,2.5V33.608a2.5,2.5,0,0,1-4.714,1.161L216.806,7.219a2.5,2.5,0,0,0-3.375-1.053h0a2.5,2.5,0,0,0-1.053,3.375l16.3,31.091a2.5,2.5,0,0,1-3.4,3.363L194.358,27.39a2.5,2.5,0,0,0-3.385,1.02h0a2.5,2.5,0,0,0,1.02,3.385l26.185,14.057a2.5,2.5,0,0,1-1.281,4.7L183.475,49.23a2.5,2.5,0,0,0-2.6,2.4h0a2.5,2.5,0,0,0,2.4,2.6l52.6,2.082a2.5,2.5,0,0,0,2.6-2.4h0a2.5,2.5,0,0,0,2.6,2.4l52.6-2.082A2.5,2.5,0,0,0,296.061,51.629Z"/>
      <path id="Path_48" data-name="Path 48" class="cls-16" d="M310.164,71.12q-6.495,12.735-12.98,25.46-3.48-1.77-7.03-3.32a129.4,129.4,0,0,0-103.37,0q-3.555,1.545-7.03,3.32-6.5-12.72-12.98-25.46,6.75-3.435,13.73-6.19a157.891,157.891,0,0,1,115.93,0Q303.409,67.675,310.164,71.12Z"/>
      <circle id="Ellipse_9" data-name="Ellipse 9" class="cls-17" cx="21.408" cy="21.408" r="21.408" transform="translate(217.061 32.5)"/>
      <circle id="Ellipse_10" data-name="Ellipse 10" class="cls-11" cx="11.784" cy="11.784" r="11.784" transform="translate(226.685 42.124)"/>
      <path id="Path_49" data-name="Path 49" class="cls-16" d="M237.844,284.958h-41.1l-5.228-65.63,46.323,0,46.322,0-5.228,65.63Z"/>
      <path id="Path_50" data-name="Path 50" class="cls-11" d="M287.524,311.09V450.88h-99.37V311.09a43.864,43.864,0,0,1,8.58-26.13h82.21A43.864,43.864,0,0,1,287.524,311.09Z"/>
      <path id="Path_51" data-name="Path 51" class="cls-18" d="M193.01,238.014l88.928,9.285-1.333,16.735-84.563,12.057Z"/>
      <path id="Path_52" data-name="Path 52" class="cls-15" d="M263.364,180.58a25.564,25.564,0,0,1-50.8-.25q-3.15.795-6.21,1.79c2.12,16.95,15.47,37.2,31.62,37.2,16.04,0,29.32-19.98,31.58-36.85Q266.494,181.42,263.364,180.58Z"/>
      <circle id="Ellipse_11" data-name="Ellipse 11" class="cls-11" cx="11.324" cy="11.324" r="11.324" transform="translate(226.519 208)"/>
      <path id="Path_53" data-name="Path 53" class="cls-19" d="M287.524,311.09V450.88h-21.89l-32.45-165.92h45.76A43.864,43.864,0,0,1,287.524,311.09Z"/>
      <path id="Path_54" data-name="Path 54" class="cls-15" d="M268.174,450.88h-5.08l-32.45-165.92h5.08Z"/>
      <path id="Path_55" data-name="Path 55" class="cls-14" d="M210.054,450.88h19.19c-.03.22-.06.44-.09.65-.6,4.36-1.2,8.421-1.77,12.09h-12.56c-1.61-4.04-3.12-8.08-4.54-12.09C210.2,451.31,210.134,451.1,210.054,450.88Z"/>
      <path id="Path_56" data-name="Path 56" class="cls-14" d="M265.634,450.88c-.08.22-.15.43-.23.65-1.42,4.01-2.93,8.05-4.54,12.09h-12.57c-.57-3.67-1.17-7.73-1.77-12.09-.03-.21-.06-.43-.09-.65Z"/>
    </g>
    <g id="indonesian_1_" data-name="indonesian (1)" transform="translate(475.712 -65)">
      <path id="Path_57" data-name="Path 57" class="cls-20" d="M293.734,86.891C290.956,49.635,260.148,16,260.148,16s-74.107,33.636-76.885,70.891A121.662,121.662,0,0,1,293.734,86.891Z"/>
      <g id="Group_12" data-name="Group 12">
        <circle id="Ellipse_12" data-name="Ellipse 12" class="cls-10" cx="14.791" cy="14.791" r="14.791" transform="translate(167.235 87.855)"/>
        <circle id="Ellipse_13" data-name="Ellipse 13" class="cls-10" cx="14.791" cy="14.791" r="14.791" transform="translate(280.181 87.855)"/>
      </g>
      <path id="Path_58" data-name="Path 58" class="cls-12" d="M299.378,113.24c0,30.51-22.46,48.31-51.75,51.33a85.254,85.254,0,0,1-9.12.47,88.283,88.283,0,0,1-9.13-.47c-1.49-.15-2.97-.34-4.42-.57-27.1-4.29-47.33-21.8-47.33-50.76a68.179,68.179,0,0,1,.82-10.4,85.283,85.283,0,0,1,20.16-42.47c10.69-12,24.65-20.11,39.9-20.11,21.49,0,40.37,16.08,51.2,36.46a83.329,83.329,0,0,1,8.84,26.12A66.957,66.957,0,0,1,299.378,113.24Z"/>
      <path id="Path_59" data-name="Path 59" class="cls-13" d="M250.455,120.131c0,9.7-5.352,17.557-11.954,17.557s-11.954-7.861-11.954-17.557Z"/>
      <g id="Group_13" data-name="Group 13">
        <path id="Path_60" data-name="Path 60" d="M218.151,104.815a6.493,6.493,0,0,1-.778-.17,5.567,5.567,0,0,0-.829-.189c-.3-.06-.6-.132-.969-.187-.345-.076-.715-.135-1.1-.183-.368-.083-.776-.08-1.158-.155-.4-.009-.794-.077-1.2-.08-.4-.034-.808-.022-1.213-.038-.4.017-.811.007-1.212.041-.406.007-.8.069-1.2.082-.382.074-.79.072-1.157.155-.382.048-.752.107-1.1.183-.361.049-.682.133-.987.2s-.594.111-.817.178c-.461.116-.775.164-.775.164a4.862,4.862,0,0,1,.251-.763,3.919,3.919,0,0,1,.416-.817,5.416,5.416,0,0,1,.719-.948c.148-.161.311-.322.481-.491.18-.151.376-.3.578-.453a8.2,8.2,0,0,1,1.382-.808,8.344,8.344,0,0,1,1.642-.519,7.889,7.889,0,0,1,3.552,0,8.406,8.406,0,0,1,1.641.521,8.127,8.127,0,0,1,1.381.809c.2.156.4.3.578.452.17.17.334.329.481.491a5.76,5.76,0,0,1,.737.96,3.286,3.286,0,0,1,.4.807A6.561,6.561,0,0,1,218.151,104.815Z"/>
        <path id="Path_61" data-name="Path 61" d="M273.342,104.815a6.493,6.493,0,0,1-.778-.17,5.567,5.567,0,0,0-.829-.189c-.3-.06-.6-.132-.969-.187-.345-.076-.715-.135-1.1-.183-.368-.083-.776-.081-1.158-.155-.4-.009-.794-.077-1.2-.08-.4-.034-.808-.022-1.213-.038-.4.017-.811.007-1.212.041-.406.007-.8.069-1.2.082-.382.074-.79.072-1.157.155-.382.048-.752.107-1.1.183-.361.049-.682.133-.987.2s-.594.111-.817.178c-.461.116-.775.164-.775.164a4.86,4.86,0,0,1,.251-.763,3.921,3.921,0,0,1,.416-.817,5.417,5.417,0,0,1,.719-.948c.148-.161.311-.322.481-.491.18-.151.376-.3.578-.453a8.24,8.24,0,0,1,1.382-.808,8.344,8.344,0,0,1,1.642-.519,7.889,7.889,0,0,1,3.552,0,8.4,8.4,0,0,1,1.641.521,8.128,8.128,0,0,1,1.381.809c.2.156.4.3.578.452.17.17.334.329.481.491a5.758,5.758,0,0,1,.737.96,3.284,3.284,0,0,1,.4.807A6.812,6.812,0,0,1,273.342,104.815Z"/>
      </g>
      <path id="Path_62" data-name="Path 62" class="cls-12" d="M340.708,275.05a102.789,102.789,0,0,1-2.67,24.97,2.426,2.426,0,0,1-4.79-.55v-.22c0-37.28-21.54-63.97-52.85-76.23.81,12.33,2.09,35.62,2.46,63.94.09,6.82.12,13.92.08,21.24-.16,33.03-1.79,70.32-6.66,104.29a360.131,360.131,0,0,1-7.97,40.39c-.46,1.73-.93,3.44-1.43,5.12-1.79,6.23-3.77,12.15-5.96,17.67a2.125,2.125,0,0,1-4.08-.51c-.57-4.28-1.34-10.17-2.22-17.16-.21-1.65-.43-3.36-.65-5.12-.33-2.67-.68-5.47-1.03-8.38-4.02-33.15-9.03-79.81-9.03-106.25h-10.39c0,28.76-5.93,81.43-10.07,114.63-.22,1.77-.44,3.47-.65,5.12-.2,1.6-.39,3.15-.58,4.63-.64,4.98-1.2,9.23-1.64,12.53a2.119,2.119,0,0,1-4.07.51q-1.95-4.935-3.7-10.28c-.79-2.41-1.55-4.87-2.26-7.39-.5-1.68-.97-3.39-1.43-5.12-11.34-42.82-14.47-99.01-14.64-146.19-.03-6.78.01-13.38.09-19.73.37-28.45,1.66-51.82,2.47-64.11-31.54,12.19-53.28,38.95-53.28,76.4v.22a2.42,2.42,0,0,1-4.77.61,102.332,102.332,0,0,1,65.49-119.82,100.1,100.1,0,0,1,13.4-3.73,14.638,14.638,0,0,0,11.37-11.32l.13-.64a88.283,88.283,0,0,0,9.13.47,85.253,85.253,0,0,0,9.12-.47l.16.76a14.627,14.627,0,0,0,11.25,11.3,99.14,99.14,0,0,1,13.44,3.91C311.188,194.79,340.048,232.4,340.708,275.05Z"/>
      <path id="Path_63" data-name="Path 63" class="cls-14" d="M251.574,172.466a37.417,37.417,0,0,1-26.21-.02,14.471,14.471,0,0,0,3.88-7.24l.13-.64a88.283,88.283,0,0,0,9.13.47,85.253,85.253,0,0,0,9.12-.47l.16.76A14.459,14.459,0,0,0,251.574,172.466Z"/>
      <g id="Group_14" data-name="Group 14">
        <path id="Path_64" data-name="Path 64" class="cls-21" d="M194.558,89a14,14,0,0,1-14,14,13.352,13.352,0,0,1-2.11-.16,83.754,83.754,0,0,1,8.84-26.12A14.007,14.007,0,0,1,194.558,89Z"/>
        <path id="Path_65" data-name="Path 65" class="cls-21" d="M298.548,102.84a13.352,13.352,0,0,1-2.11.16,14,14,0,0,1-6.73-26.28A83.329,83.329,0,0,1,298.548,102.84Z"/>
      </g>
      <path id="Path_66" data-name="Path 66" class="cls-14" d="M282.938,308.2c-.16,33.03-1.79,70.32-6.66,104.29a92.841,92.841,0,0,1-23.34,32.01c-4.02-33.15-9.03-79.81-9.03-106.25h-10.39c0,28.76-5.93,81.43-10.07,114.63-.44,3.48-.85,6.74-1.23,9.75a89.389,89.389,0,0,1-9.41,2.76c-1.32-4.02-2.54-8.2-3.69-12.51-11.34-42.82-14.47-99.01-14.64-146.19l.09-4.73h88.29C282.878,303.94,282.908,306.03,282.938,308.2Z"/>
      <path id="Path_67" data-name="Path 67" class="cls-15" d="M182.691,86.891C185.469,49.635,203.148,0,203.148,0s88.385,49.636,91.163,86.891A124.067,124.067,0,0,0,182.691,86.891Z"/>
      <path id="Path_68" data-name="Path 68" class="cls-11" d="M191.39,452.88h0l3.178-165.92h88.29c.234,18.182.712,44.8,1.228,71.409A92.715,92.715,0,0,1,191.39,452.88Z"/>
      <path id="Path_69" data-name="Path 69" class="cls-22" d="M272.478,180.54,256.188,294l-17.69.67-17.68-.67-16.34-113.74a100.1,100.1,0,0,1,13.4-3.73,14.589,14.589,0,0,0,4.83-1.94l15.79,20.08,15.74-20.01a14.526,14.526,0,0,0,4.8,1.97A99.134,99.134,0,0,1,272.478,180.54Z"/>
      <g id="Group_15" data-name="Group 15" class="cls-23">
        <path id="Path_70" data-name="Path 70" class="cls-21" d="M214.558,194.28l16.63,44.08,3,85-39.68-13.23c.25-31.22,1.67-57.12,2.53-70.28"/>
        <path id="Path_71" data-name="Path 71" class="cls-21" d="M280.4,240.02c.86,13.2,2.27,38.94,2.52,69.98l-40.09,13.36,3-85,16.58-43.94"/>
      </g>
      <g id="Group_16" data-name="Group 16">
        <path id="Path_72" data-name="Path 72" class="cls-24" d="M194.508,293.13c.25-31.22,1.67-57.12,2.53-70.28-24.31,9.4-42.81,27.45-50,52.39l-10.56-4.72a102.245,102.245,0,0,1,78.08-93.24l16.63,44.08,3,85Z"/>
        <path id="Path_73" data-name="Path 73" class="cls-24" d="M340.528,270.52l-10.56,4.73c-7.15-24.8-25.46-42.79-49.57-52.23.86,13.2,2.27,38.94,2.52,69.98l-40.09,13.36,3-85,16.58-43.94C304.648,188.08,337.758,226.16,340.528,270.52Z"/>
      </g>
      <g id="Group_19" data-name="Group 19">
        <g id="Group_17" data-name="Group 17">
          <path id="Path_74" data-name="Path 74" class="cls-11" d="M222.5,224.83a3.5,3.5,0,0,1-2.48-5.97,3.629,3.629,0,0,1,4.95,0,3.5,3.5,0,0,1-2.47,5.97Z"/>
          <path id="Path_75" data-name="Path 75" class="cls-11" d="M219,276.8a3.5,3.5,0,0,1,3.5-3.5h0a3.5,3.5,0,0,1,3.5,3.5h0a3.5,3.5,0,0,1-3.5,3.5h0A3.5,3.5,0,0,1,219,276.8Zm0-13.87a3.5,3.5,0,0,1,3.5-3.5h0a3.5,3.5,0,0,1,3.5,3.5h0a3.5,3.5,0,0,1-3.5,3.5h0A3.491,3.491,0,0,1,219,262.93Zm0-13.86a3.491,3.491,0,0,1,3.5-3.5h0a3.5,3.5,0,0,1,3.5,3.5h0a3.5,3.5,0,0,1-3.5,3.5h0A3.5,3.5,0,0,1,219,249.07Zm0-13.87a3.5,3.5,0,0,1,3.5-3.5h0a3.5,3.5,0,0,1,3.5,3.5h0a3.5,3.5,0,0,1-3.5,3.5h0A3.5,3.5,0,0,1,219,235.2Z"/>
          <path id="Path_76" data-name="Path 76" class="cls-11" d="M222.5,294.17a3.507,3.507,0,0,1-2.48-5.98,3.629,3.629,0,0,1,4.95,0,3.505,3.505,0,0,1-2.47,5.98Z"/>
        </g>
        <g id="Group_18" data-name="Group 18">
          <path id="Path_77" data-name="Path 77" class="cls-11" d="M254.5,224.83a3.5,3.5,0,0,1-2.48-5.97,3.629,3.629,0,0,1,4.95,0,3.5,3.5,0,0,1-2.47,5.97Z"/>
          <path id="Path_78" data-name="Path 78" class="cls-11" d="M251,276.8a3.5,3.5,0,0,1,3.5-3.5h0a3.5,3.5,0,0,1,3.5,3.5h0a3.5,3.5,0,0,1-3.5,3.5h0A3.5,3.5,0,0,1,251,276.8Zm0-13.87a3.5,3.5,0,0,1,3.5-3.5h0a3.5,3.5,0,0,1,3.5,3.5h0a3.5,3.5,0,0,1-3.5,3.5h0A3.491,3.491,0,0,1,251,262.93Zm0-13.86a3.49,3.49,0,0,1,3.5-3.5h0a3.5,3.5,0,0,1,3.5,3.5h0a3.5,3.5,0,0,1-3.5,3.5h0A3.5,3.5,0,0,1,251,249.07Zm0-13.87a3.5,3.5,0,0,1,3.5-3.5h0a3.5,3.5,0,0,1,3.5,3.5h0a3.5,3.5,0,0,1-3.5,3.5h0A3.5,3.5,0,0,1,251,235.2Z"/>
          <path id="Path_79" data-name="Path 79" class="cls-11" d="M254.5,294.17a3.507,3.507,0,0,1-2.48-5.98,3.629,3.629,0,0,1,4.95,0,3.505,3.505,0,0,1-2.47,5.98Z"/>
        </g>
      </g>
      <path id="Path_80" data-name="Path 80" class="cls-21" d="M210.548,458H222.8c-.2,1.6-.39,3.15-.58,4.63-.64,4.98-1.2,9.23-1.64,12.53a2.119,2.119,0,0,1-4.07.51q-1.95-4.935-3.7-10.28C212.018,462.98,211.258,460.52,210.548,458Z"/>
      <path id="Path_81" data-name="Path 81" class="cls-21" d="M266.878,458c-1.79,6.23-3.77,12.15-5.96,17.67a2.125,2.125,0,0,1-4.08-.51c-.57-4.28-1.34-10.17-2.22-17.16Z"/>
    </g>
  </g>
</svg>
